SeanSlab-CondensedRegular.ufo
<glyph name="exclam" format="1">
  <advance width="240"/>
  <unicode hex="0021"/>
  <outline>
    <contour>
      <point x="157" y="229" type="line"/>
      <point x="163" y="722" type="line"/>
      <point x="77" y="722" type="line"/>
      <point x="83" y="229" type="line"/>
    </contour>
    <contour>
      <point x="162" y="33" type="curve"/>
      <point x="162" y="60"/>
      <point x="144" y="73"/>
      <point x="120" y="73" type="curve"/>
      <point x="95" y="73"/>
      <point x="79" y="58"/>
      <point x="79" y="33" type="curve"/>
      <point x="162" y="33"/>
      <point x="79" y="33"/>
      <point x="162" y="33" type="curve"/>
      <point x="162" y="6"/>
      <point x="145" y="-7"/>
      <point x="120" y="-7" type="curve"/>
      <point x="94" y="-7"/>
      <point x="79" y="7"/>
      <point x="79" y="33" type="curve"/>
      <point x="162" y="33"/>
      <point x="79" y="33"/>
    </contour>
  </outline>
</glyph>
<glyph name="quotedbl" format="1">
  <advance width="380"/>
  <unicode hex="0022"/>
  <outline>
    <contour>
      <point x="145" y="573" type="line"/>
      <point x="151" y="774" type="line"/>
      <point x="74" y="774" type="line"/>
      <point x="80" y="573" type="line"/>
    </contour>
    <contour>
      <point x="300" y="573" type="line"/>
      <point x="306" y="774" type="line"/>
      <point x="228" y="774" type="line"/>
      <point x="234" y="573" type="line"/>
    </contour>
  </outline>
</glyph>
<glyph name="numbersign" format="1">
  <advance width="537"/>
  <unicode hex="0023"/>
  <outline>
    <contour>
      <point x="45" y="234" type="line"/>
      <point x="427" y="234" type="line"/>
      <point x="441" y="294" type="line"/>
      <point x="60" y="294" type="line"/>
    </contour>
    <contour>
      <point x="95" y="466" type="line"/>
      <point x="477" y="466" type="line"/>
      <point x="492" y="524" type="line"/>
      <point x="109" y="524" type="line"/>
    </contour>
    <contour>
      <point x="325" y="39" type="line"/>
      <point x="481" y="722" type="line"/>
      <point x="407" y="722" type="line"/>
      <point x="251" y="39" type="line"/>
    </contour>
    <contour>
      <point x="133" y="46" type="line"/>
      <point x="287" y="722" type="line"/>
      <point x="213" y="722" type="line"/>
      <point x="62" y="46" type="line"/>
    </contour>
  </outline>
</glyph>
<glyph name="ampersand" format="1">
  <advance width="540"/>
  <unicode hex="0026"/>
  <outline>
    <contour>
      <point x="517" y="22" type="line"/>
      <point x="440" y="129"/>
      <point x="358" y="252"/>
      <point x="277" y="361" type="curve"/>
      <point x="232" y="427"/>
      <point x="176" y="484"/>
      <point x="176" y="565" type="curve"/>
      <point x="176" y="619"/>
      <point x="192" y="667"/>
      <point x="236" y="667" type="curve"/>
      <point x="283" y="667"/>
      <point x="301" y="622"/>
      <point x="301" y="567" type="curve"/>
      <point x="301" y="494"/>
      <point x="260" y="447"/>
      <point x="200" y="402" type="curve"/>
      <point x="121" y="341"/>
      <point x="57" y="286"/>
      <point x="57" y="187" type="curve"/>
      <point x="57" y="76"/>
      <point x="123" y="-5"/>
      <point x="230" y="-5" type="curve"/>
      <point x="395" y="-5"/>
      <point x="455" y="144"/>
      <point x="495" y="315" type="curve"/>
      <point x="431" y="330"/>
      <point x="495" y="315"/>
      <point x="431" y="330" type="curve"/>
      <point x="398" y="189"/>
      <point x="362" y="55"/>
      <point x="234" y="55" type="curve"/>
      <point x="167" y="55"/>
      <point x="132" y="113"/>
      <point x="132" y="187" type="curve"/>
      <point x="132" y="262"/>
      <point x="175" y="307"/>
      <point x="234" y="353" type="curve"/>
      <point x="312" y="413"/>
      <point x="375" y="470"/>
      <point x="375" y="568" type="curve"/>
      <point x="375" y="660"/>
      <point x="326" y="727"/>
      <point x="239" y="727" type="curve"/>
      <point x="153" y="727"/>
      <point x="106" y="657"/>
      <point x="106" y="565" type="curve"/>
      <point x="106" y="469"/>
      <point x="167" y="403"/>
      <point x="224" y="326" type="curve"/>
      <point x="301" y="218"/>
      <point x="388" y="91"/>
      <point x="463" y="-13" type="curve"/>
    </contour>
  </outline>
</glyph>
<glyph name="quotesingle" format="1">
  <advance width="225"/>
  <unicode hex="0027"/>
  <outline>
    <contour>
      <point x="145" y="573" type="line"/>
      <point x="151" y="774" type="line"/>
      <point x="74" y="774" type="line"/>
      <point x="80" y="573" type="line"/>
    </contour>
  </outline>
</glyph>
<glyph name="asterisk" format="1">
  <advance width="534"/>
  <unicode hex="002A"/>
  <outline>
    <contour>
      <point x="292" y="533" type="line"/>
      <point x="297" y="734" type="line"/>
      <point x="238" y="734" type="line"/>
      <point x="242" y="533" type="line"/>
    </contour>
    <contour>
      <point x="275" y="510" type="line"/>
      <point x="467" y="570" type="line"/>
      <point x="447" y="626" type="line"/>
      <point x="259" y="557" type="line"/>
    </contour>
    <contour>
      <point x="248" y="518" type="line"/>
      <point x="368" y="356" type="line"/>
      <point x="413" y="394" type="line"/>
      <point x="287" y="549" type="line"/>
    </contour>
    <contour>
      <point x="248" y="549" type="line"/>
      <point x="121" y="394" type="line"/>
      <point x="167" y="357" type="line"/>
      <point x="286" y="518" type="line"/>
    </contour>
    <contour>
      <point x="275" y="557" type="line"/>
      <point x="87" y="626" type="line"/>
      <point x="67" y="570" type="line"/>
      <point x="259" y="510" type="line"/>
    </contour>
  </outline>
</glyph>
<glyph name="plus" format="1">
  <advance width="595"/>
  <unicode hex="002B"/>
  <outline>
    <contour>
      <point x="48" y="279" type="curve"/>
      <point x="546" y="279" type="line"/>
      <point x="546" y="344"/>
      <point x="546" y="279"/>
      <point x="546" y="344" type="curve"/>
      <point x="48" y="344" type="line"/>
      <point x="48" y="279"/>
      <point x="48" y="344"/>
    </contour>
    <contour>
      <point x="332" y="35" type="curve"/>
      <point x="332" y="584" type="line"/>
      <point x="258" y="584"/>
      <point x="336" y="584"/>
      <point x="262" y="584" type="curve"/>
      <point x="262" y="35" type="line"/>
      <point x="336" y="35"/>
      <point x="258" y="35"/>
    </contour>
  </outline>
</glyph>
<glyph name="hyphen" format="1">
  <advance width="362"/>
  <unicode hex="002D"/>
  <outline>
    <contour>
      <point x="77" y="244" type="curve"/>
      <point x="147" y="244"/>
      <point x="217" y="244"/>
      <point x="286" y="244" type="curve"/>
      <point x="286" y="309"/>
      <point x="286" y="244"/>
      <point x="286" y="309" type="curve"/>
      <point x="217" y="309"/>
      <point x="147" y="309"/>
      <point x="77" y="309" type="curve"/>
      <point x="77" y="244"/>
      <point x="77" y="309"/>
    </contour>
  </outline>
</glyph>
<glyph name="slash" format="1">
  <advance width="445"/>
  <unicode hex="002F"/>
  <outline>
    <contour>
      <point x="106" y="-44" type="curve"/>
      <point x="208" y="243"/>
      <point x="311" y="530"/>
      <point x="413" y="817" type="curve"/>
      <point x="339" y="817"/>
      <point x="413" y="817"/>
      <point x="339" y="817" type="curve"/>
      <point x="237" y="530"/>
      <point x="134" y="243"/>
      <point x="32" y="-44" type="curve"/>
      <point x="106" y="-44"/>
      <point x="32" y="-44"/>
    </contour>
  </outline>
</glyph>
<glyph name="two" format="1">
  <advance width="472"/>
  <unicode hex="0032"/>
  <outline>
    <contour>
      <point x="408" y="59" type="curve"/>
      <point x="408" y="169"/>
      <point x="408" y="52"/>
      <point x="408" y="162" type="curve"/>
      <point x="348" y="162"/>
      <point x="408" y="162"/>
      <point x="348" y="162" type="curve"/>
      <point x="348" y="52"/>
      <point x="348" y="169"/>
      <point x="348" y="59" type="curve"/>
      <point x="408" y="59"/>
      <point x="348" y="59"/>
    </contour>
    <contour>
      <point x="48" y="0" type="curve"/>
      <point x="188" y="0"/>
      <point x="303" y="0"/>
      <point x="408" y="0" type="curve"/>
      <point x="408" y="59"/>
      <point x="408" y="0"/>
      <point x="408" y="59" type="curve"/>
      <point x="291" y="59"/>
      <point x="165" y="59"/>
      <point x="49" y="59" type="curve"/>
      <point x="48" y="0"/>
      <point x="49" y="59"/>
    </contour>
    <contour>
      <point x="108" y="544" type="curve"/>
      <point x="137" y="609"/>
      <point x="160" y="665"/>
      <point x="226" y="665" type="curve"/>
      <point x="298" y="665"/>
      <point x="321" y="601"/>
      <point x="321" y="516" type="curve"/>
      <point x="321" y="408"/>
      <point x="258" y="315"/>
      <point x="209" y="256" type="curve"/>
      <point x="156" y="189"/>
      <point x="104" y="126"/>
      <point x="49" y="59" type="curve"/>
      <point x="55" y="0"/>
      <point x="49" y="59"/>
      <point x="55" y="0" type="curve"/>
      <point x="141" y="65"/>
      <point x="198" y="141"/>
      <point x="255" y="212" type="curve"/>
      <point x="319" y="286"/>
      <point x="391" y="389"/>
      <point x="391" y="519" type="curve"/>
      <point x="391" y="642"/>
      <point x="341" y="727"/>
      <point x="229" y="727" type="curve"/>
      <point x="137" y="727"/>
      <point x="86" y="662"/>
      <point x="54" y="574" type="curve"/>
      <point x="108" y="544"/>
      <point x="54" y="574"/>
    </contour>
  </outline>
</glyph>
<glyph name="three" format="1">
  <advance width="445"/>
  <unicode hex="0033"/>
  <outline>
    <contour>
      <point x="51" y="58" type="curve"/>
      <point x="97" y="20"/>
      <point x="135" y="-5"/>
      <point x="195" y="-5" type="curve"/>
      <point x="320" y="-5"/>
      <point x="388" y="71"/>
      <point x="388" y="201" type="curve"/>
      <point x="388" y="324"/>
      <point x="286" y="398"/>
      <point x="133" y="398" type="curve"/>
      <point x="133" y="355"/>
      <point x="133" y="391"/>
      <point x="133" y="348" type="curve"/>
      <point x="241" y="348"/>
      <point x="316" y="289"/>
      <point x="316" y="198" type="curve"/>
      <point x="316" y="113"/>
      <point x="270" y="57"/>
      <point x="198" y="57" type="curve"/>
      <point x="155" y="57"/>
      <point x="126" y="74"/>
      <point x="91" y="102" type="curve"/>
      <point x="51" y="58"/>
      <point x="91" y="102"/>
    </contour>
    <contour>
      <point x="102" y="600" type="curve"/>
      <point x="118" y="628"/>
      <point x="150" y="665"/>
      <point x="194" y="665" type="curve"/>
      <point x="261" y="665"/>
      <point x="292" y="615"/>
      <point x="292" y="540" type="curve"/>
      <point x="292" y="460"/>
      <point x="227" y="408"/>
      <point x="133" y="408" type="curve"/>
      <point x="133" y="365"/>
      <point x="133" y="401"/>
      <point x="133" y="358" type="curve"/>
      <point x="268" y="358"/>
      <point x="363" y="426"/>
      <point x="363" y="542" type="curve"/>
      <point x="363" y="654"/>
      <point x="306" y="727"/>
      <point x="200" y="727" type="curve"/>
      <point x="133" y="727"/>
      <point x="79" y="682"/>
      <point x="54" y="636" type="curve"/>
      <point x="102" y="600"/>
      <point x="54" y="636"/>
    </contour>
  </outline>
</glyph>
<glyph name="four" format="1">
  <advance width="482"/>
  <unicode hex="0034"/>
  <outline>
    <contour>
      <point x="297" y="59" type="line"/>
      <point x="179" y="59" type="line"/>
      <point x="179" y="0" type="line"/>
      <point x="297" y="0" type="line"/>
    </contour>
    <contour>
      <point x="297" y="0" type="line"/>
      <point x="411" y="0" type="line"/>
      <point x="411" y="59" type="line"/>
      <point x="297" y="59" type="line"/>
    </contour>
    <contour>
      <point x="67" y="265" type="line"/>
      <point x="324" y="710" type="line"/>
      <point x="261" y="711" type="line"/>
      <point x="31" y="313" type="line"/>
    </contour>
    <contour>
      <point x="438" y="313" type="line"/>
      <point x="31" y="313" type="line"/>
      <point x="32" y="249" type="line"/>
      <point x="438" y="249" type="line"/>
    </contour>
    <contour>
      <point x="335" y="20" type="line"/>
      <point x="335" y="711" type="line"/>
      <point x="262" y="711" type="line"/>
      <point x="262" y="20" type="line"/>
    </contour>
  </outline>
</glyph>
<glyph name="five" format="1">
  <advance width="433"/>
  <unicode hex="0035"/>
  <outline>
    <contour>
      <point x="75" y="722" type="curve"/>
      <point x="75" y="622"/>
      <point x="75" y="516"/>
      <point x="75" y="394" type="curve"/>
      <point x="146" y="370"/>
      <point x="75" y="394"/>
      <point x="146" y="370" type="curve"/>
      <point x="146" y="467"/>
      <point x="146" y="567"/>
      <point x="146" y="663" type="curve"/>
      <point x="75" y="722"/>
      <point x="146" y="663"/>
    </contour>
    <contour>
      <point x="146" y="370" type="curve"/>
      <point x="158" y="384"/>
      <point x="182" y="399"/>
      <point x="207" y="399" type="curve"/>
      <point x="282" y="399"/>
      <point x="306" y="322"/>
      <point x="306" y="232" type="curve"/>
      <point x="306" y="141"/>
      <point x="272" y="57"/>
      <point x="191" y="57" type="curve"/>
      <point x="150" y="57"/>
      <point x="124" y="71"/>
      <point x="88" y="96" type="curve"/>
      <point x="50" y="44"/>
      <point x="88" y="96"/>
      <point x="50" y="44" type="curve"/>
      <point x="93" y="12"/>
      <point x="134" y="-5"/>
      <point x="188" y="-5" type="curve"/>
      <point x="311" y="-5"/>
      <point x="380" y="101"/>
      <point x="380" y="232" type="curve"/>
      <point x="380" y="358"/>
      <point x="329" y="462"/>
      <point x="217" y="462" type="curve"/>
      <point x="167" y="462"/>
      <point x="116" y="444"/>
      <point x="75" y="394" type="curve"/>
      <point x="146" y="370"/>
      <point x="75" y="394"/>
    </contour>
    <contour>
      <point x="358" y="722" type="curve"/>
      <point x="267" y="722"/>
      <point x="166" y="722"/>
      <point x="75" y="722" type="curve"/>
      <point x="146" y="663"/>
      <point x="75" y="722"/>
      <point x="146" y="663" type="curve"/>
      <point x="213" y="663"/>
      <point x="291" y="663"/>
      <point x="358" y="663" type="curve"/>
      <point x="358" y="722"/>
      <point x="358" y="663"/>
    </contour>
  </outline>
</glyph>
<glyph name="six" format="1">
  <advance width="481"/>
  <unicode hex="0036"/>
  <outline>
    <contour>
      <point x="116" y="221" type="curve"/>
      <point x="130" y="292"/>
      <point x="171" y="365"/>
      <point x="246" y="365" type="curve"/>
      <point x="324" y="365"/>
      <point x="350" y="299"/>
      <point x="350" y="212" type="curve"/>
      <point x="350" y="135"/>
      <point x="323" y="61"/>
      <point x="250" y="61" type="curve"/>
      <point x="158" y="61"/>
      <point x="127" y="144"/>
      <point x="127" y="250" type="curve"/>
      <point x="127" y="456"/>
      <point x="223" y="603"/>
      <point x="415" y="677" type="curve"/>
      <point x="393" y="731"/>
      <point x="415" y="677"/>
      <point x="393" y="731" type="curve"/>
      <point x="175" y="651"/>
      <point x="55" y="489"/>
      <point x="55" y="246" type="curve"/>
      <point x="55" y="100"/>
      <point x="114" y="-8"/>
      <point x="248" y="-8" type="curve"/>
      <point x="367" y="-8"/>
      <point x="425" y="85"/>
      <point x="425" y="213" type="curve"/>
      <point x="425" y="338"/>
      <point x="370" y="427"/>
      <point x="258" y="427" type="curve"/>
      <point x="148" y="427"/>
      <point x="89" y="327"/>
      <point x="77" y="239" type="curve"/>
      <point x="115" y="221"/>
      <point x="79" y="239"/>
    </contour>
  </outline>
</glyph>
<glyph name="eight" format="1">
  <advance width="472"/>
  <unicode hex="0038"/>
  <outline>
    <contour>
      <point x="74" y="553" type="curve"/>
      <point x="74" y="455"/>
      <point x="131" y="410"/>
      <point x="214" y="356" type="curve"/>
      <point x="288" y="307"/>
      <point x="337" y="262"/>
      <point x="337" y="179" type="curve"/>
      <point x="337" y="107"/>
      <point x="305" y="57"/>
      <point x="236" y="57" type="curve"/>
      <point x="166" y="57"/>
      <point x="135" y="106"/>
      <point x="135" y="179" type="curve"/>
      <point x="135" y="264"/>
      <point x="185" y="306"/>
      <point x="259" y="356" type="curve"/>
      <point x="340" y="410"/>
      <point x="398" y="455"/>
      <point x="398" y="551" type="curve"/>
      <point x="398" y="660"/>
      <point x="344" y="727"/>
      <point x="236" y="727" type="curve"/>
      <point x="131" y="727"/>
      <point x="74" y="659"/>
      <point x="74" y="553" type="curve"/>
      <point x="148" y="553"/>
      <point x="74" y="553"/>
      <point x="148" y="553" type="curve"/>
      <point x="148" y="617"/>
      <point x="173" y="665"/>
      <point x="234" y="665" type="curve"/>
      <point x="297" y="665"/>
      <point x="324" y="619"/>
      <point x="324" y="551" type="curve"/>
      <point x="324" y="479"/>
      <point x="278" y="441"/>
      <point x="214" y="399" type="curve"/>
      <point x="122" y="338"/>
      <point x="60" y="288"/>
      <point x="60" y="179" type="curve"/>
      <point x="60" y="65"/>
      <point x="120" y="-5"/>
      <point x="232" y="-5" type="curve"/>
      <point x="347" y="-5"/>
      <point x="412" y="63"/>
      <point x="412" y="179" type="curve"/>
      <point x="412" y="287"/>
      <point x="350" y="340"/>
      <point x="260" y="400" type="curve"/>
      <point x="195" y="443"/>
      <point x="148" y="479"/>
      <point x="148" y="553" type="curve"/>
      <point x="74" y="553"/>
      <point x="148" y="553"/>
    </contour>
  </outline>
</glyph>
<glyph name="nine" format="1">
  <advance width="481"/>
  <unicode hex="0039"/>
  <outline>
    <contour>
      <point x="369" y="483" type="curve"/>
      <point x="347" y="415"/>
      <point x="313" y="357"/>
      <point x="236" y="357" type="curve"/>
      <point x="158" y="357"/>
      <point x="128" y="425"/>
      <point x="128" y="512" type="curve"/>
      <point x="128" y="595"/>
      <point x="157" y="661"/>
      <point x="229" y="661" type="curve"/>
      <point x="322" y="661"/>
      <point x="353" y="577"/>
      <point x="353" y="472" type="curve"/>
      <point x="353" y="266"/>
      <point x="266" y="124"/>
      <point x="73" y="44" type="curve"/>
      <point x="102" y="-15"/>
      <point x="73" y="44"/>
      <point x="102" y="-15" type="curve"/>
      <point x="312" y="70"/>
      <point x="425" y="233"/>
      <point x="425" y="476" type="curve"/>
      <point x="425" y="622"/>
      <point x="367" y="730"/>
      <point x="232" y="730" type="curve"/>
      <point x="112" y="730"/>
      <point x="56" y="637"/>
      <point x="56" y="509" type="curve"/>
      <point x="56" y="384"/>
      <point x="112" y="295"/>
      <point x="229" y="295" type="curve"/>
      <point x="332" y="295"/>
      <point x="379" y="381"/>
      <point x="406" y="467" type="curve"/>
      <point x="369" y="483"/>
      <point x="406" y="467"/>
    </contour>
  </outline>
</glyph>
<glyph name="colon" format="1">
  <advance width="236"/>
  <unicode hex="003A"/>
  <outline>
    <contour>
      <point x="159" y="389" type="curve"/>
      <point x="159" y="415"/>
      <point x="142" y="429"/>
      <point x="117" y="429" type="curve"/>
      <point x="92" y="429"/>
      <point x="77" y="414"/>
      <point x="77" y="389" type="curve"/>
      <point x="159" y="389"/>
      <point x="77" y="389"/>
      <point x="159" y="389" type="curve"/>
      <point x="159" y="362"/>
      <point x="142" y="349"/>
      <point x="117" y="349" type="curve"/>
      <point x="92" y="349"/>
      <point x="77" y="363"/>
      <point x="77" y="389" type="curve"/>
      <point x="159" y="389"/>
      <point x="77" y="389"/>
    </contour>
    <contour>
      <point x="159" y="35" type="curve"/>
      <point x="159" y="62"/>
      <point x="142" y="75"/>
      <point x="117" y="75" type="curve"/>
      <point x="92" y="75"/>
      <point x="77" y="60"/>
      <point x="77" y="35" type="curve"/>
      <point x="159" y="35"/>
      <point x="77" y="35"/>
      <point x="159" y="35" type="curve"/>
      <point x="159" y="8"/>
      <point x="142" y="-4"/>
      <point x="117" y="-4" type="curve"/>
      <point x="92" y="-4"/>
      <point x="77" y="9"/>
      <point x="77" y="35" type="curve"/>
      <point x="159" y="35"/>
      <point x="77" y="35"/>
    </contour>
  </outline>
</glyph>
<glyph name="semicolon" format="1">
  <advance width="265"/>
  <unicode hex="003B"/>
  <outline>
    <contour>
      <point x="71" y="-154" type="line"/>
      <point x="143" y="-154"/>
      <point x="180" y="-98"/>
      <point x="180" y="-29" type="curve"/>
      <point x="180" y="26"/>
      <point x="162" y="59"/>
      <point x="129" y="59" type="curve"/>
      <point x="102" y="59"/>
      <point x="84" y="45"/>
      <point x="84" y="19" type="curve"/>
      <point x="84" y="-3"/>
      <point x="96" y="-19"/>
      <point x="121" y="-22" type="curve"/>
      <point x="121" y="-45"/>
      <point x="121" y="-102"/>
      <point x="71" y="-107" type="curve"/>
    </contour>
    <contour>
      <point x="173" y="406" type="curve"/>
      <point x="173" y="433"/>
      <point x="156" y="446"/>
      <point x="131" y="446" type="curve"/>
      <point x="107" y="446"/>
      <point x="91" y="431"/>
      <point x="91" y="406" type="curve"/>
      <point x="173" y="406"/>
      <point x="91" y="406"/>
      <point x="173" y="406" type="curve"/>
      <point x="173" y="379"/>
      <point x="156" y="366"/>
      <point x="131" y="366" type="curve"/>
      <point x="106" y="366"/>
      <point x="91" y="380"/>
      <point x="91" y="406" type="curve"/>
      <point x="173" y="406"/>
      <point x="91" y="406"/>
    </contour>
  </outline>
</glyph>
<glyph name="greater" format="1">
  <advance width="542"/>
  <unicode hex="003E"/>
  <outline>
    <contour>
      <point x="65" y="3" type="curve"/>
      <point x="211" y="93"/>
      <point x="358" y="183"/>
      <point x="504" y="273" type="curve"/>
      <point x="504" y="339"/>
      <point x="504" y="273"/>
      <point x="504" y="339" type="curve"/>
      <point x="358" y="249"/>
      <point x="211" y="159"/>
      <point x="65" y="69" type="curve"/>
      <point x="65" y="3"/>
      <point x="65" y="69"/>
    </contour>
    <contour>
      <point x="58" y="537" type="curve"/>
      <point x="206" y="449"/>
      <point x="355" y="361"/>
      <point x="504" y="273" type="curve"/>
      <point x="504" y="339"/>
      <point x="504" y="273"/>
      <point x="504" y="339" type="curve"/>
      <point x="355" y="427"/>
      <point x="206" y="515"/>
      <point x="58" y="603" type="curve"/>
      <point x="58" y="537"/>
      <point x="58" y="603"/>
    </contour>
  </outline>
</glyph>
<glyph name="question" format="1">
  <advance width="434"/>
  <unicode hex="003F"/>
  <outline>
    <contour>
      <point x="169" y="353" type="curve"/>
      <point x="169" y="316"/>
      <point x="169" y="258"/>
      <point x="169" y="221" type="curve"/>
      <point x="237" y="221"/>
      <point x="169" y="221"/>
      <point x="237" y="221" type="curve"/>
      <point x="237" y="258"/>
      <point x="237" y="316"/>
      <point x="237" y="353" type="curve"/>
      <point x="169" y="353"/>
      <point x="237" y="353"/>
    </contour>
    <contour>
      <point x="92" y="604" type="line"/>
      <point x="116" y="639"/>
      <point x="147" y="665"/>
      <point x="195" y="665" type="curve"/>
      <point x="272" y="665"/>
      <point x="307" y="601"/>
      <point x="307" y="519" type="curve"/>
      <point x="307" y="426"/>
      <point x="264" y="353"/>
      <point x="177" y="353" type="curve"/>
      <point x="177" y="324"/>
      <point x="177" y="325"/>
      <point x="177" y="295" type="curve"/>
      <point x="306" y="295"/>
      <point x="378" y="388"/>
      <point x="378" y="519" type="curve"/>
      <point x="378" y="641"/>
      <point x="312" y="728"/>
      <point x="198" y="728" type="curve"/>
      <point x="127" y="728"/>
      <point x="82" y="697"/>
      <point x="50" y="649" type="curve"/>
    </contour>
    <contour>
      <point x="244" y="33" type="curve"/>
      <point x="244" y="60"/>
      <point x="227" y="73"/>
      <point x="202" y="73" type="curve"/>
      <point x="177" y="73"/>
      <point x="162" y="58"/>
      <point x="162" y="33" type="curve"/>
      <point x="244" y="33"/>
      <point x="162" y="33"/>
      <point x="244" y="33" type="curve"/>
      <point x="244" y="6"/>
      <point x="227" y="-7"/>
      <point x="202" y="-7" type="curve"/>
      <point x="177" y="-7"/>
      <point x="162" y="7"/>
      <point x="162" y="33" type="curve"/>
      <point x="244" y="33"/>
      <point x="162" y="33"/>
    </contour>
  </outline>
</glyph>
<glyph name="at" format="1">
  <advance width="659"/>
  <unicode hex="0040"/>
  <outline>
    <contour>
      <point x="442" y="-62" type="curve"/>
      <point x="409" y="-86"/>
      <point x="383" y="-95"/>
      <point x="341" y="-95" type="curve"/>
      <point x="188" y="-95"/>
      <point x="121" y="30"/>
      <point x="121" y="200" type="curve"/>
      <point x="121" y="363"/>
      <point x="187" y="486"/>
      <point x="335" y="486" type="curve"/>
      <point x="476" y="486"/>
      <point x="538" y="366"/>
      <point x="538" y="210" type="curve"/>
      <point x="538" y="141"/>
      <point x="538" y="78"/>
      <point x="501" y="78" type="curve"/>
      <point x="460" y="78"/>
      <point x="461" y="137"/>
      <point x="461" y="204" type="curve"/>
      <point x="461" y="308"/>
      <point x="423" y="386"/>
      <point x="329" y="386" type="curve"/>
      <point x="229" y="386"/>
      <point x="192" y="310"/>
      <point x="192" y="203" type="curve"/>
      <point x="192" y="92"/>
      <point x="223" y="11"/>
      <point x="323" y="11" type="curve"/>
      <point x="414" y="11"/>
      <point x="440" y="89"/>
      <point x="450" y="190" type="curve"/>
      <point x="404" y="200"/>
      <point x="450" y="190"/>
      <point x="404" y="200" type="curve"/>
      <point x="392" y="135"/>
      <point x="388" y="70"/>
      <point x="331" y="70" type="curve"/>
      <point x="270" y="70"/>
      <point x="258" y="131"/>
      <point x="258" y="206" type="curve"/>
      <point x="258" y="273"/>
      <point x="269" y="327"/>
      <point x="325" y="327" type="curve"/>
      <point x="386" y="327"/>
      <point x="393" y="270"/>
      <point x="393" y="201" type="curve"/>
      <point x="393" y="103"/>
      <point x="408" y="23"/>
      <point x="495" y="23" type="curve"/>
      <point x="586" y="23"/>
      <point x="602" y="107"/>
      <point x="602" y="213" type="curve"/>
      <point x="602" y="409"/>
      <point x="521" y="548"/>
      <point x="338" y="548" type="curve"/>
      <point x="143" y="548"/>
      <point x="54" y="404"/>
      <point x="54" y="196" type="curve"/>
      <point x="54" y="-10"/>
      <point x="145" y="-154"/>
      <point x="338" y="-154" type="curve"/>
      <point x="393" y="-154"/>
      <point x="427" y="-145"/>
      <point x="471" y="-113" type="curve"/>
      <point x="442" y="-62"/>
      <point x="471" y="-113"/>
    </contour>
  </outline>
</glyph>
<glyph name="D" format="1">
  <advance width="629"/>
  <unicode hex="0044"/>
  <outline>
    <contour>
      <point x="173" y="59" type="curve"/>
      <point x="39" y="59"/>
      <point x="184" y="59"/>
      <point x="50" y="59" type="curve"/>
      <point x="50" y="0"/>
      <point x="50" y="59"/>
      <point x="50" y="0" type="curve"/>
      <point x="95" y="0"/>
      <point x="128" y="0"/>
      <point x="173" y="0" type="curve"/>
      <point x="173" y="59"/>
      <point x="173" y="0"/>
    </contour>
    <contour>
      <point x="173" y="722" type="curve"/>
      <point x="128" y="722"/>
      <point x="95" y="722"/>
      <point x="50" y="722" type="curve"/>
      <point x="50" y="663"/>
      <point x="50" y="722"/>
      <point x="50" y="663" type="curve"/>
      <point x="184" y="663"/>
      <point x="39" y="663"/>
      <point x="173" y="663" type="curve"/>
      <point x="173" y="722"/>
      <point x="173" y="663"/>
    </contour>
    <contour>
      <point x="135" y="722" type="curve"/>
      <point x="135" y="481"/>
      <point x="135" y="241"/>
      <point x="135" y="0" type="curve"/>
      <point x="209" y="0"/>
      <point x="135" y="0"/>
      <point x="209" y="0" type="curve"/>
      <point x="209" y="241"/>
      <point x="209" y="481"/>
      <point x="209" y="722" type="curve"/>
      <point x="135" y="722"/>
      <point x="209" y="722"/>
    </contour>
    <contour>
      <point x="173" y="0" type="curve"/>
      <point x="219" y="0"/>
      <point x="255" y="0"/>
      <point x="302" y="0" type="curve"/>
      <point x="496" y="0"/>
      <point x="573" y="145"/>
      <point x="573" y="355" type="curve"/>
      <point x="573" y="572"/>
      <point x="494" y="722"/>
      <point x="296" y="722" type="curve"/>
      <point x="253" y="722"/>
      <point x="217" y="722"/>
      <point x="173" y="722" type="curve"/>
      <point x="173" y="671"/>
      <point x="173" y="714"/>
      <point x="173" y="663" type="curve"/>
      <point x="216" y="663"/>
      <point x="250" y="663"/>
      <point x="293" y="663" type="curve"/>
      <point x="451" y="663"/>
      <point x="499" y="531"/>
      <point x="499" y="354" type="curve"/>
      <point x="499" y="186"/>
      <point x="456" y="59"/>
      <point x="309" y="59" type="curve"/>
      <point x="260" y="59"/>
      <point x="221" y="59"/>
      <point x="173" y="59" type="curve"/>
      <point x="173" y="8"/>
      <point x="173" y="51"/>
    </contour>
    <contour>
      <point x="276" y="806" type="move" name="top"/>
    </contour>
  </outline>
</glyph>
<glyph name="G" format="1">
  <advance width="614"/>
  <unicode hex="0047"/>
  <outline>
    <contour>
      <point x="477" y="643" type="curve"/>
      <point x="477" y="515"/>
      <point x="477" y="649"/>
      <point x="477" y="521" type="curve"/>
      <point x="537" y="521"/>
      <point x="477" y="521"/>
      <point x="537" y="521" type="curve"/>
      <point x="537" y="649"/>
      <point x="537" y="515"/>
      <point x="537" y="643" type="curve"/>
      <point x="477" y="643"/>
      <point x="537" y="643"/>
    </contour>
    <contour>
      <point x="529" y="340" type="curve"/>
      <point x="476" y="340"/>
      <point x="423" y="340"/>
      <point x="370" y="340" type="curve"/>
      <point x="370" y="281"/>
      <point x="370" y="340"/>
      <point x="370" y="281" type="curve"/>
      <point x="423" y="281"/>
      <point x="476" y="281"/>
      <point x="529" y="281" type="curve"/>
      <point x="529" y="340"/>
      <point x="529" y="281"/>
    </contour>
    <contour>
      <point x="549" y="78" type="curve"/>
      <point x="549" y="166"/>
      <point x="549" y="253"/>
      <point x="549" y="340" type="curve"/>
      <point x="481" y="340"/>
      <point x="549" y="340"/>
      <point x="481" y="340" type="curve"/>
      <point x="481" y="253"/>
      <point x="481" y="166"/>
      <point x="481" y="78" type="curve"/>
      <point x="549" y="78"/>
      <point x="481" y="78"/>
    </contour>
    <contour>
      <point x="537" y="643" type="curve"/>
      <point x="472" y="699"/>
      <point x="408" y="727"/>
      <point x="323" y="727" type="curve"/>
      <point x="132" y="727"/>
      <point x="57" y="574"/>
      <point x="57" y="363" type="curve"/>
      <point x="57" y="148"/>
      <point x="137" y="-5"/>
      <point x="331" y="-5" type="curve"/>
      <point x="421" y="-5"/>
      <point x="477" y="24"/>
      <point x="549" y="78" type="curve"/>
      <point x="510" y="124"/>
      <point x="549" y="78"/>
      <point x="510" y="124" type="curve"/>
      <point x="461" y="84"/>
      <point x="404" y="58"/>
      <point x="331" y="58" type="curve"/>
      <point x="176" y="58"/>
      <point x="132" y="192"/>
      <point x="132" y="369" type="curve"/>
      <point x="132" y="535"/>
      <point x="177" y="665"/>
      <point x="323" y="665" type="curve"/>
      <point x="393" y="665"/>
      <point x="446" y="639"/>
      <point x="500" y="593" type="curve"/>
      <point x="537" y="643"/>
      <point x="500" y="593"/>
    </contour>
    <contour>
      <point x="320" y="806" type="move" name="top"/>
    </contour>
    <contour>
      <point x="347" y="-46" type="move" name="bottom"/>
    </contour>
  </outline>
</glyph>
<glyph name="H" format="1">
  <advance width="683"/>
  <unicode hex="0048"/>
  <outline>
    <contour>
      <point x="522" y="663" type="curve"/>
      <point x="656" y="663"/>
      <point x="511" y="663"/>
      <point x="645" y="663" type="curve"/>
      <point x="645" y="722"/>
      <point x="645" y="663"/>
      <point x="645" y="722" type="curve"/>
      <point x="600" y="722"/>
      <point x="567" y="722"/>
      <point x="522" y="722" type="curve"/>
      <point x="522" y="663"/>
      <point x="522" y="722"/>
    </contour>
    <contour>
      <point x="522" y="0" type="curve"/>
      <point x="567" y="0"/>
      <point x="600" y="0"/>
      <point x="645" y="0" type="curve"/>
      <point x="645" y="59"/>
      <point x="645" y="0"/>
      <point x="645" y="59" type="curve"/>
      <point x="511" y="59"/>
      <point x="656" y="59"/>
      <point x="522" y="59" type="curve"/>
      <point x="522" y="0"/>
      <point x="522" y="59"/>
    </contour>
    <contour>
      <point x="522" y="59" type="curve"/>
      <point x="388" y="59"/>
      <point x="534" y="59"/>
      <point x="400" y="59" type="curve"/>
      <point x="400" y="0"/>
      <point x="400" y="59"/>
      <point x="400" y="0" type="curve"/>
      <point x="444" y="0"/>
      <point x="477" y="0"/>
      <point x="522" y="0" type="curve"/>
      <point x="522" y="59"/>
      <point x="522" y="0"/>
    </contour>
    <contour>
      <point x="522" y="722" type="curve"/>
      <point x="477" y="722"/>
      <point x="444" y="722"/>
      <point x="400" y="722" type="curve"/>
      <point x="400" y="663"/>
      <point x="400" y="722"/>
      <point x="400" y="663" type="curve"/>
      <point x="534" y="663"/>
      <point x="388" y="663"/>
      <point x="522" y="663" type="curve"/>
      <point x="522" y="722"/>
      <point x="522" y="663"/>
    </contour>
    <contour>
      <point x="161" y="663" type="curve"/>
      <point x="296" y="663"/>
      <point x="150" y="663"/>
      <point x="284" y="663" type="curve"/>
      <point x="284" y="722"/>
      <point x="284" y="663"/>
      <point x="284" y="722" type="curve"/>
      <point x="240" y="722"/>
      <point x="206" y="722"/>
      <point x="161" y="722" type="curve"/>
      <point x="161" y="663"/>
      <point x="161" y="722"/>
    </contour>
    <contour>
      <point x="161" y="722" type="curve"/>
      <point x="117" y="722"/>
      <point x="84" y="722"/>
      <point x="39" y="722" type="curve"/>
      <point x="39" y="663"/>
      <point x="39" y="722"/>
      <point x="39" y="663" type="curve"/>
      <point x="173" y="663"/>
      <point x="27" y="663"/>
      <point x="161" y="663" type="curve"/>
      <point x="161" y="722"/>
      <point x="161" y="663"/>
    </contour>
    <contour>
      <point x="161" y="0" type="curve"/>
      <point x="206" y="0"/>
      <point x="150" y="0"/>
      <point x="284" y="0" type="curve"/>
      <point x="284" y="59"/>
      <point x="284" y="0"/>
      <point x="284" y="59" type="curve"/>
      <point x="150" y="59"/>
      <point x="296" y="59"/>
      <point x="161" y="59" type="curve"/>
      <point x="161" y="0"/>
      <point x="161" y="59"/>
    </contour>
    <contour>
      <point x="161" y="59" type="curve"/>
      <point x="27" y="59"/>
      <point x="173" y="59"/>
      <point x="39" y="59" type="curve"/>
      <point x="39" y="0"/>
      <point x="39" y="59"/>
      <point x="39" y="0" type="curve"/>
      <point x="84" y="0"/>
      <point x="117" y="0"/>
      <point x="161" y="0" type="curve"/>
      <point x="161" y="59"/>
      <point x="161" y="0"/>
    </contour>
    <contour>
      <point x="199" y="0" type="curve"/>
      <point x="199" y="722" type="line"/>
      <point x="125" y="722"/>
      <point x="199" y="722"/>
      <point x="125" y="722" type="curve"/>
      <point x="125" y="481"/>
      <point x="125" y="241"/>
      <point x="125" y="0" type="curve"/>
      <point x="199" y="0"/>
      <point x="125" y="0"/>
    </contour>
    <contour>
      <point x="520" y="392" type="curve"/>
      <point x="400" y="392"/>
      <point x="281" y="392"/>
      <point x="161" y="392" type="curve"/>
      <point x="161" y="333"/>
      <point x="161" y="392"/>
      <point x="161" y="333" type="curve"/>
      <point x="281" y="333"/>
      <point x="400" y="333"/>
      <point x="520" y="333" type="curve"/>
      <point x="520" y="392"/>
      <point x="520" y="333"/>
    </contour>
    <contour>
      <point x="558" y="20" type="curve"/>
      <point x="558" y="247"/>
      <point x="558" y="475"/>
      <point x="558" y="702" type="curve"/>
      <point x="484" y="702"/>
      <point x="558" y="702"/>
      <point x="484" y="702" type="curve"/>
      <point x="484" y="20" type="line"/>
      <point x="558" y="20"/>
      <point x="484" y="20"/>
    </contour>
  </outline>
</glyph>
<glyph name="I" format="1">
  <advance width="324"/>
  <unicode hex="0049"/>
  <outline>
    <contour>
      <point x="163" y="722" type="curve"/>
      <point x="118" y="722"/>
      <point x="84" y="722"/>
      <point x="40" y="722" type="curve"/>
      <point x="40" y="663"/>
      <point x="40" y="722"/>
      <point x="40" y="663" type="curve"/>
      <point x="174" y="663"/>
      <point x="28" y="663"/>
      <point x="163" y="663" type="curve"/>
      <point x="163" y="722"/>
      <point x="163" y="663"/>
    </contour>
    <contour>
      <point x="163" y="663" type="curve"/>
      <point x="297" y="663"/>
      <point x="151" y="663"/>
      <point x="286" y="663" type="curve"/>
      <point x="286" y="722"/>
      <point x="286" y="663"/>
      <point x="286" y="722" type="curve"/>
      <point x="240" y="722"/>
      <point x="207" y="722"/>
      <point x="163" y="722" type="curve"/>
      <point x="163" y="663"/>
      <point x="163" y="722"/>
    </contour>
    <contour>
      <point x="163" y="0" type="curve"/>
      <point x="207" y="0"/>
      <point x="240" y="0"/>
      <point x="286" y="0" type="curve"/>
      <point x="286" y="59"/>
      <point x="286" y="0"/>
      <point x="286" y="59" type="curve"/>
      <point x="151" y="59"/>
      <point x="297" y="59"/>
      <point x="163" y="59" type="curve"/>
      <point x="163" y="0"/>
      <point x="163" y="59"/>
    </contour>
    <contour>
      <point x="163" y="59" type="curve"/>
      <point x="28" y="59"/>
      <point x="174" y="59"/>
      <point x="40" y="59" type="curve"/>
      <point x="40" y="0"/>
      <point x="40" y="59"/>
      <point x="40" y="0" type="curve"/>
      <point x="84" y="0"/>
      <point x="118" y="0"/>
      <point x="163" y="0" type="curve"/>
      <point x="163" y="59"/>
      <point x="163" y="0"/>
    </contour>
    <contour>
      <point x="199" y="0" type="curve"/>
      <point x="199" y="241"/>
      <point x="199" y="481"/>
      <point x="199" y="722" type="curve"/>
      <point x="125" y="722"/>
      <point x="199" y="722"/>
      <point x="125" y="722" type="curve"/>
      <point x="125" y="481"/>
      <point x="125" y="241"/>
      <point x="125" y="0" type="curve"/>
      <point x="199" y="0"/>
      <point x="125" y="0"/>
    </contour>
    <contour>
      <point x="164" y="806" type="move" name="top"/>
    </contour>
    <contour>
      <point x="194" y="2" type="move" name="bottom"/>
    </contour>
  </outline>
</glyph>
<glyph name="J" format="1">
  <advance width="385"/>
  <unicode hex="004A"/>
  <outline>
    <contour>
      <point x="241" y="722" type="curve"/>
      <point x="197" y="722"/>
      <point x="164" y="722"/>
      <point x="120" y="722" type="curve"/>
      <point x="120" y="663"/>
      <point x="120" y="722"/>
      <point x="120" y="663" type="curve"/>
      <point x="252" y="663"/>
      <point x="108" y="663"/>
      <point x="241" y="663" type="curve"/>
      <point x="241" y="722"/>
      <point x="241" y="663"/>
    </contour>
    <contour>
      <point x="241" y="663" type="curve"/>
      <point x="373" y="663"/>
      <point x="229" y="663"/>
      <point x="362" y="663" type="curve"/>
      <point x="362" y="722"/>
      <point x="362" y="663"/>
      <point x="362" y="722" type="curve"/>
      <point x="318" y="722"/>
      <point x="285" y="722"/>
      <point x="241" y="722" type="curve"/>
      <point x="241" y="663"/>
      <point x="241" y="722"/>
    </contour>
    <contour>
      <point x="16" y="41" type="curve"/>
      <point x="42" y="18"/>
      <point x="74" y="-5"/>
      <point x="118" y="-5" type="curve"/>
      <point x="238" y="-5"/>
      <point x="277" y="84"/>
      <point x="277" y="227" type="curve"/>
      <point x="277" y="405"/>
      <point x="277" y="544"/>
      <point x="277" y="722" type="curve"/>
      <point x="212" y="722"/>
      <point x="268" y="722"/>
      <point x="203" y="722" type="curve"/>
      <point x="203" y="544"/>
      <point x="203" y="405"/>
      <point x="203" y="227" type="curve"/>
      <point x="203" y="134"/>
      <point x="197" y="56"/>
      <point x="118" y="56" type="curve"/>
      <point x="89" y="56"/>
      <point x="70" y="72"/>
      <point x="51" y="88" type="curve"/>
      <point x="21" y="47"/>
      <point x="47" y="81"/>
    </contour>
  </outline>
</glyph>
<glyph name="M" format="1">
  <advance width="778"/>
  <unicode hex="004D"/>
  <outline>
    <contour>
      <point x="638" y="0" type="curve"/>
      <point x="682" y="0"/>
      <point x="713" y="0"/>
      <point x="757" y="0" type="curve"/>
      <point x="757" y="59"/>
      <point x="757" y="0"/>
      <point x="757" y="59" type="curve"/>
      <point x="626" y="59"/>
      <point x="768" y="59"/>
      <point x="638" y="59" type="curve"/>
      <point x="638" y="0"/>
      <point x="638" y="59"/>
    </contour>
    <contour>
      <point x="638" y="59" type="curve"/>
      <point x="512" y="59"/>
      <point x="650" y="59"/>
      <point x="523" y="59" type="curve"/>
      <point x="523" y="0"/>
      <point x="523" y="59"/>
      <point x="523" y="0" type="curve"/>
      <point x="565" y="0"/>
      <point x="596" y="0"/>
      <point x="638" y="0" type="curve"/>
      <point x="638" y="59"/>
      <point x="638" y="0"/>
    </contour>
    <contour>
      <point x="142" y="59" type="curve"/>
      <point x="11" y="59"/>
      <point x="153" y="59"/>
      <point x="23" y="59" type="curve"/>
      <point x="23" y="0"/>
      <point x="23" y="59"/>
      <point x="23" y="0" type="curve"/>
      <point x="66" y="0"/>
      <point x="98" y="0"/>
      <point x="142" y="0" type="curve"/>
      <point x="142" y="59"/>
      <point x="142" y="0"/>
    </contour>
    <contour>
      <point x="184" y="722" type="curve"/>
      <point x="140" y="722"/>
      <point x="108" y="722"/>
      <point x="65" y="722" type="curve"/>
      <point x="65" y="663"/>
      <point x="65" y="722"/>
      <point x="65" y="663" type="curve"/>
      <point x="196" y="663"/>
      <point x="53" y="663"/>
      <point x="184" y="663" type="curve"/>
      <point x="184" y="722"/>
      <point x="184" y="663"/>
    </contour>
    <contour>
      <point x="594" y="663" type="curve"/>
      <point x="724" y="663"/>
      <point x="583" y="663"/>
      <point x="712" y="663" type="curve"/>
      <point x="712" y="722"/>
      <point x="712" y="663"/>
      <point x="712" y="722" type="curve"/>
      <point x="669" y="722"/>
      <point x="637" y="722"/>
      <point x="594" y="722" type="curve"/>
      <point x="594" y="663"/>
      <point x="594" y="722"/>
    </contour>
    <contour>
      <point x="142" y="0" type="curve"/>
      <point x="183" y="0"/>
      <point x="130" y="0"/>
      <point x="256" y="0" type="curve"/>
      <point x="256" y="59"/>
      <point x="256" y="0"/>
      <point x="256" y="59" type="curve"/>
      <point x="130" y="59"/>
      <point x="267" y="59"/>
      <point x="142" y="59" type="curve"/>
      <point x="142" y="0"/>
      <point x="142" y="59"/>
    </contour>
    <contour>
      <point x="678" y="0" type="curve"/>
      <point x="663" y="241"/>
      <point x="646" y="481"/>
      <point x="631" y="722" type="curve"/>
      <point x="563" y="722"/>
      <point x="631" y="722"/>
      <point x="563" y="722" type="curve"/>
      <point x="578" y="481"/>
      <point x="590" y="241"/>
      <point x="604" y="0" type="curve"/>
      <point x="678" y="0"/>
      <point x="604" y="0"/>
    </contour>
    <contour>
      <point x="173" y="0" type="curve"/>
      <point x="187" y="241"/>
      <point x="200" y="481"/>
      <point x="214" y="722" type="curve"/>
      <point x="150" y="722"/>
      <point x="214" y="722"/>
      <point x="150" y="722" type="curve"/>
      <point x="136" y="481"/>
      <point x="122" y="241"/>
      <point x="108" y="0" type="curve"/>
      <point x="173" y="0"/>
      <point x="108" y="0"/>
    </contour>
    <contour>
      <point x="418" y="0" type="curve"/>
      <point x="351" y="241"/>
      <point x="283" y="481"/>
      <point x="216" y="722" type="curve"/>
      <point x="152" y="722"/>
      <point x="216" y="722"/>
      <point x="152" y="722" type="curve"/>
      <point x="219" y="481"/>
      <point x="287" y="241"/>
      <point x="354" y="0" type="curve"/>
      <point x="418" y="0"/>
      <point x="354" y="0"/>
    </contour>
    <contour>
      <point x="425" y="0" type="curve"/>
      <point x="492" y="241"/>
      <point x="558" y="481"/>
      <point x="623" y="722" type="curve"/>
      <point x="560" y="722"/>
      <point x="623" y="722"/>
      <point x="560" y="722" type="curve"/>
      <point x="493" y="481"/>
      <point x="426" y="241"/>
      <point x="360" y="0" type="curve"/>
      <point x="425" y="0"/>
      <point x="360" y="0"/>
    </contour>
  </outline>
</glyph>
<glyph name="N" format="1">
  <advance width="698"/>
  <unicode hex="004E"/>
  <outline>
    <contour>
      <point x="161" y="722" type="curve"/>
      <point x="117" y="722"/>
      <point x="84" y="722"/>
      <point x="40" y="722" type="curve"/>
      <point x="40" y="663"/>
      <point x="40" y="722"/>
      <point x="40" y="663" type="curve"/>
      <point x="173" y="663"/>
      <point x="28" y="663"/>
      <point x="161" y="663" type="curve"/>
      <point x="161" y="722"/>
      <point x="161" y="663"/>
    </contour>
    <contour>
      <point x="551" y="663" type="curve"/>
      <point x="683" y="663"/>
      <point x="539" y="663"/>
      <point x="671" y="663" type="curve"/>
      <point x="671" y="722"/>
      <point x="671" y="663"/>
      <point x="671" y="722" type="curve"/>
      <point x="627" y="722"/>
      <point x="594" y="722"/>
      <point x="551" y="722" type="curve"/>
      <point x="551" y="663"/>
      <point x="551" y="722"/>
    </contour>
    <contour>
      <point x="551" y="722" type="curve"/>
      <point x="507" y="722"/>
      <point x="475" y="722"/>
      <point x="432" y="722" type="curve"/>
      <point x="432" y="663"/>
      <point x="432" y="722"/>
      <point x="432" y="663" type="curve"/>
      <point x="562" y="663"/>
      <point x="420" y="663"/>
      <point x="551" y="663" type="curve"/>
      <point x="551" y="722"/>
      <point x="551" y="663"/>
    </contour>
    <contour>
      <point x="160" y="59" type="curve"/>
      <point x="28" y="59"/>
      <point x="172" y="59"/>
      <point x="39" y="59" type="curve"/>
      <point x="39" y="0"/>
      <point x="39" y="59"/>
      <point x="39" y="0" type="curve"/>
      <point x="83" y="0"/>
      <point x="116" y="0"/>
      <point x="160" y="0" type="curve"/>
      <point x="160" y="59"/>
      <point x="160" y="0"/>
    </contour>
    <contour>
      <point x="160" y="0" type="curve"/>
      <point x="203" y="0"/>
      <point x="149" y="0"/>
      <point x="279" y="0" type="curve"/>
      <point x="279" y="59"/>
      <point x="279" y="0"/>
      <point x="279" y="59" type="curve"/>
      <point x="149" y="59"/>
      <point x="290" y="59"/>
      <point x="160" y="59" type="curve"/>
      <point x="160" y="0"/>
      <point x="160" y="59"/>
    </contour>
    <contour>
      <point x="587" y="0" type="curve"/>
      <point x="458" y="241"/>
      <point x="329" y="481"/>
      <point x="201" y="722" type="curve"/>
      <point x="122" y="722"/>
      <point x="201" y="722"/>
      <point x="122" y="722" type="curve"/>
      <point x="251" y="481"/>
      <point x="380" y="241"/>
      <point x="508" y="0" type="curve"/>
      <point x="587" y="0"/>
      <point x="508" y="0"/>
    </contour>
    <contour>
      <point x="512" y="722" type="curve"/>
      <point x="512" y="481"/>
      <point x="512" y="241"/>
      <point x="512" y="0" type="curve"/>
      <point x="586" y="0"/>
      <point x="512" y="0"/>
      <point x="586" y="0" type="curve"/>
      <point x="586" y="241"/>
      <point x="586" y="481"/>
      <point x="586" y="722" type="curve"/>
      <point x="512" y="722"/>
      <point x="586" y="722"/>
    </contour>
    <contour>
      <point x="197" y="0" type="curve"/>
      <point x="197" y="241"/>
      <point x="197" y="481"/>
      <point x="197" y="722" type="curve"/>
      <point x="123" y="722"/>
      <point x="197" y="722"/>
      <point x="123" y="722" type="curve"/>
      <point x="123" y="481"/>
      <point x="123" y="241"/>
      <point x="123" y="0" type="curve"/>
      <point x="197" y="0"/>
      <point x="123" y="0"/>
    </contour>
    <contour>
      <point x="359" y="806" type="move" name="top"/>
    </contour>
    <contour>
      <point x="380" y="-46" type="move" name="bottom"/>
    </contour>
  </outline>
</glyph>
<glyph name="P" format="1">
  <advance width="516"/>
  <unicode hex="0050"/>
  <outline>
    <contour>
      <point x="172" y="722" type="curve"/>
      <point x="128" y="722"/>
      <point x="95" y="722"/>
      <point x="50" y="722" type="curve"/>
      <point x="50" y="663"/>
      <point x="50" y="722"/>
      <point x="50" y="663" type="curve"/>
      <point x="184" y="663"/>
      <point x="38" y="663"/>
      <point x="172" y="663" type="curve"/>
      <point x="172" y="722"/>
      <point x="172" y="663"/>
    </contour>
    <contour>
      <point x="172" y="59" type="curve"/>
      <point x="38" y="59"/>
      <point x="184" y="59"/>
      <point x="50" y="59" type="curve"/>
      <point x="50" y="0"/>
      <point x="50" y="59"/>
      <point x="50" y="0" type="curve"/>
      <point x="95" y="0"/>
      <point x="128" y="0"/>
      <point x="172" y="0" type="curve"/>
      <point x="172" y="59"/>
      <point x="172" y="0"/>
    </contour>
    <contour>
      <point x="172" y="0" type="curve"/>
      <point x="217" y="0"/>
      <point x="161" y="0"/>
      <point x="295" y="0" type="curve"/>
      <point x="295" y="59"/>
      <point x="295" y="0"/>
      <point x="295" y="59" type="curve"/>
      <point x="161" y="59"/>
      <point x="307" y="59"/>
      <point x="172" y="59" type="curve"/>
      <point x="172" y="0"/>
      <point x="172" y="59"/>
    </contour>
    <contour>
      <point x="162" y="314" type="curve"/>
      <point x="201" y="287"/>
      <point x="244" y="268"/>
      <point x="295" y="268" type="curve"/>
      <point x="409" y="270"/>
      <point x="470" y="356"/>
      <point x="470" y="486" type="curve"/>
      <point x="470" y="621"/>
      <point x="399" y="722"/>
      <point x="271" y="722" type="curve"/>
      <point x="239" y="722"/>
      <point x="206" y="722"/>
      <point x="175" y="722" type="curve"/>
      <point x="175" y="663"/>
      <point x="175" y="722"/>
      <point x="175" y="663" type="curve"/>
      <point x="203" y="663"/>
      <point x="232" y="663"/>
      <point x="261" y="663" type="curve"/>
      <point x="352" y="663"/>
      <point x="396" y="586"/>
      <point x="396" y="488" type="curve"/>
      <point x="396" y="398"/>
      <point x="365" y="326"/>
      <point x="288" y="326" type="curve"/>
      <point x="246" y="326"/>
      <point x="219" y="341"/>
      <point x="185" y="364" type="curve"/>
      <point x="162" y="316"/>
      <point x="185" y="363"/>
    </contour>
    <contour>
      <point x="209" y="0" type="curve"/>
      <point x="209" y="241"/>
      <point x="209" y="481"/>
      <point x="209" y="722" type="curve"/>
      <point x="135" y="722"/>
      <point x="209" y="722"/>
      <point x="135" y="722" type="curve"/>
      <point x="135" y="481"/>
      <point x="135" y="241"/>
      <point x="135" y="0" type="curve"/>
      <point x="209" y="0"/>
      <point x="135" y="0"/>
    </contour>
  </outline>
</glyph>
<glyph name="R" format="1">
  <advance width="617"/>
  <unicode hex="0052"/>
  <outline>
    <contour>
      <point x="495" y="0" type="curve"/>
      <point x="533" y="0"/>
      <point x="560" y="0"/>
      <point x="600" y="0" type="curve"/>
      <point x="600" y="59"/>
      <point x="600" y="0"/>
      <point x="600" y="59" type="curve"/>
      <point x="483" y="59"/>
      <point x="611" y="59"/>
      <point x="495" y="59" type="curve"/>
      <point x="495" y="0"/>
      <point x="495" y="59"/>
    </contour>
    <contour>
      <point x="170" y="722" type="curve"/>
      <point x="125" y="722"/>
      <point x="93" y="722"/>
      <point x="49" y="722" type="curve"/>
      <point x="49" y="663"/>
      <point x="49" y="722"/>
      <point x="49" y="663" type="curve"/>
      <point x="182" y="663"/>
      <point x="37" y="663"/>
      <point x="170" y="663" type="curve"/>
      <point x="170" y="722"/>
      <point x="170" y="663"/>
    </contour>
    <contour>
      <point x="170" y="59" type="curve"/>
      <point x="37" y="59"/>
      <point x="182" y="59"/>
      <point x="49" y="59" type="curve"/>
      <point x="49" y="0"/>
      <point x="49" y="59"/>
      <point x="49" y="0" type="curve"/>
      <point x="93" y="0"/>
      <point x="125" y="0"/>
      <point x="170" y="0" type="curve"/>
      <point x="170" y="59"/>
      <point x="170" y="0"/>
    </contour>
    <contour>
      <point x="170" y="0" type="curve"/>
      <point x="214" y="0"/>
      <point x="159" y="0"/>
      <point x="291" y="0" type="curve"/>
      <point x="291" y="59"/>
      <point x="291" y="0"/>
      <point x="291" y="59" type="curve"/>
      <point x="159" y="59"/>
      <point x="303" y="59"/>
      <point x="170" y="59" type="curve"/>
      <point x="170" y="0"/>
      <point x="170" y="59"/>
    </contour>
    <contour>
      <point x="281" y="354" type="curve"/>
      <point x="342" y="236"/>
      <point x="404" y="118"/>
      <point x="465" y="0" type="curve"/>
      <point x="544" y="0"/>
      <point x="464" y="0"/>
      <point x="543" y="0" type="curve"/>
      <point x="482" y="118"/>
      <point x="420" y="236"/>
      <point x="359" y="354" type="curve"/>
      <point x="280" y="354"/>
      <point x="360" y="354"/>
    </contour>
    <contour>
      <point x="208" y="0" type="curve"/>
      <point x="208" y="241"/>
      <point x="208" y="481"/>
      <point x="208" y="722" type="curve"/>
      <point x="134" y="722"/>
      <point x="208" y="722"/>
      <point x="134" y="722" type="curve"/>
      <point x="134" y="481"/>
      <point x="134" y="241"/>
      <point x="134" y="0" type="curve"/>
      <point x="208" y="0"/>
      <point x="134" y="0"/>
    </contour>
    <contour>
      <point x="173" y="322" type="curve"/>
      <point x="215" y="322"/>
      <point x="258" y="322"/>
      <point x="300" y="322" type="curve"/>
      <point x="419" y="322"/>
      <point x="482" y="402"/>
      <point x="482" y="529" type="curve"/>
      <point x="482" y="649"/>
      <point x="418" y="722"/>
      <point x="301" y="722" type="curve"/>
      <point x="256" y="722"/>
      <point x="217" y="722"/>
      <point x="173" y="722" type="curve"/>
      <point x="173" y="663"/>
      <point x="173" y="722"/>
      <point x="173" y="663" type="curve"/>
      <point x="213" y="663"/>
      <point x="247" y="663"/>
      <point x="287" y="663" type="curve"/>
      <point x="368" y="663"/>
      <point x="408" y="608"/>
      <point x="408" y="524" type="curve"/>
      <point x="408" y="441"/>
      <point x="376" y="381"/>
      <point x="300" y="381" type="curve"/>
      <point x="258" y="381"/>
      <point x="215" y="381"/>
      <point x="173" y="381" type="curve"/>
      <point x="173" y="322"/>
      <point x="173" y="381"/>
    </contour>
    <contour>
      <point x="266" y="806" type="move" name="top"/>
    </contour>
    <contour>
      <point x="354" y="-47" type="move" name="bottom"/>
    </contour>
  </outline>
</glyph>
<glyph name="S" format="1">
  <advance width="479"/>
  <unicode hex="0053"/>
  <outline>
    <contour>
      <point x="326" y="662" type="curve"/>
      <point x="326" y="542"/>
      <point x="326" y="658"/>
      <point x="326" y="538" type="curve"/>
      <point x="386" y="538"/>
      <point x="326" y="538"/>
      <point x="386" y="538" type="curve"/>
      <point x="386" y="658"/>
      <point x="386" y="542"/>
      <point x="386" y="662" type="curve"/>
      <point x="326" y="662"/>
      <point x="386" y="662"/>
    </contour>
    <contour>
      <point x="130" y="56" type="curve"/>
      <point x="130" y="176"/>
      <point x="130" y="64"/>
      <point x="130" y="184" type="curve"/>
      <point x="70" y="184"/>
      <point x="130" y="184"/>
      <point x="70" y="184" type="curve"/>
      <point x="70" y="64"/>
      <point x="70" y="176"/>
      <point x="70" y="56" type="curve"/>
      <point x="130" y="56"/>
      <point x="70" y="56"/>
    </contour>
    <contour>
      <point x="70" y="56" type="curve"/>
      <point x="113" y="19"/>
      <point x="162" y="-5"/>
      <point x="227" y="-5" type="curve"/>
      <point x="343" y="-5"/>
      <point x="419" y="64"/>
      <point x="419" y="180" type="curve"/>
      <point x="419" y="286"/>
      <point x="356" y="343"/>
      <point x="266" y="401" type="curve"/>
      <point x="200" y="443"/>
      <point x="149" y="484"/>
      <point x="149" y="553" type="curve"/>
      <point x="148" y="617"/>
      <point x="180" y="665"/>
      <point x="239" y="665" type="curve"/>
      <point x="285" y="665"/>
      <point x="327" y="638"/>
      <point x="352" y="615" type="curve"/>
      <point x="382" y="656"/>
      <point x="356" y="622"/>
      <point x="386" y="662" type="curve"/>
      <point x="343" y="700"/>
      <point x="301" y="722"/>
      <point x="241" y="722" type="curve"/>
      <point x="137" y="722"/>
      <point x="75" y="655"/>
      <point x="75" y="550" type="curve"/>
      <point x="75" y="452"/>
      <point x="135" y="399"/>
      <point x="219" y="346" type="curve"/>
      <point x="290" y="300"/>
      <point x="345" y="254"/>
      <point x="345" y="180" type="curve"/>
      <point x="345" y="113"/>
      <point x="299" y="56"/>
      <point x="231" y="56" type="curve"/>
      <point x="180" y="56"/>
      <point x="144" y="83"/>
      <point x="111" y="112" type="curve"/>
      <point x="75" y="63"/>
      <point x="106" y="105"/>
    </contour>
    <contour>
      <point x="242" y="806" type="move" name="top"/>
    </contour>
    <contour>
      <point x="254" y="-43" type="move" name="bottom"/>
    </contour>
  </outline>
</glyph>
<glyph name="V" format="1">
  <advance width="622"/>
  <unicode hex="0056"/>
  <outline>
    <contour>
      <point x="491" y="722" type="curve"/>
      <point x="447" y="722"/>
      <point x="408" y="722"/>
      <point x="364" y="722" type="curve"/>
      <point x="364" y="663"/>
      <point x="364" y="722"/>
      <point x="364" y="663" type="curve"/>
      <point x="496" y="663"/>
      <point x="359" y="663"/>
      <point x="491" y="663" type="curve"/>
      <point x="491" y="722"/>
      <point x="491" y="663"/>
    </contour>
    <contour>
      <point x="105" y="722" type="curve"/>
      <point x="65" y="722"/>
      <point x="30" y="722"/>
      <point x="-10" y="722" type="curve"/>
      <point x="-10" y="663"/>
      <point x="-10" y="722"/>
      <point x="-10" y="663" type="curve"/>
      <point x="110" y="663"/>
      <point x="-15" y="663"/>
      <point x="105" y="663" type="curve"/>
      <point x="105" y="722"/>
      <point x="105" y="663"/>
    </contour>
    <contour>
      <point x="495" y="663" type="curve"/>
      <point x="615" y="663"/>
      <point x="490" y="663"/>
      <point x="610" y="663" type="curve"/>
      <point x="610" y="722"/>
      <point x="610" y="663"/>
      <point x="610" y="722" type="curve"/>
      <point x="570" y="722"/>
      <point x="535" y="722"/>
      <point x="495" y="722" type="curve"/>
      <point x="495" y="663"/>
      <point x="495" y="722"/>
    </contour>
    <contour>
      <point x="109" y="663" type="curve"/>
      <point x="241" y="663"/>
      <point x="104" y="663"/>
      <point x="236" y="663" type="curve"/>
      <point x="236" y="722"/>
      <point x="236" y="663"/>
      <point x="236" y="722" type="curve"/>
      <point x="192" y="722"/>
      <point x="153" y="722"/>
      <point x="109" y="722" type="curve"/>
      <point x="109" y="663"/>
      <point x="109" y="722"/>
    </contour>
    <contour>
      <point x="466" y="722" type="curve"/>
      <point x="401" y="481"/>
      <point x="336" y="241"/>
      <point x="272" y="0" type="curve"/>
      <point x="349" y="0"/>
      <point x="266" y="0"/>
      <point x="343" y="0" type="curve"/>
      <point x="409" y="241"/>
      <point x="475" y="481"/>
      <point x="542" y="722" type="curve"/>
      <point x="466" y="722"/>
      <point x="542" y="722"/>
    </contour>
    <contour>
      <point x="58" y="722" type="curve"/>
      <point x="125" y="481"/>
      <point x="193" y="241"/>
      <point x="261" y="0" type="curve"/>
      <point x="338" y="0"/>
      <point x="256" y="0"/>
      <point x="333" y="0" type="curve"/>
      <point x="267" y="241"/>
      <point x="201" y="481"/>
      <point x="135" y="722" type="curve"/>
      <point x="58" y="722"/>
      <point x="135" y="722"/>
    </contour>
  </outline>
</glyph>
<glyph name="W" format="1">
  <advance width="770"/>
  <unicode hex="0057"/>
  <outline>
    <contour>
      <point x="118" y="663" type="curve"/>
      <point x="234" y="663"/>
      <point x="113" y="663"/>
      <point x="229" y="663" type="curve"/>
      <point x="229" y="722"/>
      <point x="229" y="663"/>
      <point x="229" y="722" type="curve"/>
      <point x="190" y="722"/>
      <point x="157" y="722"/>
      <point x="118" y="722" type="curve"/>
      <point x="118" y="663"/>
      <point x="118" y="722"/>
    </contour>
    <contour>
      <point x="114" y="722" type="curve"/>
      <point x="75" y="722"/>
      <point x="39" y="722"/>
      <point x="0" y="722" type="curve"/>
      <point x="0" y="663"/>
      <point x="0" y="722"/>
      <point x="0" y="663" type="curve"/>
      <point x="119" y="663"/>
      <point x="-5" y="663"/>
      <point x="114" y="663" type="curve"/>
      <point x="114" y="722"/>
      <point x="114" y="663"/>
    </contour>
    <contour>
      <point x="643" y="722" type="curve"/>
      <point x="605" y="722"/>
      <point x="571" y="722"/>
      <point x="533" y="722" type="curve"/>
      <point x="533" y="663"/>
      <point x="533" y="722"/>
      <point x="533" y="663" type="curve"/>
      <point x="648" y="663"/>
      <point x="528" y="663"/>
      <point x="643" y="663" type="curve"/>
      <point x="643" y="722"/>
      <point x="643" y="663"/>
    </contour>
    <contour>
      <point x="645" y="663" type="curve"/>
      <point x="765" y="663"/>
      <point x="640" y="663"/>
      <point x="759" y="663" type="curve"/>
      <point x="759" y="722"/>
      <point x="759" y="663"/>
      <point x="759" y="722" type="curve"/>
      <point x="720" y="722"/>
      <point x="685" y="722"/>
      <point x="645" y="722" type="curve"/>
      <point x="645" y="663"/>
      <point x="645" y="722"/>
    </contour>
    <contour>
      <point x="268" y="0" type="curve"/>
      <point x="317" y="241"/>
      <point x="364" y="481"/>
      <point x="413" y="722" type="curve"/>
      <point x="349" y="722"/>
      <point x="413" y="722"/>
      <point x="350" y="722" type="curve"/>
      <point x="304" y="481"/>
      <point x="258" y="242"/>
      <point x="213" y="0" type="curve"/>
      <point x="272" y="0"/>
      <point x="209" y="0"/>
    </contour>
    <contour>
      <point x="355" y="722" type="curve"/>
      <point x="399" y="481"/>
      <point x="442" y="241"/>
      <point x="486" y="0" type="curve"/>
      <point x="545" y="0"/>
      <point x="481" y="0"/>
      <point x="540" y="0" type="curve"/>
      <point x="499" y="243"/>
      <point x="459" y="481"/>
      <point x="418" y="722" type="curve"/>
      <point x="355" y="722"/>
      <point x="419" y="722"/>
    </contour>
    <contour>
      <point x="72" y="722" type="curve"/>
      <point x="116" y="481"/>
      <point x="161" y="241"/>
      <point x="205" y="0" type="curve"/>
      <point x="264" y="0"/>
      <point x="205" y="0"/>
      <point x="265" y="0" type="curve"/>
      <point x="222" y="241"/>
      <point x="180" y="481"/>
      <point x="138" y="722" type="curve"/>
      <point x="72" y="722"/>
      <point x="138" y="722"/>
    </contour>
    <contour>
      <point x="621" y="722" type="curve"/>
      <point x="577" y="481"/>
      <point x="533" y="241"/>
      <point x="489" y="0" type="curve"/>
      <point x="549" y="0"/>
      <point x="490" y="0"/>
      <point x="550" y="0" type="curve"/>
      <point x="595" y="241"/>
      <point x="641" y="481"/>
      <point x="687" y="722" type="curve"/>
      <point x="621" y="722"/>
      <point x="687" y="722"/>
    </contour>
  </outline>
</glyph>
<glyph name="X" format="1">
  <advance width="585"/>
  <unicode hex="0058"/>
  <outline>
    <contour>
      <point x="128" y="0" type="curve"/>
      <point x="169" y="0"/>
      <point x="123" y="0"/>
      <point x="246" y="0" type="curve"/>
      <point x="246" y="59"/>
      <point x="246" y="0"/>
      <point x="246" y="59" type="curve"/>
      <point x="123" y="59"/>
      <point x="252" y="59"/>
      <point x="128" y="59" type="curve"/>
      <point x="128" y="0"/>
      <point x="128" y="59"/>
    </contour>
    <contour>
      <point x="120" y="59" type="curve"/>
      <point x="0" y="59"/>
      <point x="125" y="59"/>
      <point x="6" y="59" type="curve"/>
      <point x="5" y="0"/>
      <point x="6" y="59"/>
      <point x="5" y="0" type="curve"/>
      <point x="45" y="0"/>
      <point x="80" y="0"/>
      <point x="120" y="0" type="curve"/>
      <point x="120" y="59"/>
      <point x="120" y="0"/>
    </contour>
    <contour>
      <point x="462" y="0" type="curve"/>
      <point x="502" y="0"/>
      <point x="537" y="0"/>
      <point x="577" y="0" type="curve"/>
      <point x="577" y="59"/>
      <point x="577" y="0"/>
      <point x="577" y="59" type="curve"/>
      <point x="457" y="59"/>
      <point x="582" y="59"/>
      <point x="462" y="59" type="curve"/>
      <point x="462" y="0"/>
      <point x="462" y="59"/>
    </contour>
    <contour>
      <point x="454" y="59" type="curve"/>
      <point x="331" y="59"/>
      <point x="459" y="59"/>
      <point x="336" y="59" type="curve"/>
      <point x="336" y="0"/>
      <point x="336" y="59"/>
      <point x="336" y="0" type="curve"/>
      <point x="377" y="0"/>
      <point x="413" y="0"/>
      <point x="454" y="0" type="curve"/>
      <point x="454" y="59"/>
      <point x="454" y="0"/>
    </contour>
    <contour>
      <point x="446" y="663" type="curve"/>
      <point x="565" y="663"/>
      <point x="441" y="663"/>
      <point x="560" y="663" type="curve"/>
      <point x="560" y="722"/>
      <point x="560" y="663"/>
      <point x="560" y="722" type="curve"/>
      <point x="521" y="722"/>
      <point x="485" y="722"/>
      <point x="446" y="722" type="curve"/>
      <point x="446" y="663"/>
      <point x="446" y="722"/>
    </contour>
    <contour>
      <point x="452" y="722" type="curve"/>
      <point x="410" y="722"/>
      <point x="372" y="722"/>
      <point x="330" y="722" type="curve"/>
      <point x="330" y="663"/>
      <point x="330" y="722"/>
      <point x="330" y="663" type="curve"/>
      <point x="458" y="663"/>
      <point x="324" y="663"/>
      <point x="452" y="663" type="curve"/>
      <point x="452" y="722"/>
      <point x="452" y="663"/>
    </contour>
    <contour>
      <point x="139" y="722" type="curve"/>
      <point x="100" y="722"/>
      <point x="65" y="722"/>
      <point x="25" y="722" type="curve"/>
      <point x="25" y="663"/>
      <point x="25" y="722"/>
      <point x="25" y="663" type="curve"/>
      <point x="144" y="663"/>
      <point x="20" y="663"/>
      <point x="139" y="663" type="curve"/>
      <point x="139" y="722"/>
      <point x="139" y="663"/>
    </contour>
    <contour>
      <point x="133" y="663" type="curve"/>
      <point x="261" y="663"/>
      <point x="128" y="663"/>
      <point x="256" y="663" type="curve"/>
      <point x="256" y="722"/>
      <point x="256" y="663"/>
      <point x="256" y="722" type="curve"/>
      <point x="213" y="722"/>
      <point x="175" y="722"/>
      <point x="133" y="722" type="curve"/>
      <point x="133" y="663"/>
      <point x="133" y="722"/>
    </contour>
    <contour>
      <point x="427" y="722" type="curve"/>
      <point x="306" y="481"/>
      <point x="187" y="241"/>
      <point x="66" y="0" type="curve"/>
      <point x="143" y="0"/>
      <point x="66" y="0"/>
      <point x="143" y="0" type="curve"/>
      <point x="262" y="241"/>
      <point x="381" y="481"/>
      <point x="501" y="722" type="curve"/>
      <point x="427" y="722"/>
      <point x="501" y="722"/>
    </contour>
    <contour>
      <point x="87" y="722" type="curve"/>
      <point x="204" y="481"/>
      <point x="323" y="241"/>
      <point x="441" y="0" type="curve"/>
      <point x="517" y="0"/>
      <point x="441" y="0"/>
      <point x="517" y="0" type="curve"/>
      <point x="398" y="241"/>
      <point x="279" y="481"/>
      <point x="160" y="722" type="curve"/>
      <point x="87" y="722"/>
      <point x="160" y="722"/>
    </contour>
  </outline>
</glyph>
<glyph name="Z" format="1">
  <advance width="537"/>
  <unicode hex="005A"/>
  <outline>
    <contour>
      <point x="66" y="693" type="curve"/>
      <point x="66" y="573"/>
      <point x="66" y="698"/>
      <point x="66" y="578" type="curve"/>
      <point x="125" y="578"/>
      <point x="66" y="578"/>
      <point x="125" y="578" type="curve"/>
      <point x="125" y="698"/>
      <point x="125" y="573"/>
      <point x="125" y="693" type="curve"/>
      <point x="66" y="693"/>
      <point x="125" y="693"/>
    </contour>
    <contour>
      <point x="493" y="29" type="curve"/>
      <point x="493" y="149"/>
      <point x="493" y="24"/>
      <point x="493" y="144" type="curve"/>
      <point x="434" y="144"/>
      <point x="493" y="144"/>
      <point x="434" y="144" type="curve"/>
      <point x="434" y="24"/>
      <point x="434" y="149"/>
      <point x="434" y="29" type="curve"/>
      <point x="493" y="29"/>
      <point x="434" y="29"/>
    </contour>
    <contour>
      <point x="66" y="663" type="curve"/>
      <point x="182" y="663"/>
      <point x="321" y="663"/>
      <point x="438" y="663" type="curve"/>
      <point x="432" y="669"/>
      <point x="422" y="669"/>
      <point x="416" y="675" type="curve"/>
      <point x="411" y="679"/>
      <point x="412" y="689"/>
      <point x="406" y="694" type="curve"/>
      <point x="402" y="687"/>
      <point x="394" y="689"/>
      <point x="390" y="683" type="curve"/>
      <point x="37" y="59" type="line"/>
      <point x="37" y="28"/>
      <point x="37" y="59"/>
      <point x="37" y="28" type="curve"/>
      <point x="37" y="0"/>
      <point x="37" y="28"/>
      <point x="37" y="0" type="curve"/>
      <point x="63" y="0"/>
      <point x="37" y="0"/>
      <point x="63" y="0" type="curve"/>
      <point x="480" y="0"/>
      <point x="354" y="0"/>
      <point x="493" y="0" type="curve"/>
      <point x="493" y="59"/>
      <point x="493" y="0"/>
      <point x="493" y="59" type="curve"/>
      <point x="354" y="59"/>
      <point x="202" y="59"/>
      <point x="63" y="59" type="curve"/>
      <point x="68" y="54"/>
      <point x="76" y="54"/>
      <point x="82" y="49" type="curve"/>
      <point x="88" y="44"/>
      <point x="88" y="34"/>
      <point x="94" y="28" type="curve"/>
      <point x="98" y="35"/>
      <point x="107" y="33"/>
      <point x="111" y="39" type="curve"/>
      <point x="467" y="663" type="line"/>
      <point x="467" y="694"/>
      <point x="467" y="663"/>
      <point x="467" y="694" type="curve"/>
      <point x="467" y="722"/>
      <point x="467" y="694"/>
      <point x="467" y="722" type="curve"/>
      <point x="438" y="722"/>
      <point x="467" y="722"/>
      <point x="438" y="722" type="curve"/>
      <point x="321" y="722"/>
      <point x="182" y="722"/>
      <point x="66" y="722" type="curve"/>
      <point x="66" y="663"/>
      <point x="66" y="722"/>
    </contour>
    <contour>
      <point x="270" y="806" type="move" name="top"/>
    </contour>
  </outline>
</glyph>
<glyph name="bracketleft" format="1">
  <advance width="258"/>
  <unicode hex="005B"/>
  <outline>
    <contour>
      <point x="217" y="770" type="curve"/>
      <point x="181" y="770"/>
      <point x="144" y="770"/>
      <point x="107" y="770" type="curve"/>
      <point x="100" y="770"/>
      <point x="83" y="770"/>
      <point x="75" y="770" type="curve"/>
      <point x="75" y="762"/>
      <point x="75" y="752"/>
      <point x="75" y="744" type="curve"/>
      <point x="75" y="464"/>
      <point x="75" y="185"/>
      <point x="75" y="-94" type="curve"/>
      <point x="75" y="-103"/>
      <point x="75" y="-109"/>
      <point x="75" y="-119" type="curve"/>
      <point x="83" y="-119"/>
      <point x="99" y="-119"/>
      <point x="106" y="-119" type="curve"/>
      <point x="143" y="-119"/>
      <point x="181" y="-119"/>
      <point x="217" y="-119" type="curve"/>
      <point x="217" y="-54"/>
      <point x="217" y="-119"/>
      <point x="217" y="-54" type="curve"/>
      <point x="181" y="-54"/>
      <point x="143" y="-54"/>
      <point x="106" y="-54" type="curve"/>
      <point x="149" y="-54"/>
      <point x="106" y="-54"/>
      <point x="149" y="-54" type="curve"/>
      <point x="149" y="-94"/>
      <point x="149" y="-54"/>
      <point x="149" y="-94" type="curve"/>
      <point x="149" y="185"/>
      <point x="149" y="464"/>
      <point x="149" y="744" type="curve"/>
      <point x="149" y="705"/>
      <point x="149" y="744"/>
      <point x="149" y="705" type="curve"/>
      <point x="107" y="705"/>
      <point x="149" y="705"/>
      <point x="107" y="705" type="curve"/>
      <point x="144" y="705"/>
      <point x="181" y="705"/>
      <point x="217" y="705" type="curve"/>
      <point x="217" y="770"/>
      <point x="217" y="705"/>
    </contour>
  </outline>
</glyph>
<glyph name="backslash" format="1">
  <advance width="428"/>
  <unicode hex="005C"/>
  <outline>
    <contour>
      <point x="394" y="-68" type="curve"/>
      <point x="300" y="236"/>
      <point x="205" y="540"/>
      <point x="112" y="844" type="curve"/>
      <point x="34" y="844"/>
      <point x="112" y="844"/>
      <point x="34" y="844" type="curve"/>
      <point x="128" y="540"/>
      <point x="222" y="236"/>
      <point x="317" y="-68" type="curve"/>
      <point x="394" y="-68"/>
      <point x="317" y="-68"/>
    </contour>
  </outline>
</glyph>
<glyph name="bracketright" format="1">
  <advance width="259"/>
  <unicode hex="005D"/>
  <outline>
    <contour>
      <point x="42" y="705" type="curve"/>
      <point x="78" y="705"/>
      <point x="115" y="705"/>
      <point x="152" y="705" type="curve"/>
      <point x="145" y="712"/>
      <point x="135" y="714"/>
      <point x="128" y="721" type="curve"/>
      <point x="122" y="728"/>
      <point x="116" y="736"/>
      <point x="110" y="744" type="curve"/>
      <point x="110" y="464"/>
      <point x="109" y="185"/>
      <point x="110" y="-94" type="curve"/>
      <point x="116" y="-86"/>
      <point x="124" y="-79"/>
      <point x="131" y="-72" type="curve"/>
      <point x="136" y="-64"/>
      <point x="147" y="-62"/>
      <point x="152" y="-54" type="curve"/>
      <point x="116" y="-54"/>
      <point x="78" y="-54"/>
      <point x="42" y="-54" type="curve"/>
      <point x="41" y="-119"/>
      <point x="42" y="-54"/>
      <point x="41" y="-119" type="curve"/>
      <point x="78" y="-119"/>
      <point x="116" y="-119"/>
      <point x="152" y="-119" type="curve"/>
      <point x="184" y="-119"/>
      <point x="152" y="-119"/>
      <point x="184" y="-119" type="curve"/>
      <point x="184" y="-94"/>
      <point x="184" y="-119"/>
      <point x="184" y="-94" type="curve"/>
      <point x="184" y="185"/>
      <point x="184" y="464"/>
      <point x="184" y="744" type="curve"/>
      <point x="184" y="770"/>
      <point x="184" y="744"/>
      <point x="184" y="770" type="curve"/>
      <point x="152" y="770"/>
      <point x="184" y="770"/>
      <point x="152" y="770" type="curve"/>
      <point x="115" y="770"/>
      <point x="78" y="770"/>
      <point x="42" y="770" type="curve"/>
      <point x="42" y="705"/>
      <point x="42" y="770"/>
    </contour>
  </outline>
</glyph>
<glyph name="asciicircum" format="1">
  <advance width="446"/>
  <unicode hex="005E"/>
  <outline>
    <contour>
      <point x="134" y="461" type="curve"/>
      <point x="176" y="570"/>
      <point x="218" y="678"/>
      <point x="260" y="786" type="curve"/>
      <point x="186" y="786"/>
      <point x="260" y="786"/>
      <point x="186" y="786" type="curve"/>
      <point x="144" y="678"/>
      <point x="102" y="570"/>
      <point x="60" y="461" type="curve"/>
      <point x="134" y="461"/>
      <point x="60" y="461"/>
    </contour>
    <contour>
      <point x="387" y="461" type="curve"/>
      <point x="345" y="567"/>
      <point x="301" y="680"/>
      <point x="260" y="786" type="curve"/>
      <point x="186" y="786"/>
      <point x="260" y="786"/>
      <point x="186" y="786" type="curve"/>
      <point x="227" y="680"/>
      <point x="272" y="567"/>
      <point x="313" y="461" type="curve"/>
      <point x="387" y="461"/>
      <point x="313" y="461"/>
    </contour>
  </outline>
</glyph>
<glyph name="underscore" format="1">
  <advance width="492"/>
  <unicode hex="005F"/>
  <outline>
    <contour>
      <point x="0" y="-199" type="curve"/>
      <point x="164" y="-199"/>
      <point x="328" y="-199"/>
      <point x="492" y="-199" type="curve"/>
      <point x="492" y="-139"/>
      <point x="492" y="-199"/>
      <point x="492" y="-139" type="curve"/>
      <point x="328" y="-139"/>
      <point x="164" y="-139"/>
      <point x="0" y="-139" type="curve"/>
      <point x="0" y="-199"/>
      <point x="0" y="-139"/>
    </contour>
  </outline>
</glyph>
<glyph name="b" format="1">
  <advance width="533"/>
  <unicode hex="0062"/>
  <outline>
    <contour>
      <point x="140" y="800" type="curve"/>
      <point x="97" y="800"/>
      <point x="60" y="800"/>
      <point x="18" y="800" type="curve"/>
      <point x="18" y="741"/>
      <point x="18" y="800"/>
      <point x="18" y="741" type="curve"/>
      <point x="146" y="741"/>
      <point x="12" y="741"/>
      <point x="140" y="741" type="curve"/>
      <point x="140" y="800"/>
      <point x="140" y="741"/>
    </contour>
    <contour>
      <point x="159" y="381" type="curve"/>
      <point x="177" y="421"/>
      <point x="224" y="477"/>
      <point x="288" y="477" type="curve"/>
      <point x="381" y="477"/>
      <point x="406" y="377"/>
      <point x="406" y="266" type="curve"/>
      <point x="407" y="159"/>
      <point x="376" y="56"/>
      <point x="289" y="56" type="curve"/>
      <point x="235" y="56"/>
      <point x="192" y="95"/>
      <point x="164" y="148" type="curve"/>
      <point x="124" y="120"/>
      <point x="165" y="145"/>
      <point x="125" y="117" type="curve"/>
      <point x="162" y="48"/>
      <point x="214" y="-5"/>
      <point x="295" y="-5" type="curve"/>
      <point x="425" y="-5"/>
      <point x="480" y="118"/>
      <point x="480" y="269" type="curve"/>
      <point x="480" y="416"/>
      <point x="427" y="538"/>
      <point x="296" y="538" type="curve"/>
      <point x="210" y="538"/>
      <point x="153" y="473"/>
      <point x="127" y="415" type="curve"/>
      <point x="159" y="386"/>
      <point x="127" y="411"/>
    </contour>
    <contour>
      <point x="176" y="0" type="curve"/>
      <point x="176" y="267"/>
      <point x="176" y="533"/>
      <point x="176" y="800" type="curve"/>
      <point x="102" y="800"/>
      <point x="176" y="800"/>
      <point x="102" y="800" type="curve"/>
      <point x="102" y="533"/>
      <point x="102" y="267"/>
      <point x="102" y="0" type="curve"/>
      <point x="176" y="0"/>
      <point x="102" y="0"/>
    </contour>
    <contour>
      <point x="140" y="59" type="curve"/>
      <point x="13" y="59"/>
      <point x="146" y="59"/>
      <point x="18" y="59" type="curve"/>
      <point x="18" y="0"/>
      <point x="18" y="59"/>
      <point x="18" y="0" type="curve"/>
      <point x="60" y="0"/>
      <point x="98" y="0"/>
      <point x="140" y="0" type="curve"/>
      <point x="140" y="59"/>
      <point x="140" y="0"/>
    </contour>
  </outline>
</glyph>
<glyph name="c" format="1">
  <advance width="441"/>
  <unicode hex="0063"/>
  <outline>
    <contour>
      <point x="324" y="471" type="curve"/>
      <point x="324" y="351"/>
      <point x="324" y="477"/>
      <point x="324" y="357" type="curve"/>
      <point x="384" y="357"/>
      <point x="324" y="357"/>
      <point x="384" y="357" type="curve"/>
      <point x="384" y="477"/>
      <point x="384" y="351"/>
      <point x="384" y="471" type="curve"/>
      <point x="324" y="471"/>
      <point x="384" y="471"/>
    </contour>
    <contour>
      <point x="384" y="471" type="curve"/>
      <point x="349" y="507"/>
      <point x="302" y="538"/>
      <point x="250" y="538" type="curve"/>
      <point x="107" y="538"/>
      <point x="52" y="427"/>
      <point x="52" y="267" type="curve"/>
      <point x="52" y="107"/>
      <point x="105" y="-5"/>
      <point x="248" y="-5" type="curve"/>
      <point x="308" y="-5"/>
      <point x="362" y="30"/>
      <point x="394" y="91" type="curve"/>
      <point x="343" y="125"/>
      <point x="394" y="91"/>
      <point x="343" y="125" type="curve"/>
      <point x="324" y="94"/>
      <point x="292" y="56"/>
      <point x="251" y="56" type="curve"/>
      <point x="151" y="56"/>
      <point x="126" y="149"/>
      <point x="126" y="267" type="curve"/>
      <point x="126" y="385"/>
      <point x="151" y="477"/>
      <point x="249" y="477" type="curve"/>
      <point x="284" y="477"/>
      <point x="317" y="455"/>
      <point x="340" y="430" type="curve"/>
      <point x="384" y="471"/>
      <point x="340" y="430"/>
    </contour>
    <contour>
      <point x="244" y="645" type="move" name="top"/>
    </contour>
    <contour>
      <point x="263" y="0" type="move" name="bottom"/>
    </contour>
  </outline>
</glyph>
<glyph name="h" format="1">
  <advance width="524"/>
  <unicode hex="0068"/>
  <outline>
    <contour>
      <point x="398" y="0" type="curve"/>
      <point x="440" y="0"/>
      <point x="478" y="0"/>
      <point x="520" y="0" type="curve"/>
      <point x="520" y="59"/>
      <point x="520" y="0"/>
      <point x="520" y="59" type="curve"/>
      <point x="392" y="59"/>
      <point x="525" y="59"/>
      <point x="398" y="59" type="curve"/>
      <point x="398" y="0"/>
      <point x="398" y="59"/>
    </contour>
    <contour>
      <point x="130" y="0" type="curve"/>
      <point x="166" y="0"/>
      <point x="125" y="0"/>
      <point x="234" y="0" type="curve"/>
      <point x="234" y="59"/>
      <point x="234" y="0"/>
      <point x="234" y="59" type="curve"/>
      <point x="125" y="59"/>
      <point x="239" y="59"/>
      <point x="130" y="59" type="curve"/>
      <point x="130" y="0"/>
      <point x="130" y="59"/>
    </contour>
    <contour>
      <point x="130" y="800" type="curve"/>
      <point x="87" y="800"/>
      <point x="50" y="800"/>
      <point x="8" y="800" type="curve"/>
      <point x="7" y="741"/>
      <point x="8" y="800"/>
      <point x="7" y="741" type="curve"/>
      <point x="135" y="741"/>
      <point x="2" y="741"/>
      <point x="130" y="741" type="curve"/>
      <point x="130" y="800"/>
      <point x="130" y="741"/>
    </contour>
    <contour>
      <point x="130" y="59" type="curve"/>
      <point x="2" y="59"/>
      <point x="135" y="59"/>
      <point x="8" y="59" type="curve"/>
      <point x="7" y="0"/>
      <point x="8" y="59"/>
      <point x="7" y="0" type="curve"/>
      <point x="50" y="0"/>
      <point x="87" y="0"/>
      <point x="130" y="0" type="curve"/>
      <point x="130" y="59"/>
      <point x="130" y="0"/>
    </contour>
    <contour>
      <point x="150" y="331" type="curve"/>
      <point x="165" y="399"/>
      <point x="209" y="477"/>
      <point x="277" y="477" type="curve"/>
      <point x="351" y="477"/>
      <point x="361" y="410"/>
      <point x="361" y="327" type="curve"/>
      <point x="361" y="218"/>
      <point x="361" y="109"/>
      <point x="361" y="0" type="curve"/>
      <point x="435" y="0"/>
      <point x="361" y="0"/>
      <point x="435" y="0" type="curve"/>
      <point x="435" y="111"/>
      <point x="435" y="222"/>
      <point x="435" y="334" type="curve"/>
      <point x="435" y="450"/>
      <point x="405" y="536"/>
      <point x="296" y="536" type="curve"/>
      <point x="209" y="536"/>
      <point x="144" y="453"/>
      <point x="128" y="364" type="curve"/>
      <point x="152" y="333"/>
      <point x="126" y="362"/>
    </contour>
    <contour>
      <point x="167" y="0" type="curve"/>
      <point x="167" y="267"/>
      <point x="167" y="533"/>
      <point x="167" y="800" type="curve"/>
      <point x="93" y="800"/>
      <point x="167" y="800"/>
      <point x="93" y="800" type="curve"/>
      <point x="93" y="533"/>
      <point x="93" y="267"/>
      <point x="93" y="0" type="curve"/>
      <point x="167" y="0"/>
      <point x="93" y="0"/>
    </contour>
  </outline>
</glyph>
<glyph name="k" format="1">
  <advance width="490"/>
  <unicode hex="006B"/>
  <outline>
    <contour>
      <point x="129" y="59" type="curve"/>
      <point x="2" y="59"/>
      <point x="134" y="59"/>
      <point x="7" y="59" type="curve"/>
      <point x="7" y="0"/>
      <point x="7" y="59"/>
      <point x="7" y="0" type="curve"/>
      <point x="49" y="0"/>
      <point x="87" y="0"/>
      <point x="129" y="0" type="curve"/>
      <point x="129" y="59"/>
      <point x="129" y="0"/>
    </contour>
    <contour>
      <point x="358" y="0" type="curve"/>
      <point x="397" y="0"/>
      <point x="432" y="0"/>
      <point x="471" y="0" type="curve"/>
      <point x="471" y="59"/>
      <point x="471" y="0"/>
      <point x="471" y="59" type="curve"/>
      <point x="355" y="59"/>
      <point x="476" y="59"/>
      <point x="359" y="59" type="curve"/>
      <point x="359" y="0"/>
      <point x="358" y="59"/>
    </contour>
    <contour>
      <point x="354" y="474" type="curve"/>
      <point x="453" y="474"/>
      <point x="349" y="474"/>
      <point x="448" y="474" type="curve"/>
      <point x="448" y="533"/>
      <point x="448" y="474"/>
      <point x="448" y="533" type="curve"/>
      <point x="415" y="533"/>
      <point x="386" y="533"/>
      <point x="354" y="533" type="curve"/>
      <point x="354" y="474"/>
      <point x="354" y="533"/>
    </contour>
    <contour>
      <point x="129" y="0" type="curve"/>
      <point x="166" y="0"/>
      <point x="125" y="0"/>
      <point x="233" y="0" type="curve"/>
      <point x="233" y="59"/>
      <point x="233" y="0"/>
      <point x="233" y="59" type="curve"/>
      <point x="125" y="59"/>
      <point x="237" y="59"/>
      <point x="129" y="59" type="curve"/>
      <point x="129" y="0"/>
      <point x="129" y="59"/>
    </contour>
    <contour>
      <point x="366" y="533" type="curve"/>
      <point x="319" y="533"/>
      <point x="276" y="533"/>
      <point x="228" y="533" type="curve"/>
      <point x="228" y="474"/>
      <point x="228" y="533"/>
      <point x="228" y="474" type="curve"/>
      <point x="371" y="474"/>
      <point x="223" y="474"/>
      <point x="366" y="474" type="curve"/>
      <point x="366" y="533"/>
      <point x="366" y="474"/>
    </contour>
    <contour>
      <point x="131" y="800" type="curve"/>
      <point x="88" y="800"/>
      <point x="50" y="800"/>
      <point x="8" y="800" type="curve"/>
      <point x="8" y="741"/>
      <point x="8" y="800"/>
      <point x="8" y="741" type="curve"/>
      <point x="136" y="741"/>
      <point x="3" y="741"/>
      <point x="131" y="741" type="curve"/>
      <point x="131" y="800"/>
      <point x="131" y="741"/>
    </contour>
    <contour>
      <point x="166" y="0" type="curve"/>
      <point x="166" y="800" type="line"/>
      <point x="92" y="800"/>
      <point x="166" y="800"/>
      <point x="92" y="800" type="curve"/>
      <point x="92" y="533"/>
      <point x="92" y="267"/>
      <point x="92" y="0" type="curve"/>
      <point x="166" y="0"/>
      <point x="92" y="0"/>
    </contour>
    <contour>
      <point x="335" y="533" type="curve"/>
      <point x="149" y="275" type="line"/>
      <point x="227" y="275"/>
      <point x="147" y="275"/>
      <point x="224" y="275" type="curve"/>
      <point x="402" y="511" type="line"/>
      <point x="333" y="511"/>
      <point x="404" y="533"/>
    </contour>
    <contour>
      <point x="416" y="29" type="curve"/>
      <point x="224" y="275" type="line"/>
      <point x="147" y="275"/>
      <point x="227" y="275"/>
      <point x="149" y="275" type="curve"/>
      <point x="354" y="0" type="line"/>
      <point x="418" y="0"/>
      <point x="351" y="29"/>
    </contour>
    <contour>
      <point x="306" y="-46" type="move" name="bottom"/>
    </contour>
  </outline>
</glyph>
<glyph name="m" format="1">
  <advance width="783"/>
  <unicode hex="006D"/>
  <outline>
    <contour>
      <point x="403" y="0" type="curve"/>
      <point x="510" y="0"/>
      <point x="403" y="0"/>
      <point x="510" y="0" type="curve"/>
      <point x="510" y="59"/>
      <point x="510" y="0"/>
      <point x="510" y="59" type="curve"/>
      <point x="403" y="59"/>
      <point x="510" y="59"/>
      <point x="403" y="59" type="curve"/>
      <point x="403" y="0"/>
      <point x="403" y="59"/>
    </contour>
    <contour>
      <point x="643" y="0" type="curve"/>
      <point x="685" y="0"/>
      <point x="723" y="0"/>
      <point x="765" y="0" type="curve"/>
      <point x="765" y="59"/>
      <point x="765" y="0"/>
      <point x="765" y="59" type="curve"/>
      <point x="638" y="59"/>
      <point x="771" y="59"/>
      <point x="643" y="59" type="curve"/>
      <point x="643" y="0"/>
      <point x="643" y="59"/>
    </contour>
    <contour>
      <point x="163" y="59" type="curve"/>
      <point x="35" y="59"/>
      <point x="168" y="59"/>
      <point x="41" y="59" type="curve"/>
      <point x="40" y="0"/>
      <point x="41" y="59"/>
      <point x="40" y="0" type="curve"/>
      <point x="83" y="0"/>
      <point x="121" y="0"/>
      <point x="163" y="0" type="curve"/>
      <point x="163" y="59"/>
      <point x="163" y="0"/>
    </contour>
    <contour>
      <point x="163" y="0" type="curve"/>
      <point x="201" y="0"/>
      <point x="152" y="0"/>
      <point x="265" y="0" type="curve"/>
      <point x="265" y="59"/>
      <point x="265" y="0"/>
      <point x="265" y="59" type="curve"/>
      <point x="152" y="59"/>
      <point x="276" y="59"/>
      <point x="163" y="59" type="curve"/>
      <point x="163" y="0"/>
      <point x="163" y="59"/>
    </contour>
    <contour>
      <point x="163" y="533" type="curve"/>
      <point x="121" y="533"/>
      <point x="83" y="533"/>
      <point x="41" y="533" type="curve"/>
      <point x="40" y="474"/>
      <point x="41" y="533"/>
      <point x="40" y="474" type="curve"/>
      <point x="168" y="474"/>
      <point x="35" y="474"/>
      <point x="163" y="474" type="curve"/>
      <point x="163" y="533"/>
      <point x="163" y="474"/>
    </contour>
    <contour>
      <point x="423" y="319" type="curve"/>
      <point x="443" y="396"/>
      <point x="469" y="478"/>
      <point x="534" y="478" type="curve"/>
      <point x="608" y="478"/>
      <point x="605" y="414"/>
      <point x="605" y="327" type="curve"/>
      <point x="605" y="218"/>
      <point x="605" y="109"/>
      <point x="605" y="0" type="curve"/>
      <point x="679" y="0"/>
      <point x="605" y="0"/>
      <point x="679" y="0" type="curve"/>
      <point x="679" y="111"/>
      <point x="679" y="222"/>
      <point x="679" y="334" type="curve"/>
      <point x="679" y="455"/>
      <point x="669" y="538"/>
      <point x="558" y="538" type="curve"/>
      <point x="468" y="538"/>
      <point x="422" y="454"/>
      <point x="401" y="353" type="curve"/>
      <point x="425" y="320"/>
      <point x="399" y="352"/>
    </contour>
    <contour>
      <point x="184" y="319" type="curve"/>
      <point x="201" y="394"/>
      <point x="227" y="478"/>
      <point x="294" y="478" type="curve"/>
      <point x="368" y="478"/>
      <point x="366" y="414"/>
      <point x="366" y="327" type="curve"/>
      <point x="366" y="218"/>
      <point x="366" y="109"/>
      <point x="366" y="0" type="curve"/>
      <point x="440" y="0"/>
      <point x="366" y="0"/>
      <point x="440" y="0" type="curve"/>
      <point x="440" y="111"/>
      <point x="440" y="222"/>
      <point x="440" y="334" type="curve"/>
      <point x="440" y="455"/>
      <point x="430" y="539"/>
      <point x="319" y="539" type="curve"/>
      <point x="227" y="539"/>
      <point x="183" y="455"/>
      <point x="161" y="353" type="curve"/>
      <point x="186" y="320"/>
      <point x="159" y="352"/>
    </contour>
    <contour>
      <point x="200" y="0" type="curve"/>
      <point x="200" y="178"/>
      <point x="200" y="355"/>
      <point x="200" y="533" type="curve"/>
      <point x="126" y="533"/>
      <point x="200" y="533"/>
      <point x="126" y="533" type="curve"/>
      <point x="126" y="355"/>
      <point x="126" y="178"/>
      <point x="126" y="0" type="curve"/>
      <point x="200" y="0"/>
      <point x="126" y="0"/>
    </contour>
  </outline>
</glyph>
<glyph name="q" format="1">
  <advance width="534"/>
  <unicode hex="0071"/>
  <outline>
    <contour>
      <point x="399" y="474" type="curve"/>
      <point x="518" y="474"/>
      <point x="393" y="474"/>
      <point x="514" y="474" type="curve"/>
      <point x="514" y="533"/>
      <point x="514" y="474"/>
      <point x="514" y="533" type="curve"/>
      <point x="474" y="533"/>
      <point x="438" y="533"/>
      <point x="399" y="533" type="curve"/>
      <point x="399" y="474"/>
      <point x="399" y="533"/>
    </contour>
    <contour>
      <point x="398" y="-241" type="curve"/>
      <point x="270" y="-241"/>
      <point x="403" y="-241"/>
      <point x="275" y="-241" type="curve"/>
      <point x="275" y="-300"/>
      <point x="275" y="-241"/>
      <point x="275" y="-300" type="curve"/>
      <point x="318" y="-300"/>
      <point x="355" y="-300"/>
      <point x="398" y="-300" type="curve"/>
      <point x="398" y="-241"/>
      <point x="398" y="-300"/>
    </contour>
    <contour>
      <point x="398" y="-300" type="curve"/>
      <point x="438" y="-300"/>
      <point x="473" y="-300"/>
      <point x="513" y="-300" type="curve"/>
      <point x="513" y="-241"/>
      <point x="513" y="-300"/>
      <point x="513" y="-241" type="curve"/>
      <point x="393" y="-241"/>
      <point x="519" y="-241"/>
      <point x="398" y="-241" type="curve"/>
      <point x="398" y="-300"/>
      <point x="398" y="-241"/>
    </contour>
    <contour>
      <point x="402" y="418" type="curve"/>
      <point x="369" y="493"/>
      <point x="305" y="538"/>
      <point x="234" y="538" type="curve"/>
      <point x="94" y="538"/>
      <point x="52" y="411"/>
      <point x="52" y="264" type="curve"/>
      <point x="53" y="118"/>
      <point x="100" y="-6"/>
      <point x="239" y="-6" type="curve"/>
      <point x="312" y="-6"/>
      <point x="370" y="54"/>
      <point x="401" y="122" type="curve"/>
      <point x="375" y="155"/>
      <point x="401" y="125"/>
      <point x="376" y="158" type="curve"/>
      <point x="352" y="102"/>
      <point x="305" y="53"/>
      <point x="249" y="53" type="curve"/>
      <point x="150" y="53"/>
      <point x="126" y="155"/>
      <point x="126" y="268" type="curve"/>
      <point x="126" y="377"/>
      <point x="150" y="477"/>
      <point x="246" y="477" type="curve"/>
      <point x="298" y="477"/>
      <point x="345" y="447"/>
      <point x="379" y="381" type="curve"/>
      <point x="398" y="416"/>
      <point x="382" y="382"/>
    </contour>
    <contour>
      <point x="436" y="-300" type="curve"/>
      <point x="436" y="-22"/>
      <point x="436" y="255"/>
      <point x="436" y="533" type="curve"/>
      <point x="359" y="533"/>
      <point x="436" y="533"/>
      <point x="359" y="533" type="curve"/>
      <point x="359" y="255"/>
      <point x="359" y="-22"/>
      <point x="359" y="-300" type="curve"/>
      <point x="436" y="-300"/>
      <point x="359" y="-300"/>
    </contour>
  </outline>
</glyph>
<glyph name="r" format="1">
  <advance width="367"/>
  <unicode hex="0072"/>
  <outline>
    <contour>
      <point x="162" y="0" type="curve"/>
      <point x="203" y="0"/>
      <point x="238" y="0"/>
      <point x="278" y="0" type="curve"/>
      <point x="278" y="59"/>
      <point x="278" y="0"/>
      <point x="278" y="59" type="curve"/>
      <point x="157" y="59"/>
      <point x="283" y="59"/>
      <point x="162" y="59" type="curve"/>
      <point x="162" y="0"/>
      <point x="162" y="59"/>
    </contour>
    <contour>
      <point x="162" y="59" type="curve"/>
      <point x="35" y="59"/>
      <point x="168" y="59"/>
      <point x="40" y="59" type="curve"/>
      <point x="40" y="0"/>
      <point x="40" y="59"/>
      <point x="40" y="0" type="curve"/>
      <point x="82" y="0"/>
      <point x="120" y="0"/>
      <point x="162" y="0" type="curve"/>
      <point x="162" y="59"/>
      <point x="162" y="0"/>
    </contour>
    <contour>
      <point x="162" y="533" type="curve"/>
      <point x="120" y="533"/>
      <point x="82" y="533"/>
      <point x="40" y="533" type="curve"/>
      <point x="40" y="474"/>
      <point x="40" y="533"/>
      <point x="40" y="474" type="curve"/>
      <point x="167" y="474"/>
      <point x="34" y="474"/>
      <point x="162" y="474" type="curve"/>
      <point x="162" y="533"/>
      <point x="162" y="474"/>
    </contour>
    <contour>
      <point x="199" y="0" type="curve"/>
      <point x="199" y="178"/>
      <point x="199" y="355"/>
      <point x="199" y="533" type="curve"/>
      <point x="125" y="533"/>
      <point x="199" y="533"/>
      <point x="125" y="533" type="curve"/>
      <point x="125" y="355"/>
      <point x="125" y="178"/>
      <point x="125" y="0" type="curve"/>
      <point x="199" y="0"/>
      <point x="125" y="0"/>
    </contour>
    <contour>
      <point x="183" y="334" type="curve"/>
      <point x="205" y="432"/>
      <point x="270" y="477"/>
      <point x="343" y="477" type="curve"/>
      <point x="343" y="541"/>
      <point x="343" y="474"/>
      <point x="343" y="538" type="curve"/>
      <point x="253" y="538"/>
      <point x="182" y="468"/>
      <point x="155" y="370" type="curve"/>
      <point x="182" y="339"/>
      <point x="158" y="363"/>
    </contour>
    <contour>
      <point x="168" y="645" type="move" name="top"/>
    </contour>
    <contour>
      <point x="190" y="-46" type="move" name="bottom"/>
    </contour>
  </outline>
</glyph>
<glyph name="t" format="1">
  <advance width="321"/>
  <unicode hex="0074"/>
  <outline>
    <contour>
      <point x="17" y="473" type="curve"/>
      <point x="299" y="473" type="line"/>
      <point x="299" y="533"/>
      <point x="299" y="473"/>
      <point x="299" y="533" type="curve"/>
      <point x="17" y="533" type="line"/>
      <point x="17" y="473"/>
      <point x="17" y="533"/>
    </contour>
    <contour>
      <point x="270" y="79" type="curve"/>
      <point x="252" y="66"/>
      <point x="239" y="57"/>
      <point x="217" y="57" type="curve"/>
      <point x="171" y="57"/>
      <point x="165" y="101"/>
      <point x="165" y="158" type="curve"/>
      <point x="165" y="681" type="line"/>
      <point x="105" y="643"/>
      <point x="151" y="667"/>
      <point x="91" y="629" type="curve"/>
      <point x="91" y="154" type="line"/>
      <point x="91" y="58"/>
      <point x="122" y="-5"/>
      <point x="207" y="-5" type="curve"/>
      <point x="244" y="-5"/>
      <point x="269" y="6"/>
      <point x="301" y="27" type="curve"/>
      <point x="270" y="79"/>
      <point x="301" y="27"/>
    </contour>
    <contour>
      <point x="227" y="-43" type="move" name="bottom"/>
    </contour>
  </outline>
</glyph>
<glyph name="v" format="1">
  <advance width="531"/>
  <unicode hex="0076"/>
  <outline>
    <contour>
      <point x="118" y="533" type="curve"/>
      <point x="80" y="533"/>
      <point x="47" y="533"/>
      <point x="9" y="533" type="curve"/>
      <point x="9" y="474"/>
      <point x="9" y="533"/>
      <point x="9" y="474" type="curve"/>
      <point x="124" y="474"/>
      <point x="4" y="474"/>
      <point x="118" y="474" type="curve"/>
      <point x="118" y="533"/>
      <point x="118" y="474"/>
    </contour>
    <contour>
      <point x="118" y="474" type="curve"/>
      <point x="229" y="474"/>
      <point x="114" y="474"/>
      <point x="224" y="474" type="curve"/>
      <point x="224" y="533"/>
      <point x="224" y="474"/>
      <point x="224" y="533" type="curve"/>
      <point x="187" y="533"/>
      <point x="155" y="533"/>
      <point x="118" y="533" type="curve"/>
      <point x="118" y="474"/>
      <point x="118" y="533"/>
    </contour>
    <contour>
      <point x="422" y="533" type="curve"/>
      <point x="384" y="533"/>
      <point x="349" y="533"/>
      <point x="311" y="533" type="curve"/>
      <point x="311" y="474"/>
      <point x="311" y="533"/>
      <point x="311" y="474" type="curve"/>
      <point x="427" y="474"/>
      <point x="306" y="474"/>
      <point x="422" y="474" type="curve"/>
      <point x="422" y="533"/>
      <point x="422" y="474"/>
    </contour>
    <contour>
      <point x="422" y="474" type="curve"/>
      <point x="531" y="474"/>
      <point x="418" y="474"/>
      <point x="526" y="474" type="curve"/>
      <point x="526" y="533"/>
      <point x="526" y="474"/>
      <point x="526" y="533" type="curve"/>
      <point x="490" y="533"/>
      <point x="458" y="533"/>
      <point x="422" y="533" type="curve"/>
      <point x="422" y="474"/>
      <point x="422" y="533"/>
    </contour>
    <contour>
      <point x="73" y="533" type="curve"/>
      <point x="124" y="355"/>
      <point x="174" y="178"/>
      <point x="223" y="0" type="curve"/>
      <point x="293" y="0"/>
      <point x="223" y="0"/>
      <point x="293" y="0" type="curve"/>
      <point x="244" y="178"/>
      <point x="199" y="355"/>
      <point x="150" y="533" type="curve"/>
      <point x="73" y="533"/>
      <point x="150" y="533"/>
    </contour>
    <contour>
      <point x="392" y="533" type="curve"/>
      <point x="239" y="0" type="line"/>
      <point x="310" y="0"/>
      <point x="239" y="0"/>
      <point x="310" y="0" type="curve"/>
      <point x="363" y="178"/>
      <point x="415" y="355"/>
      <point x="467" y="533" type="curve"/>
      <point x="392" y="533"/>
      <point x="467" y="533"/>
    </contour>
  </outline>
</glyph>
<glyph name="x" format="1">
  <advance width="534"/>
  <unicode hex="0078"/>
  <outline>
    <contour>
      <point x="112" y="59" type="curve"/>
      <point x="14" y="59"/>
      <point x="113" y="59"/>
      <point x="15" y="59" type="curve"/>
      <point x="15" y="0"/>
      <point x="15" y="59"/>
      <point x="15" y="0" type="curve"/>
      <point x="48" y="0"/>
      <point x="80" y="0"/>
      <point x="112" y="0" type="curve"/>
      <point x="112" y="59"/>
      <point x="112" y="0"/>
    </contour>
    <contour>
      <point x="433" y="59" type="curve"/>
      <point x="307" y="59"/>
      <point x="435" y="59"/>
      <point x="309" y="59" type="curve"/>
      <point x="309" y="0"/>
      <point x="309" y="59"/>
      <point x="309" y="0" type="curve"/>
      <point x="351" y="0"/>
      <point x="391" y="0"/>
      <point x="433" y="0" type="curve"/>
      <point x="433" y="59"/>
      <point x="433" y="0"/>
    </contour>
    <contour>
      <point x="424" y="0" type="curve"/>
      <point x="458" y="0"/>
      <point x="494" y="0"/>
      <point x="527" y="0" type="curve"/>
      <point x="527" y="59"/>
      <point x="527" y="0"/>
      <point x="527" y="59" type="curve"/>
      <point x="428" y="59"/>
      <point x="524" y="59"/>
      <point x="424" y="59" type="curve"/>
      <point x="424" y="0"/>
      <point x="424" y="59"/>
    </contour>
    <contour>
      <point x="104" y="0" type="curve"/>
      <point x="146" y="0"/>
      <point x="100" y="0"/>
      <point x="227" y="0" type="curve"/>
      <point x="227" y="59"/>
      <point x="227" y="0"/>
      <point x="227" y="59" type="curve"/>
      <point x="100" y="59"/>
      <point x="231" y="59"/>
      <point x="104" y="59" type="curve"/>
      <point x="104" y="0"/>
      <point x="104" y="59"/>
    </contour>
    <contour>
      <point x="412" y="474" type="curve"/>
      <point x="515" y="474"/>
      <point x="418" y="474"/>
      <point x="520" y="474" type="curve"/>
      <point x="520" y="533"/>
      <point x="520" y="474"/>
      <point x="520" y="533" type="curve"/>
      <point x="486" y="533"/>
      <point x="446" y="533"/>
      <point x="412" y="533" type="curve"/>
      <point x="412" y="474"/>
      <point x="412" y="533"/>
    </contour>
    <contour>
      <point x="141" y="533" type="curve"/>
      <point x="105" y="533"/>
      <point x="68" y="533"/>
      <point x="33" y="533" type="curve"/>
      <point x="33" y="474"/>
      <point x="33" y="533"/>
      <point x="33" y="474" type="curve"/>
      <point x="140" y="474"/>
      <point x="34" y="474"/>
      <point x="141" y="474" type="curve"/>
      <point x="141" y="533"/>
      <point x="141" y="474"/>
    </contour>
    <contour>
      <point x="128" y="474" type="curve"/>
      <point x="248" y="474"/>
      <point x="116" y="474"/>
      <point x="236" y="474" type="curve"/>
      <point x="236" y="533"/>
      <point x="236" y="474"/>
      <point x="236" y="533" type="curve"/>
      <point x="196" y="533"/>
      <point x="169" y="533"/>
      <point x="128" y="533" type="curve"/>
      <point x="128" y="474"/>
      <point x="128" y="533"/>
    </contour>
    <contour>
      <point x="425" y="533" type="curve"/>
      <point x="383" y="533"/>
      <point x="354" y="533"/>
      <point x="313" y="533" type="curve"/>
      <point x="313" y="474"/>
      <point x="313" y="533"/>
      <point x="313" y="474" type="curve"/>
      <point x="437" y="474"/>
      <point x="300" y="474"/>
      <point x="425" y="474" type="curve"/>
      <point x="425" y="533"/>
      <point x="425" y="474"/>
    </contour>
    <contour>
      <point x="464" y="18" type="curve"/>
      <point x="408" y="121"/>
      <point x="209" y="430"/>
      <point x="152" y="533" type="curve"/>
      <point x="101" y="533"/>
      <point x="141" y="512"/>
      <point x="90" y="512" type="curve"/>
      <point x="147" y="409"/>
      <point x="343" y="103"/>
      <point x="399" y="0" type="curve"/>
      <point x="454" y="0"/>
      <point x="409" y="18"/>
    </contour>
    <contour>
      <point x="399" y="533" type="curve"/>
      <point x="342" y="430"/>
      <point x="133" y="125"/>
      <point x="76" y="21" type="curve"/>
      <point x="129" y="21"/>
      <point x="87" y="0"/>
      <point x="139" y="0" type="curve"/>
      <point x="196" y="103"/>
      <point x="405" y="412"/>
      <point x="462" y="515" type="curve"/>
      <point x="410" y="515"/>
      <point x="451" y="533"/>
    </contour>
  </outline>
</glyph>
<glyph name="braceleft" format="1">
  <advance width="250"/>
  <unicode hex="007B"/>
  <outline>
    <contour>
      <point x="204" y="-58" type="curve"/>
      <point x="157" y="-58"/>
      <point x="154" y="-11"/>
      <point x="154" y="43" type="curve"/>
      <point x="154" y="98"/>
      <point x="154" y="154"/>
      <point x="154" y="210" type="curve"/>
      <point x="154" y="300"/>
      <point x="119" y="371"/>
      <point x="37" y="371" type="curve"/>
      <point x="37" y="309"/>
      <point x="37" y="371"/>
      <point x="37" y="309" type="curve"/>
      <point x="80" y="309"/>
      <point x="86" y="265"/>
      <point x="86" y="216" type="curve"/>
      <point x="86" y="159"/>
      <point x="86" y="102"/>
      <point x="86" y="46" type="curve"/>
      <point x="86" y="-47"/>
      <point x="120" y="-117"/>
      <point x="204" y="-117" type="curve"/>
      <point x="204" y="-58"/>
      <point x="204" y="-117"/>
    </contour>
    <contour>
      <point x="204" y="796" type="curve"/>
      <point x="120" y="796"/>
      <point x="86" y="727"/>
      <point x="86" y="635" type="curve"/>
      <point x="86" y="577"/>
      <point x="86" y="519"/>
      <point x="86" y="461" type="curve"/>
      <point x="86" y="412"/>
      <point x="79" y="371"/>
      <point x="37" y="371" type="curve"/>
      <point x="37" y="309"/>
      <point x="37" y="371"/>
      <point x="37" y="309" type="curve"/>
      <point x="120" y="309"/>
      <point x="154" y="378"/>
      <point x="154" y="470" type="curve"/>
      <point x="154" y="525"/>
      <point x="154" y="580"/>
      <point x="154" y="635" type="curve"/>
      <point x="154" y="689"/>
      <point x="156" y="736"/>
      <point x="204" y="736" type="curve"/>
      <point x="204" y="796"/>
      <point x="204" y="736"/>
    </contour>
  </outline>
</glyph>
<glyph name="bar" format="1">
  <advance width="226"/>
  <unicode hex="007C"/>
  <outline>
    <contour>
      <point x="150" y="-300" type="curve"/>
      <point x="150" y="67"/>
      <point x="150" y="433"/>
      <point x="150" y="800" type="curve"/>
      <point x="76" y="800"/>
      <point x="150" y="800"/>
      <point x="76" y="800" type="curve"/>
      <point x="76" y="433"/>
      <point x="76" y="67"/>
      <point x="76" y="-300" type="curve"/>
      <point x="150" y="-300"/>
      <point x="76" y="-300"/>
    </contour>
  </outline>
</glyph>
<glyph name="exclamdown" format="1">
  <advance width="235"/>
  <unicode hex="00A1"/>
  <outline>
    <contour>
      <point x="81" y="298" type="line"/>
      <point x="74" y="-195" type="line"/>
      <point x="161" y="-196" type="line"/>
      <point x="156" y="297" type="line"/>
    </contour>
    <contour>
      <point x="77" y="494" type="curve"/>
      <point x="77" y="467"/>
      <point x="94" y="453"/>
      <point x="119" y="453" type="curve"/>
      <point x="143" y="453"/>
      <point x="160" y="468"/>
      <point x="160" y="493" type="curve"/>
      <point x="77" y="494"/>
      <point x="160" y="493"/>
      <point x="77" y="494" type="curve"/>
      <point x="77" y="520"/>
      <point x="94" y="533"/>
      <point x="119" y="533" type="curve"/>
      <point x="144" y="533"/>
      <point x="160" y="519"/>
      <point x="160" y="493" type="curve"/>
      <point x="77" y="494"/>
      <point x="160" y="493"/>
    </contour>
  </outline>
</glyph>
<glyph name="yen" format="1">
  <advance width="617"/>
  <unicode hex="00A5"/>
  <outline>
    <contour>
      <point x="467" y="392" type="curve"/>
      <point x="416" y="392"/>
      <point x="365" y="392"/>
      <point x="315" y="392" type="curve"/>
      <point x="315" y="326"/>
      <point x="315" y="392"/>
      <point x="315" y="326" type="curve"/>
      <point x="365" y="326"/>
      <point x="416" y="326"/>
      <point x="467" y="326" type="curve"/>
      <point x="467" y="392"/>
      <point x="467" y="326"/>
    </contour>
    <contour>
      <point x="294" y="392" type="curve"/>
      <point x="244" y="392"/>
      <point x="194" y="392"/>
      <point x="145" y="392" type="curve"/>
      <point x="145" y="326"/>
      <point x="145" y="392"/>
      <point x="145" y="326" type="curve"/>
      <point x="194" y="326"/>
      <point x="244" y="326"/>
      <point x="294" y="326" type="curve"/>
      <point x="294" y="392"/>
      <point x="294" y="326"/>
    </contour>
    <contour>
      <point x="467" y="262" type="curve"/>
      <point x="359" y="262"/>
      <point x="252" y="262"/>
      <point x="145" y="262" type="curve"/>
      <point x="145" y="197"/>
      <point x="145" y="262"/>
      <point x="145" y="197" type="curve"/>
      <point x="252" y="197"/>
      <point x="359" y="197"/>
      <point x="467" y="197" type="curve"/>
      <point x="467" y="262"/>
      <point x="467" y="197"/>
    </contour>
    <contour>
      <point x="302" y="59" type="curve"/>
      <point x="174" y="59"/>
      <point x="307" y="59"/>
      <point x="180" y="59" type="curve"/>
      <point x="180" y="0"/>
      <point x="180" y="59"/>
      <point x="180" y="0" type="curve"/>
      <point x="222" y="0"/>
      <point x="260" y="0"/>
      <point x="302" y="0" type="curve"/>
      <point x="302" y="59"/>
      <point x="302" y="0"/>
    </contour>
    <contour>
      <point x="302" y="0" type="curve"/>
      <point x="345" y="0"/>
      <point x="383" y="0"/>
      <point x="425" y="0" type="curve"/>
      <point x="425" y="59"/>
      <point x="425" y="0"/>
      <point x="425" y="59" type="curve"/>
      <point x="297" y="59"/>
      <point x="430" y="59"/>
      <point x="302" y="59" type="curve"/>
      <point x="302" y="0"/>
      <point x="302" y="59"/>
    </contour>
    <contour>
      <point x="464" y="722" type="curve"/>
      <point x="423" y="722"/>
      <point x="386" y="722"/>
      <point x="346" y="722" type="curve"/>
      <point x="346" y="663"/>
      <point x="346" y="722"/>
      <point x="346" y="663" type="curve"/>
      <point x="469" y="663"/>
      <point x="340" y="663"/>
      <point x="464" y="663" type="curve"/>
      <point x="464" y="722"/>
      <point x="464" y="663"/>
    </contour>
    <contour>
      <point x="142" y="722" type="curve"/>
      <point x="104" y="722"/>
      <point x="72" y="722"/>
      <point x="35" y="722" type="curve"/>
      <point x="34" y="663"/>
      <point x="35" y="722"/>
      <point x="34" y="663" type="curve"/>
      <point x="147" y="663"/>
      <point x="29" y="663"/>
      <point x="142" y="663" type="curve"/>
      <point x="142" y="722"/>
      <point x="142" y="663"/>
    </contour>
    <contour>
      <point x="150" y="663" type="curve"/>
      <point x="273" y="663"/>
      <point x="145" y="663"/>
      <point x="268" y="663" type="curve"/>
      <point x="268" y="722"/>
      <point x="268" y="663"/>
      <point x="268" y="722" type="curve"/>
      <point x="227" y="722"/>
      <point x="191" y="722"/>
      <point x="150" y="722" type="curve"/>
      <point x="150" y="663"/>
      <point x="150" y="722"/>
    </contour>
    <contour>
      <point x="472" y="663" type="curve"/>
      <point x="587" y="663"/>
      <point x="467" y="663"/>
      <point x="582" y="663" type="curve"/>
      <point x="582" y="722"/>
      <point x="582" y="663"/>
      <point x="582" y="722" type="curve"/>
      <point x="544" y="722"/>
      <point x="511" y="722"/>
      <point x="472" y="722" type="curve"/>
      <point x="472" y="663"/>
      <point x="472" y="722"/>
    </contour>
    <contour>
      <point x="94" y="722" type="curve"/>
      <point x="151" y="594"/>
      <point x="206" y="467"/>
      <point x="262" y="337" type="curve"/>
      <point x="338" y="337"/>
      <point x="253" y="337"/>
      <point x="329" y="337" type="curve"/>
      <point x="276" y="467"/>
      <point x="224" y="593"/>
      <point x="171" y="722" type="curve"/>
      <point x="94" y="722"/>
      <point x="171" y="722"/>
    </contour>
    <contour>
      <point x="443" y="722" type="curve"/>
      <point x="385" y="592"/>
      <point x="330" y="467"/>
      <point x="272" y="337" type="curve"/>
      <point x="348" y="337"/>
      <point x="266" y="337"/>
      <point x="342" y="337" type="curve"/>
      <point x="402" y="466"/>
      <point x="460" y="594"/>
      <point x="519" y="722" type="curve"/>
      <point x="443" y="722"/>
      <point x="519" y="722"/>
    </contour>
    <contour>
      <point x="342" y="0" type="curve"/>
      <point x="342" y="115"/>
      <point x="342" y="227"/>
      <point x="342" y="342" type="curve"/>
      <point x="262" y="342"/>
      <point x="342" y="342"/>
      <point x="262" y="342" type="curve"/>
      <point x="262" y="227"/>
      <point x="262" y="115"/>
      <point x="262" y="0" type="curve"/>
      <point x="342" y="0"/>
      <point x="262" y="0"/>
    </contour>
  </outline>
</glyph>
<glyph name="section" format="1">
  <advance width="425"/>
  <unicode hex="00A7"/>
  <outline>
    <contour>
      <point x="333" y="704" type="curve"/>
      <point x="293" y="735"/>
      <point x="263" y="750"/>
      <point x="216" y="750" type="curve"/>
      <point x="132" y="750"/>
      <point x="84" y="695"/>
      <point x="84" y="613" type="curve"/>
      <point x="84" y="540"/>
      <point x="120" y="491"/>
      <point x="187" y="460" type="curve"/>
      <point x="243" y="434"/>
      <point x="295" y="417"/>
      <point x="295" y="361" type="curve"/>
      <point x="295" y="305"/>
      <point x="272" y="265"/>
      <point x="218" y="251" type="curve"/>
      <point x="261" y="203"/>
      <point x="218" y="251"/>
      <point x="261" y="203" type="curve"/>
      <point x="336" y="226"/>
      <point x="369" y="283"/>
      <point x="369" y="361" type="curve"/>
      <point x="368" y="446"/>
      <point x="305" y="482"/>
      <point x="224" y="516" type="curve"/>
      <point x="181" y="535"/>
      <point x="154" y="566"/>
      <point x="154" y="613" type="curve"/>
      <point x="154" y="655"/>
      <point x="172" y="691"/>
      <point x="215" y="691" type="curve"/>
      <point x="251" y="691"/>
      <point x="271" y="678"/>
      <point x="297" y="658" type="curve"/>
      <point x="333" y="704"/>
      <point x="297" y="658"/>
    </contour>
    <contour>
      <point x="164" y="519" type="curve"/>
      <point x="95" y="491"/>
      <point x="59" y="441"/>
      <point x="59" y="367" type="curve"/>
      <point x="59" y="285"/>
      <point x="112" y="242"/>
      <point x="190" y="209" type="curve"/>
      <point x="237" y="187"/>
      <point x="277" y="165"/>
      <point x="277" y="114" type="curve"/>
      <point x="277" y="67"/>
      <point x="256" y="31"/>
      <point x="214" y="31" type="curve"/>
      <point x="173" y="31"/>
      <point x="150" y="49"/>
      <point x="120" y="76" type="curve"/>
      <point x="78" y="34"/>
      <point x="120" y="76"/>
      <point x="78" y="34" type="curve"/>
      <point x="119" y="-9"/>
      <point x="157" y="-28"/>
      <point x="213" y="-28" type="curve"/>
      <point x="297" y="-28"/>
      <point x="349" y="27"/>
      <point x="349" y="114" type="curve"/>
      <point x="348" y="189"/>
      <point x="307" y="235"/>
      <point x="237" y="265" type="curve"/>
      <point x="182" y="290"/>
      <point x="133" y="311"/>
      <point x="133" y="367" type="curve"/>
      <point x="133" y="418"/>
      <point x="154" y="455"/>
      <point x="201" y="475" type="curve"/>
      <point x="164" y="519"/>
      <point x="201" y="475"/>
    </contour>
    <contour>
      <point x="138" y="34" type="curve"/>
      <point x="138" y="154"/>
      <point x="138" y="32"/>
      <point x="138" y="152" type="curve"/>
      <point x="78" y="152"/>
      <point x="138" y="152"/>
      <point x="78" y="152" type="curve"/>
      <point x="78" y="32"/>
      <point x="78" y="154"/>
      <point x="78" y="34" type="curve"/>
      <point x="138" y="34"/>
      <point x="78" y="34"/>
    </contour>
    <contour>
      <point x="333" y="586" type="curve"/>
      <point x="333" y="706"/>
      <point x="333" y="584"/>
      <point x="333" y="704" type="curve"/>
      <point x="273" y="704"/>
      <point x="333" y="704"/>
      <point x="273" y="704" type="curve"/>
      <point x="273" y="584"/>
      <point x="273" y="706"/>
      <point x="273" y="586" type="curve"/>
      <point x="333" y="586"/>
      <point x="273" y="586"/>
    </contour>
  </outline>
</glyph>
<glyph name="dieresis" format="1">
  <advance width="347"/>
  <unicode hex="00A8"/>
  <outline>
    <contour>
      <point x="123" y="669" type="curve"/>
      <point x="123" y="696"/>
      <point x="105" y="710"/>
      <point x="81" y="710" type="curve"/>
      <point x="56" y="710"/>
      <point x="40" y="695"/>
      <point x="40" y="669" type="curve"/>
      <point x="123" y="669"/>
      <point x="40" y="669"/>
      <point x="123" y="669" type="curve"/>
      <point x="123" y="642"/>
      <point x="106" y="630"/>
      <point x="81" y="630" type="curve"/>
      <point x="55" y="630"/>
      <point x="40" y="643"/>
      <point x="40" y="669" type="curve"/>
      <point x="123" y="669"/>
      <point x="40" y="669"/>
    </contour>
    <contour>
      <point x="255" y="669" type="curve"/>
      <point x="255" y="696"/>
      <point x="238" y="710"/>
      <point x="213" y="710" type="curve"/>
      <point x="189" y="710"/>
      <point x="173" y="695"/>
      <point x="173" y="669" type="curve"/>
      <point x="255" y="669"/>
      <point x="173" y="669"/>
      <point x="255" y="669" type="curve"/>
      <point x="255" y="642"/>
      <point x="238" y="630"/>
      <point x="213" y="630" type="curve"/>
      <point x="188" y="630"/>
      <point x="173" y="643"/>
      <point x="173" y="669" type="curve"/>
      <point x="255" y="669"/>
      <point x="173" y="669"/>
    </contour>
    <contour>
      <point x="148" y="634" type="move" name="_top"/>
    </contour>
  </outline>
</glyph>
<glyph name="copyright" format="1">
  <advance width="615"/>
  <unicode hex="00A9"/>
  <outline>
    <contour>
      <point x="120" y="321" type="curve"/>
      <point x="120" y="470"/>
      <point x="177" y="596"/>
      <point x="311" y="596" type="curve"/>
      <point x="442" y="596"/>
      <point x="497" y="469"/>
      <point x="497" y="320" type="curve"/>
      <point x="497" y="175"/>
      <point x="444" y="49"/>
      <point x="316" y="49" type="curve"/>
      <point x="184" y="49"/>
      <point x="120" y="173"/>
      <point x="120" y="321" type="curve"/>
      <point x="57" y="321"/>
      <point x="121" y="321"/>
      <point x="59" y="321" type="curve"/>
      <point x="59" y="143"/>
      <point x="147" y="0"/>
      <point x="313" y="0" type="curve"/>
      <point x="476" y="0"/>
      <point x="557" y="145"/>
      <point x="557" y="322" type="curve"/>
      <point x="557" y="500"/>
      <point x="474" y="646"/>
      <point x="311" y="646" type="curve"/>
      <point x="145" y="646"/>
      <point x="59" y="501"/>
      <point x="59" y="321" type="curve"/>
      <point x="121" y="321"/>
      <point x="57" y="321"/>
    </contour>
    <contour>
      <point x="360" y="437" type="curve"/>
      <point x="360" y="420"/>
      <point x="360" y="396"/>
      <point x="360" y="376" type="curve"/>
      <point x="416" y="376"/>
      <point x="360" y="376"/>
      <point x="416" y="376" type="curve"/>
      <point x="416" y="405"/>
      <point x="416" y="438"/>
      <point x="416" y="463" type="curve"/>
      <point x="360" y="437"/>
      <point x="416" y="463"/>
    </contour>
    <contour>
      <point x="416" y="463" type="curve"/>
      <point x="388" y="492"/>
      <point x="357" y="503"/>
      <point x="316" y="503" type="curve"/>
      <point x="219" y="503"/>
      <point x="178" y="425"/>
      <point x="178" y="321" type="curve"/>
      <point x="178" y="219"/>
      <point x="213" y="143"/>
      <point x="305" y="143" type="curve"/>
      <point x="353" y="143"/>
      <point x="386" y="155"/>
      <point x="419" y="198" type="curve"/>
      <point x="380" y="228"/>
      <point x="419" y="198"/>
      <point x="380" y="228" type="curve"/>
      <point x="359" y="206"/>
      <point x="339" y="193"/>
      <point x="308" y="193" type="curve"/>
      <point x="247" y="193"/>
      <point x="237" y="253"/>
      <point x="237" y="323" type="curve"/>
      <point x="237" y="394"/>
      <point x="251" y="453"/>
      <point x="313" y="453" type="curve"/>
      <point x="334" y="453"/>
      <point x="347" y="448"/>
      <point x="360" y="437" type="curve"/>
      <point x="416" y="463"/>
      <point x="360" y="437"/>
    </contour>
  </outline>
</glyph>
<glyph name="ordfeminine" format="1">
  <advance width="377"/>
  <unicode hex="00AA"/>
  <outline>
    <contour>
      <point x="79" y="719" type="curve"/>
      <point x="79" y="677"/>
      <point x="79" y="700"/>
      <point x="79" y="658" type="curve"/>
      <point x="114" y="658"/>
      <point x="86" y="658"/>
      <point x="121" y="658" type="curve"/>
      <point x="121" y="700"/>
      <point x="121" y="677"/>
      <point x="121" y="719" type="curve"/>
      <point x="86" y="719"/>
      <point x="114" y="719"/>
    </contour>
    <contour>
      <point x="278" y="427" type="curve"/>
      <point x="278" y="515"/>
      <point x="278" y="586"/>
      <point x="278" y="674" type="curve"/>
      <point x="278" y="735"/>
      <point x="238" y="766"/>
      <point x="178" y="766" type="curve"/>
      <point x="133" y="766"/>
      <point x="104" y="748"/>
      <point x="79" y="719" type="curve"/>
      <point x="96" y="691"/>
      <point x="84" y="713"/>
      <point x="102" y="684" type="curve"/>
      <point x="118" y="703"/>
      <point x="137" y="724"/>
      <point x="171" y="724" type="curve"/>
      <point x="206" y="724"/>
      <point x="226" y="701"/>
      <point x="226" y="665" type="curve"/>
      <point x="226" y="580"/>
      <point x="226" y="512"/>
      <point x="226" y="427" type="curve"/>
      <point x="270" y="427"/>
      <point x="234" y="427"/>
    </contour>
    <contour>
      <point x="253" y="427" type="curve"/>
      <point x="274" y="427"/>
      <point x="291" y="427"/>
      <point x="312" y="427" type="curve"/>
      <point x="312" y="462"/>
      <point x="312" y="436"/>
      <point x="312" y="470" type="curve"/>
      <point x="269" y="470"/>
      <point x="297" y="470"/>
      <point x="253" y="470" type="curve"/>
      <point x="253" y="436"/>
      <point x="253" y="462"/>
    </contour>
    <contour>
      <point x="251" y="639" type="curve"/>
      <point x="217" y="634"/>
      <point x="195" y="631"/>
      <point x="162" y="625" type="curve"/>
      <point x="103" y="614"/>
      <point x="64" y="584"/>
      <point x="64" y="524" type="curve"/>
      <point x="64" y="464"/>
      <point x="96" y="426"/>
      <point x="156" y="426" type="curve"/>
      <point x="212" y="426"/>
      <point x="236" y="469"/>
      <point x="265" y="514" type="curve"/>
      <point x="243" y="533"/>
      <point x="260" y="519"/>
      <point x="239" y="538" type="curve"/>
      <point x="221" y="500"/>
      <point x="206" y="468"/>
      <point x="168" y="468" type="curve"/>
      <point x="132" y="468"/>
      <point x="115" y="492"/>
      <point x="115" y="527" type="curve"/>
      <point x="115" y="559"/>
      <point x="134" y="581"/>
      <point x="162" y="587" type="curve"/>
      <point x="198" y="593"/>
      <point x="218" y="597"/>
      <point x="253" y="603" type="curve"/>
      <point x="251" y="632"/>
      <point x="252" y="610"/>
    </contour>
  </outline>
</glyph>
<glyph name="logicalnot" format="1">
  <advance width="581"/>
  <unicode hex="00AC"/>
  <outline>
    <contour>
      <point x="92" y="279" type="curve"/>
      <point x="503" y="279" type="line"/>
      <point x="503" y="344"/>
      <point x="503" y="279"/>
      <point x="503" y="344" type="curve"/>
      <point x="92" y="344" type="line"/>
      <point x="92" y="279"/>
      <point x="92" y="344"/>
    </contour>
    <contour>
      <point x="503" y="147" type="curve"/>
      <point x="503" y="344" type="line"/>
      <point x="429" y="344"/>
      <point x="503" y="344"/>
      <point x="429" y="344" type="curve"/>
      <point x="429" y="147" type="line"/>
      <point x="503" y="147"/>
      <point x="429" y="147"/>
    </contour>
  </outline>
</glyph>
<glyph name="macron" format="1">
  <advance width="266"/>
  <unicode hex="00AF"/>
  <outline>
    <contour>
      <point x="188" y="682" type="curve"/>
      <point x="135" y="682"/>
      <point x="80" y="682"/>
      <point x="26" y="682" type="curve"/>
      <point x="26" y="624"/>
      <point x="26" y="682"/>
      <point x="26" y="624" type="curve"/>
      <point x="80" y="624"/>
      <point x="135" y="624"/>
      <point x="188" y="624" type="curve"/>
      <point x="188" y="682"/>
      <point x="188" y="624"/>
    </contour>
    <contour>
      <point x="108" y="624" type="move" name="_top"/>
    </contour>
  </outline>
</glyph>
<glyph name="degree" format="1">
  <advance width="401"/>
  <unicode hex="00B0"/>
  <outline>
    <contour>
      <point x="339" y="512" type="curve"/>
      <point x="339" y="621"/>
      <point x="299" y="703"/>
      <point x="200" y="703" type="curve"/>
      <point x="101" y="703"/>
      <point x="63" y="621"/>
      <point x="63" y="514" type="curve"/>
      <point x="94" y="514"/>
      <point x="93" y="514"/>
      <point x="124" y="514" type="curve"/>
      <point x="124" y="586"/>
      <point x="135" y="649"/>
      <point x="198" y="649" type="curve"/>
      <point x="262" y="649"/>
      <point x="275" y="586"/>
      <point x="275" y="512" type="curve"/>
      <point x="275" y="437"/>
      <point x="265" y="372"/>
      <point x="201" y="372" type="curve"/>
      <point x="135" y="372"/>
      <point x="124" y="438"/>
      <point x="124" y="514" type="curve"/>
      <point x="93" y="514"/>
      <point x="94" y="514"/>
      <point x="63" y="514" type="curve"/>
      <point x="63" y="403"/>
      <point x="99" y="318"/>
      <point x="200" y="318" type="curve"/>
      <point x="301" y="318"/>
      <point x="339" y="402"/>
    </contour>
  </outline>
</glyph>
<glyph name="plusminus" format="1">
  <advance width="628"/>
  <unicode hex="00B1"/>
  <outline>
    <contour>
      <point x="65" y="34" type="line"/>
      <point x="563" y="34" type="line"/>
      <point x="563" y="99" type="line"/>
      <point x="65" y="99" type="line"/>
    </contour>
    <contour>
      <point x="65" y="279" type="curve"/>
      <point x="563" y="279" type="line"/>
      <point x="563" y="344"/>
      <point x="563" y="279"/>
      <point x="563" y="344" type="curve"/>
      <point x="65" y="344" type="line"/>
      <point x="65" y="279"/>
      <point x="65" y="344"/>
    </contour>
    <contour>
      <point x="349" y="35" type="curve"/>
      <point x="349" y="584" type="line"/>
      <point x="275" y="584"/>
      <point x="353" y="584"/>
      <point x="279" y="584" type="curve"/>
      <point x="279" y="35" type="line"/>
      <point x="353" y="35"/>
      <point x="275" y="35"/>
    </contour>
  </outline>
</glyph>
<glyph name="twosuperior" format="1">
  <advance width="398"/>
  <unicode hex="00B2"/>
  <outline>
    <contour>
      <point x="329" y="330" type="curve"/>
      <point x="329" y="371"/>
      <point x="329" y="394"/>
      <point x="329" y="436" type="curve"/>
      <point x="272" y="436"/>
      <point x="337" y="436"/>
      <point x="281" y="436" type="curve"/>
      <point x="281" y="411"/>
      <point x="281" y="404"/>
      <point x="281" y="380" type="curve"/>
      <point x="337" y="330"/>
      <point x="272" y="380"/>
    </contour>
    <contour>
      <point x="70" y="330" type="curve"/>
      <point x="155" y="330"/>
      <point x="250" y="330"/>
      <point x="329" y="330" type="curve"/>
      <point x="272" y="380"/>
      <point x="337" y="330"/>
      <point x="281" y="380" type="curve"/>
      <point x="213" y="380"/>
      <point x="138" y="380"/>
      <point x="70" y="380" type="curve"/>
      <point x="70" y="330"/>
      <point x="70" y="380"/>
    </contour>
    <contour>
      <point x="136" y="636" type="curve"/>
      <point x="149" y="672"/>
      <point x="163" y="702"/>
      <point x="200" y="702" type="curve"/>
      <point x="240" y="702"/>
      <point x="257" y="667"/>
      <point x="257" y="623" type="curve"/>
      <point x="257" y="580"/>
      <point x="235" y="554"/>
      <point x="207" y="522" type="curve"/>
      <point x="162" y="474"/>
      <point x="116" y="427"/>
      <point x="70" y="380" type="curve"/>
      <point x="77" y="330"/>
      <point x="70" y="380"/>
      <point x="77" y="330" type="curve"/>
      <point x="132" y="381"/>
      <point x="198" y="431"/>
      <point x="247" y="482" type="curve"/>
      <point x="286" y="528"/>
      <point x="316" y="564"/>
      <point x="316" y="625" type="curve"/>
      <point x="316" y="700"/>
      <point x="275" y="752"/>
      <point x="203" y="752" type="curve"/>
      <point x="145" y="752"/>
      <point x="109" y="721"/>
      <point x="90" y="654" type="curve"/>
      <point x="136" y="636"/>
      <point x="90" y="654"/>
    </contour>
    <contour>
      <point x="213" y="752" type="move" name="_top"/>
    </contour>
    <contour>
      <point x="192" y="329" type="move" name="_bottom"/>
    </contour>
  </outline>
</glyph>
<glyph name="threesuperior" format="1">
  <advance width="361"/>
  <unicode hex="00B3"/>
  <outline>
    <contour>
      <point x="109" y="663" type="curve"/>
      <point x="123" y="682"/>
      <point x="139" y="700"/>
      <point x="164" y="700" type="curve"/>
      <point x="202" y="700"/>
      <point x="222" y="673"/>
      <point x="222" y="632" type="curve"/>
      <point x="222" y="589"/>
      <point x="182" y="566"/>
      <point x="134" y="562" type="curve"/>
      <point x="134" y="519"/>
      <point x="134" y="562"/>
      <point x="134" y="519" type="curve"/>
      <point x="218" y="522"/>
      <point x="283" y="559"/>
      <point x="283" y="637" type="curve"/>
      <point x="283" y="707"/>
      <point x="241" y="750"/>
      <point x="170" y="750" type="curve"/>
      <point x="129" y="750"/>
      <point x="93" y="727"/>
      <point x="71" y="694" type="curve"/>
      <point x="109" y="663"/>
      <point x="71" y="694"/>
    </contour>
    <contour>
      <point x="68" y="358" type="curve"/>
      <point x="95" y="337"/>
      <point x="124" y="324"/>
      <point x="158" y="324" type="curve"/>
      <point x="241" y="321"/>
      <point x="295" y="365"/>
      <point x="295" y="445" type="curve"/>
      <point x="295" y="524"/>
      <point x="222" y="551"/>
      <point x="134" y="554" type="curve"/>
      <point x="134" y="517"/>
      <point x="134" y="554"/>
      <point x="134" y="517" type="curve"/>
      <point x="190" y="513"/>
      <point x="233" y="489"/>
      <point x="233" y="443" type="curve"/>
      <point x="232" y="400"/>
      <point x="207" y="371"/>
      <point x="164" y="373" type="curve"/>
      <point x="140" y="373"/>
      <point x="118" y="381"/>
      <point x="99" y="396" type="curve"/>
      <point x="68" y="358"/>
      <point x="99" y="396"/>
    </contour>
    <contour>
      <point x="187" y="750" type="move" name="_top"/>
    </contour>
    <contour>
      <point x="177" y="324" type="move" name="_bottom"/>
    </contour>
  </outline>
</glyph>
<glyph name="paragraph" format="1">
  <advance width="615"/>
  <unicode hex="00B6"/>
  <outline>
    <contour>
      <point x="339" y="663" type="curve"/>
      <point x="473" y="663"/>
      <point x="339" y="663"/>
      <point x="473" y="663" type="curve"/>
      <point x="473" y="722"/>
      <point x="473" y="663"/>
      <point x="473" y="722" type="curve"/>
      <point x="428" y="722"/>
      <point x="383" y="722"/>
      <point x="339" y="722" type="curve"/>
      <point x="339" y="663"/>
      <point x="339" y="722"/>
    </contour>
    <contour>
      <point x="339" y="0" type="curve"/>
      <point x="383" y="0"/>
      <point x="428" y="0"/>
      <point x="473" y="0" type="curve"/>
      <point x="473" y="59"/>
      <point x="473" y="0"/>
      <point x="473" y="59" type="curve"/>
      <point x="339" y="59"/>
      <point x="473" y="59"/>
      <point x="339" y="59" type="curve"/>
      <point x="339" y="0"/>
      <point x="339" y="59"/>
    </contour>
    <contour>
      <point x="339" y="59" type="curve"/>
      <point x="222" y="59"/>
      <point x="339" y="59"/>
      <point x="222" y="59" type="curve"/>
      <point x="222" y="0"/>
      <point x="222" y="59"/>
      <point x="222" y="0" type="curve"/>
      <point x="339" y="0"/>
      <point x="300" y="0"/>
      <point x="339" y="0" type="curve"/>
      <point x="339" y="59"/>
      <point x="339" y="0"/>
    </contour>
    <contour>
      <point x="326" y="364" type="curve"/>
      <point x="292" y="341"/>
      <point x="265" y="326"/>
      <point x="223" y="326" type="curve"/>
      <point x="146" y="326"/>
      <point x="115" y="397"/>
      <point x="115" y="485" type="curve"/>
      <point x="115" y="584"/>
      <point x="159" y="663"/>
      <point x="250" y="663" type="curve"/>
      <point x="279" y="663"/>
      <point x="308" y="663"/>
      <point x="336" y="663" type="curve"/>
      <point x="336" y="722"/>
      <point x="336" y="663"/>
      <point x="336" y="722" type="curve"/>
      <point x="305" y="722"/>
      <point x="273" y="722"/>
      <point x="240" y="722" type="curve"/>
      <point x="112" y="722"/>
      <point x="41" y="622"/>
      <point x="41" y="488" type="curve"/>
      <point x="41" y="356"/>
      <point x="108" y="270"/>
      <point x="229" y="268" type="curve"/>
      <point x="275" y="268"/>
      <point x="313" y="289"/>
      <point x="349" y="314" type="curve"/>
      <point x="326" y="363"/>
      <point x="349" y="316"/>
    </contour>
    <contour>
      <point x="377" y="0" type="curve"/>
      <point x="377" y="241"/>
      <point x="377" y="481"/>
      <point x="377" y="722" type="curve"/>
      <point x="303" y="722"/>
      <point x="377" y="722"/>
      <point x="303" y="722" type="curve"/>
      <point x="303" y="481"/>
      <point x="303" y="241"/>
      <point x="303" y="0" type="curve"/>
      <point x="377" y="0"/>
      <point x="303" y="0"/>
    </contour>
    <contour>
      <point x="535" y="0" type="curve"/>
      <point x="535" y="241"/>
      <point x="535" y="481"/>
      <point x="535" y="722" type="curve"/>
      <point x="461" y="722"/>
      <point x="535" y="722"/>
      <point x="461" y="722" type="curve"/>
      <point x="461" y="481"/>
      <point x="461" y="241"/>
      <point x="461" y="0" type="curve"/>
      <point x="535" y="0"/>
      <point x="461" y="0"/>
    </contour>
  </outline>
</glyph>
<glyph name="periodcentered" format="1">
  <advance width="225"/>
  <unicode hex="00B7"/>
  <outline>
    <contour>
      <point x="154" y="440" type="curve"/>
      <point x="154" y="467"/>
      <point x="136" y="480"/>
      <point x="112" y="480" type="curve"/>
      <point x="87" y="480"/>
      <point x="71" y="465"/>
      <point x="71" y="440" type="curve"/>
      <point x="154" y="440"/>
      <point x="71" y="440"/>
      <point x="154" y="440" type="curve"/>
      <point x="154" y="413"/>
      <point x="136" y="400"/>
      <point x="112" y="400" type="curve"/>
      <point x="86" y="400"/>
      <point x="71" y="414"/>
      <point x="71" y="440" type="curve"/>
      <point x="154" y="440"/>
      <point x="71" y="440"/>
    </contour>
  </outline>
</glyph>
<glyph name="cedilla" format="1">
  <advance width="313"/>
  <unicode hex="00B8"/>
  <outline>
    <contour>
      <point x="111" y="80" type="curve"/>
      <point x="100" y="55"/>
      <point x="78" y="-1"/>
      <point x="68" y="-25" type="curve"/>
      <point x="119" y="-73"/>
      <point x="68" y="-25"/>
      <point x="119" y="-73" type="curve"/>
      <point x="130" y="-45"/>
      <point x="157" y="12"/>
      <point x="167" y="39" type="curve"/>
      <point x="111" y="80"/>
      <point x="167" y="39"/>
    </contour>
    <contour>
      <point x="119" y="-73" type="curve"/>
      <point x="126" y="-66"/>
      <point x="132" y="-62"/>
      <point x="142" y="-62" type="curve"/>
      <point x="160" y="-62"/>
      <point x="166" y="-78"/>
      <point x="166" y="-100" type="curve"/>
      <point x="166" y="-124"/>
      <point x="153" y="-139"/>
      <point x="130" y="-139" type="curve"/>
      <point x="111" y="-139"/>
      <point x="97" y="-135"/>
      <point x="82" y="-123" type="curve"/>
      <point x="54" y="-167"/>
      <point x="82" y="-123"/>
      <point x="54" y="-167" type="curve"/>
      <point x="76" y="-184"/>
      <point x="97" y="-191"/>
      <point x="126" y="-191" type="curve"/>
      <point x="182" y="-191"/>
      <point x="216" y="-156"/>
      <point x="216" y="-99" type="curve"/>
      <point x="216" y="-44"/>
      <point x="188" y="-5"/>
      <point x="136" y="-5" type="curve"/>
      <point x="110" y="-5"/>
      <point x="91" y="-11"/>
      <point x="68" y="-25" type="curve"/>
      <point x="119" y="-73"/>
      <point x="68" y="-25"/>
    </contour>
    <contour>
      <point x="164" y="39" type="move" name="_bottom"/>
    </contour>
  </outline>
</glyph>
<glyph name="onesuperior" format="1">
  <advance width="323"/>
  <unicode hex="00B9"/>
  <outline>
    <contour>
      <point x="154" y="330" type="curve"/>
      <point x="193" y="330"/>
      <point x="223" y="330"/>
      <point x="262" y="330" type="curve"/>
      <point x="262" y="380"/>
      <point x="262" y="330"/>
      <point x="262" y="380" type="curve"/>
      <point x="244" y="380"/>
      <point x="234" y="380"/>
      <point x="216" y="380" type="curve"/>
      <point x="154" y="330"/>
      <point x="216" y="380"/>
    </contour>
    <contour>
      <point x="216" y="380" type="curve"/>
      <point x="177" y="380"/>
      <point x="145" y="380"/>
      <point x="105" y="380" type="curve"/>
      <point x="105" y="330"/>
      <point x="105" y="380"/>
      <point x="105" y="330" type="curve"/>
      <point x="125" y="330"/>
      <point x="134" y="330"/>
      <point x="154" y="330" type="curve"/>
      <point x="216" y="380"/>
      <point x="154" y="330"/>
    </contour>
    <contour>
      <point x="98" y="604" type="line"/>
      <point x="214" y="737" type="line"/>
      <point x="154" y="742" type="line"/>
      <point x="61" y="641" type="line"/>
    </contour>
    <contour>
      <point x="216" y="380" type="curve"/>
      <point x="216" y="742" type="line"/>
      <point x="154" y="742" type="line"/>
      <point x="154" y="330" type="line"/>
      <point x="216" y="380"/>
      <point x="154" y="330"/>
    </contour>
    <contour>
      <point x="180" y="740" type="move" name="_top"/>
    </contour>
    <contour>
      <point x="185" y="332" type="move" name="_bottom"/>
    </contour>
  </outline>
</glyph>
<glyph name="ordmasculine" format="1">
  <advance width="364"/>
  <unicode hex="00BA"/>
  <outline>
    <contour>
      <point x="111" y="601" type="curve"/>
      <point x="111" y="667"/>
      <point x="124" y="723"/>
      <point x="182" y="723" type="curve"/>
      <point x="237" y="723"/>
      <point x="250" y="666"/>
      <point x="250" y="599" type="curve"/>
      <point x="250" y="527"/>
      <point x="239" y="467"/>
      <point x="186" y="467" type="curve"/>
      <point x="122" y="467"/>
      <point x="111" y="528"/>
      <point x="111" y="601" type="curve"/>
      <point x="97" y="601"/>
      <point x="75" y="601"/>
      <point x="61" y="601" type="curve"/>
      <point x="61" y="499"/>
      <point x="94" y="423"/>
      <point x="184" y="423" type="curve"/>
      <point x="270" y="423"/>
      <point x="303" y="498"/>
      <point x="303" y="599" type="curve"/>
      <point x="303" y="695"/>
      <point x="271" y="766"/>
      <point x="184" y="766" type="curve"/>
      <point x="94" y="766"/>
      <point x="61" y="695"/>
      <point x="61" y="601" type="curve"/>
      <point x="75" y="601"/>
      <point x="97" y="601"/>
    </contour>
  </outline>
</glyph>
<glyph name="guillemotright" format="1">
  <advance width="485"/>
  <unicode hex="00BB"/>
  <outline>
    <contour>
      <point x="252" y="437" type="curve"/>
      <point x="269" y="423"/>
      <point x="406" y="332"/>
      <point x="424" y="317" type="curve"/>
      <point x="424" y="252"/>
      <point x="424" y="309"/>
      <point x="424" y="244" type="curve"/>
      <point x="406" y="259"/>
      <point x="269" y="354"/>
      <point x="252" y="368" type="curve"/>
      <point x="252" y="433"/>
      <point x="252" y="373"/>
    </contour>
    <contour>
      <point x="251" y="194" type="curve"/>
      <point x="269" y="209"/>
      <point x="406" y="303"/>
      <point x="424" y="317" type="curve"/>
      <point x="424" y="252"/>
      <point x="424" y="309"/>
      <point x="424" y="244" type="curve"/>
      <point x="406" y="229"/>
      <point x="269" y="140"/>
      <point x="251" y="126" type="curve"/>
      <point x="251" y="190"/>
      <point x="251" y="130"/>
    </contour>
    <contour>
      <point x="83" y="437" type="curve"/>
      <point x="101" y="423"/>
      <point x="237" y="332"/>
      <point x="255" y="317" type="curve"/>
      <point x="255" y="252"/>
      <point x="255" y="309"/>
      <point x="255" y="244" type="curve"/>
      <point x="237" y="259"/>
      <point x="101" y="354"/>
      <point x="83" y="368" type="curve"/>
      <point x="83" y="433"/>
      <point x="83" y="373"/>
    </contour>
    <contour>
      <point x="82" y="194" type="curve"/>
      <point x="100" y="209"/>
      <point x="237" y="303"/>
      <point x="255" y="317" type="curve"/>
      <point x="255" y="252"/>
      <point x="255" y="309"/>
      <point x="255" y="244" type="curve"/>
      <point x="237" y="229"/>
      <point x="100" y="140"/>
      <point x="82" y="126" type="curve"/>
      <point x="82" y="190"/>
      <point x="82" y="130"/>
    </contour>
  </outline>
</glyph>
<glyph name="onequarter" format="1">
  <advance width="750"/>
  <unicode hex="00BC"/>
  <outline>
    <contour>
      <point x="256" y="-69" type="line"/>
      <point x="564" y="736" type="line"/>
      <point x="493" y="736" type="line"/>
      <point x="186" y="-69" type="line"/>
    </contour>
    <contour>
      <point x="132" y="326" type="curve"/>
      <point x="170" y="326"/>
      <point x="201" y="326"/>
      <point x="240" y="326" type="curve"/>
      <point x="240" y="376"/>
      <point x="240" y="326"/>
      <point x="240" y="376" type="curve"/>
      <point x="222" y="376"/>
      <point x="212" y="376"/>
      <point x="193" y="376" type="curve"/>
      <point x="132" y="326"/>
      <point x="193" y="376"/>
    </contour>
    <contour>
      <point x="193" y="376" type="curve"/>
      <point x="155" y="376"/>
      <point x="123" y="376"/>
      <point x="83" y="376" type="curve"/>
      <point x="83" y="326"/>
      <point x="83" y="376"/>
      <point x="83" y="326" type="curve"/>
      <point x="102" y="326"/>
      <point x="112" y="326"/>
      <point x="132" y="326" type="curve"/>
      <point x="193" y="376"/>
      <point x="132" y="326"/>
    </contour>
    <contour>
      <point x="76" y="601" type="line"/>
      <point x="192" y="733" type="line"/>
      <point x="132" y="739" type="line"/>
      <point x="39" y="637" type="line"/>
    </contour>
    <contour>
      <point x="193" y="376" type="curve"/>
      <point x="193" y="739" type="line"/>
      <point x="132" y="739" type="line"/>
      <point x="132" y="326" type="line"/>
      <point x="193" y="376"/>
      <point x="132" y="326"/>
    </contour>
    <contour>
      <point x="720" y="96" type="line"/>
      <point x="426" y="96" type="line"/>
      <point x="426" y="47" type="line"/>
      <point x="720" y="47" type="line"/>
    </contour>
    <contour>
      <point x="452" y="50" type="line"/>
      <point x="633" y="353" type="line"/>
      <point x="586" y="366" type="line"/>
      <point x="426" y="96" type="line"/>
    </contour>
    <contour>
      <point x="647" y="-65" type="line"/>
      <point x="647" y="366" type="line"/>
      <point x="586" y="366" type="line"/>
      <point x="586" y="-65" type="line"/>
    </contour>
    <contour>
      <point x="616" y="-21" type="line"/>
      <point x="531" y="-21" type="line"/>
      <point x="531" y="-66" type="line"/>
      <point x="616" y="-66" type="line"/>
    </contour>
    <contour>
      <point x="616" y="-66" type="line"/>
      <point x="702" y="-66" type="line"/>
      <point x="702" y="-21" type="line"/>
      <point x="616" y="-21" type="line"/>
    </contour>
  </outline>
</glyph>
<glyph name="onehalf" format="1">
  <advance width="803"/>
  <unicode hex="00BD"/>
  <outline>
    <contour>
      <point x="279" y="-69" type="line"/>
      <point x="587" y="736" type="line"/>
      <point x="516" y="736" type="line"/>
      <point x="209" y="-69" type="line"/>
    </contour>
    <contour>
      <point x="130" y="326" type="curve"/>
      <point x="169" y="326"/>
      <point x="199" y="326"/>
      <point x="238" y="326" type="curve"/>
      <point x="238" y="376"/>
      <point x="238" y="326"/>
      <point x="238" y="376" type="curve"/>
      <point x="220" y="376"/>
      <point x="210" y="376"/>
      <point x="191" y="376" type="curve"/>
      <point x="130" y="326"/>
      <point x="191" y="376"/>
    </contour>
    <contour>
      <point x="191" y="376" type="curve"/>
      <point x="153" y="376"/>
      <point x="121" y="376"/>
      <point x="81" y="376" type="curve"/>
      <point x="81" y="326"/>
      <point x="81" y="376"/>
      <point x="81" y="326" type="curve"/>
      <point x="101" y="326"/>
      <point x="110" y="326"/>
      <point x="130" y="326" type="curve"/>
      <point x="191" y="376"/>
      <point x="130" y="326"/>
    </contour>
    <contour>
      <point x="74" y="601" type="line"/>
      <point x="190" y="733" type="line"/>
      <point x="130" y="739" type="line"/>
      <point x="37" y="637" type="line"/>
    </contour>
    <contour>
      <point x="191" y="376" type="curve"/>
      <point x="191" y="739" type="line"/>
      <point x="130" y="739" type="line"/>
      <point x="130" y="326" type="line"/>
      <point x="191" y="376"/>
      <point x="130" y="326"/>
    </contour>
    <contour>
      <point x="764" y="-66" type="curve"/>
      <point x="764" y="-25"/>
      <point x="764" y="-2"/>
      <point x="764" y="40" type="curve"/>
      <point x="708" y="40"/>
      <point x="773" y="40"/>
      <point x="716" y="40" type="curve"/>
      <point x="716" y="15"/>
      <point x="716" y="8"/>
      <point x="716" y="-16" type="curve"/>
      <point x="773" y="-66"/>
      <point x="708" y="-16"/>
    </contour>
    <contour>
      <point x="506" y="-66" type="curve"/>
      <point x="591" y="-66"/>
      <point x="686" y="-66"/>
      <point x="764" y="-66" type="curve"/>
      <point x="708" y="-16"/>
      <point x="773" y="-66"/>
      <point x="716" y="-16" type="curve"/>
      <point x="649" y="-16"/>
      <point x="573" y="-16"/>
      <point x="506" y="-16" type="curve"/>
      <point x="506" y="-66"/>
      <point x="506" y="-16"/>
    </contour>
    <contour>
      <point x="572" y="241" type="curve"/>
      <point x="584" y="276"/>
      <point x="599" y="306"/>
      <point x="636" y="306" type="curve"/>
      <point x="676" y="306"/>
      <point x="692" y="271"/>
      <point x="692" y="227" type="curve"/>
      <point x="692" y="184"/>
      <point x="671" y="159"/>
      <point x="643" y="126" type="curve"/>
      <point x="598" y="79"/>
      <point x="552" y="31"/>
      <point x="506" y="-16" type="curve"/>
      <point x="513" y="-66"/>
      <point x="506" y="-16"/>
      <point x="513" y="-66" type="curve"/>
      <point x="568" y="-15"/>
      <point x="633" y="35"/>
      <point x="683" y="87" type="curve"/>
      <point x="722" y="132"/>
      <point x="751" y="168"/>
      <point x="751" y="230" type="curve"/>
      <point x="751" y="304"/>
      <point x="710" y="356"/>
      <point x="639" y="356" type="curve"/>
      <point x="581" y="356"/>
      <point x="544" y="326"/>
      <point x="526" y="259" type="curve"/>
      <point x="572" y="241"/>
      <point x="526" y="259"/>
    </contour>
  </outline>
</glyph>
<glyph name="threequarters" format="1">
  <advance width="776"/>
  <unicode hex="00BE"/>
  <outline>
    <contour>
      <point x="285" y="-69" type="line"/>
      <point x="593" y="736" type="line"/>
      <point x="522" y="736" type="line"/>
      <point x="215" y="-69" type="line"/>
    </contour>
    <contour>
      <point x="84" y="650" type="curve"/>
      <point x="98" y="669"/>
      <point x="115" y="687"/>
      <point x="139" y="687" type="curve"/>
      <point x="177" y="687"/>
      <point x="197" y="660"/>
      <point x="197" y="619" type="curve"/>
      <point x="197" y="576"/>
      <point x="157" y="553"/>
      <point x="109" y="549" type="curve"/>
      <point x="109" y="506"/>
      <point x="109" y="549"/>
      <point x="109" y="506" type="curve"/>
      <point x="194" y="509"/>
      <point x="259" y="547"/>
      <point x="259" y="624" type="curve"/>
      <point x="259" y="694"/>
      <point x="216" y="737"/>
      <point x="146" y="737" type="curve" name=""/>
      <point x="104" y="737"/>
      <point x="68" y="714"/>
      <point x="46" y="681" type="curve"/>
      <point x="84" y="650"/>
      <point x="46" y="681"/>
    </contour>
    <contour>
      <point x="44" y="345" type="curve"/>
      <point x="70" y="324"/>
      <point x="99" y="311"/>
      <point x="134" y="311" type="curve"/>
      <point x="217" y="308"/>
      <point x="271" y="352"/>
      <point x="270" y="432" type="curve"/>
      <point x="270" y="511"/>
      <point x="197" y="538"/>
      <point x="109" y="541" type="curve"/>
      <point x="109" y="504"/>
      <point x="109" y="541"/>
      <point x="109" y="504" type="curve"/>
      <point x="166" y="500"/>
      <point x="208" y="476"/>
      <point x="208" y="430" type="curve"/>
      <point x="207" y="387"/>
      <point x="182" y="358"/>
      <point x="140" y="360" type="curve"/>
      <point x="116" y="360"/>
      <point x="94" y="368"/>
      <point x="74" y="383" type="curve"/>
      <point x="44" y="345"/>
      <point x="74" y="383"/>
    </contour>
    <contour>
      <point x="748" y="96" type="line"/>
      <point x="454" y="96" type="line"/>
      <point x="454" y="47" type="line"/>
      <point x="748" y="47" type="line"/>
    </contour>
    <contour>
      <point x="480" y="50" type="line"/>
      <point x="661" y="353" type="line"/>
      <point x="614" y="366" type="line"/>
      <point x="454" y="96" type="line"/>
    </contour>
    <contour>
      <point x="676" y="-65" type="line"/>
      <point x="676" y="366" type="line"/>
      <point x="614" y="366" type="line"/>
      <point x="614" y="-65" type="line"/>
    </contour>
    <contour>
      <point x="645" y="-21" type="line"/>
      <point x="560" y="-21" type="line"/>
      <point x="560" y="-66" type="line"/>
      <point x="645" y="-66" type="line"/>
    </contour>
    <contour>
      <point x="645" y="-66" type="line"/>
      <point x="730" y="-66" type="line"/>
      <point x="730" y="-21" type="line"/>
      <point x="645" y="-21" type="line"/>
    </contour>
  </outline>
</glyph>
<glyph name="questiondown" format="1">
  <advance width="433"/>
  <unicode hex="00BF"/>
  <outline>
    <contour>
      <point x="265" y="370" type="curve"/>
      <point x="265" y="407"/>
      <point x="265" y="466"/>
      <point x="265" y="503" type="curve"/>
      <point x="196" y="503"/>
      <point x="265" y="503"/>
      <point x="196" y="503" type="curve"/>
      <point x="196" y="466"/>
      <point x="196" y="407"/>
      <point x="196" y="370" type="curve"/>
      <point x="265" y="370"/>
      <point x="196" y="370"/>
    </contour>
    <contour>
      <point x="341" y="119" type="line"/>
      <point x="317" y="84"/>
      <point x="287" y="59"/>
      <point x="239" y="59" type="curve"/>
      <point x="161" y="59"/>
      <point x="127" y="123"/>
      <point x="127" y="205" type="curve"/>
      <point x="127" y="298"/>
      <point x="169" y="370"/>
      <point x="256" y="370" type="curve"/>
      <point x="256" y="400"/>
      <point x="256" y="398"/>
      <point x="256" y="428" type="curve"/>
      <point x="128" y="428"/>
      <point x="55" y="335"/>
      <point x="55" y="205" type="curve"/>
      <point x="55" y="83"/>
      <point x="121" y="-4"/>
      <point x="235" y="-4" type="curve"/>
      <point x="306" y="-4"/>
      <point x="351" y="27"/>
      <point x="383" y="74" type="curve"/>
    </contour>
    <contour>
      <point x="189" y="691" type="curve"/>
      <point x="189" y="664"/>
      <point x="207" y="650"/>
      <point x="231" y="650" type="curve"/>
      <point x="256" y="650"/>
      <point x="271" y="665"/>
      <point x="271" y="691" type="curve"/>
      <point x="189" y="691"/>
      <point x="271" y="691"/>
      <point x="189" y="691" type="curve"/>
      <point x="189" y="718"/>
      <point x="206" y="730"/>
      <point x="231" y="730" type="curve"/>
      <point x="256" y="730"/>
      <point x="271" y="717"/>
      <point x="271" y="691" type="curve"/>
      <point x="189" y="691"/>
      <point x="271" y="691"/>
    </contour>
  </outline>
</glyph>
<glyph name="Agrave" format="1">
  <advance width="630"/>
  <unicode hex="00C0"/>
  <outline>
    <contour>
      <point x="104" y="59" type="curve"/>
      <point x="-30" y="59"/>
      <point x="120" y="59"/>
      <point x="-15" y="59" type="curve"/>
      <point x="-15" y="0"/>
      <point x="-15" y="59"/>
      <point x="-15" y="0" type="curve"/>
      <point x="30" y="0"/>
      <point x="59" y="0"/>
      <point x="104" y="0" type="curve"/>
      <point x="104" y="59"/>
      <point x="104" y="0"/>
    </contour>
    <contour>
      <point x="104" y="0" type="curve"/>
      <point x="154" y="0"/>
      <point x="93" y="0"/>
      <point x="243" y="0" type="curve"/>
      <point x="243" y="59"/>
      <point x="243" y="0"/>
      <point x="243" y="59" type="curve"/>
      <point x="93" y="59"/>
      <point x="255" y="59"/>
      <point x="104" y="59" type="curve"/>
      <point x="104" y="0"/>
      <point x="104" y="59"/>
    </contour>
    <contour>
      <point x="498" y="0" type="curve"/>
      <point x="543" y="0"/>
      <point x="572" y="0"/>
      <point x="617" y="0" type="curve"/>
      <point x="617" y="59"/>
      <point x="617" y="0"/>
      <point x="617" y="59" type="curve"/>
      <point x="483" y="59"/>
      <point x="633" y="59"/>
      <point x="498" y="59" type="curve"/>
      <point x="498" y="0"/>
      <point x="498" y="59"/>
    </contour>
    <contour>
      <point x="498" y="59" type="curve"/>
      <point x="347" y="59"/>
      <point x="510" y="59"/>
      <point x="359" y="59" type="curve"/>
      <point x="359" y="0"/>
      <point x="359" y="59"/>
      <point x="359" y="0" type="curve"/>
      <point x="409" y="0"/>
      <point x="448" y="0"/>
      <point x="498" y="0" type="curve"/>
      <point x="498" y="59"/>
      <point x="498" y="0"/>
    </contour>
    <contour>
      <point x="424" y="284" type="curve"/>
      <point x="347" y="284"/>
      <point x="270" y="284"/>
      <point x="192" y="284" type="curve"/>
      <point x="162" y="222"/>
      <point x="192" y="284"/>
      <point x="162" y="222" type="curve"/>
      <point x="257" y="222"/>
      <point x="352" y="222"/>
      <point x="448" y="222" type="curve"/>
      <point x="424" y="284"/>
      <point x="448" y="222"/>
    </contour>
    <contour>
      <point x="545" y="0" type="curve"/>
      <point x="480" y="241"/>
      <point x="412" y="481"/>
      <point x="347" y="722" type="curve"/>
      <point x="279" y="722"/>
      <point x="347" y="722"/>
      <point x="279" y="722" type="curve"/>
      <point x="343" y="481"/>
      <point x="404" y="241"/>
      <point x="468" y="0" type="curve"/>
      <point x="545" y="0"/>
      <point x="468" y="0"/>
    </contour>
    <contour>
      <point x="136" y="0" type="curve"/>
      <point x="207" y="241"/>
      <point x="274" y="481"/>
      <point x="345" y="722" type="curve"/>
      <point x="278" y="722"/>
      <point x="345" y="722"/>
      <point x="278" y="722" type="curve"/>
      <point x="205" y="481"/>
      <point x="128" y="241"/>
      <point x="55" y="0" type="curve"/>
      <point x="136" y="0"/>
      <point x="55" y="0"/>
    </contour>
    <contour>
      <point x="347" y="807" type="line"/>
      <point x="274" y="973" type="line"/>
      <point x="182" y="973" type="line"/>
      <point x="277" y="807" type="line"/>
    </contour>
  </outline>
</glyph>
<glyph name="Acircumflex" format="1">
  <advance width="630"/>
  <unicode hex="00C2"/>
  <outline>
    <contour>
      <point x="104" y="59" type="curve"/>
      <point x="-30" y="59"/>
      <point x="120" y="59"/>
      <point x="-15" y="59" type="curve"/>
      <point x="-15" y="0"/>
      <point x="-15" y="59"/>
      <point x="-15" y="0" type="curve"/>
      <point x="30" y="0"/>
      <point x="59" y="0"/>
      <point x="104" y="0" type="curve"/>
      <point x="104" y="59"/>
      <point x="104" y="0"/>
    </contour>
    <contour>
      <point x="104" y="0" type="curve"/>
      <point x="154" y="0"/>
      <point x="92" y="0"/>
      <point x="243" y="0" type="curve"/>
      <point x="243" y="59"/>
      <point x="243" y="0"/>
      <point x="243" y="59" type="curve"/>
      <point x="92" y="59"/>
      <point x="254" y="59"/>
      <point x="104" y="59" type="curve"/>
      <point x="104" y="0"/>
      <point x="104" y="59"/>
    </contour>
    <contour>
      <point x="498" y="0" type="curve"/>
      <point x="543" y="0"/>
      <point x="572" y="0"/>
      <point x="617" y="0" type="curve"/>
      <point x="617" y="59"/>
      <point x="617" y="0"/>
      <point x="617" y="59" type="curve"/>
      <point x="483" y="59"/>
      <point x="632" y="59"/>
      <point x="498" y="59" type="curve"/>
      <point x="498" y="0"/>
      <point x="498" y="59"/>
    </contour>
    <contour>
      <point x="498" y="59" type="curve"/>
      <point x="347" y="59"/>
      <point x="510" y="59"/>
      <point x="359" y="59" type="curve"/>
      <point x="359" y="0"/>
      <point x="359" y="59"/>
      <point x="359" y="0" type="curve"/>
      <point x="409" y="0"/>
      <point x="448" y="0"/>
      <point x="498" y="0" type="curve"/>
      <point x="498" y="59"/>
      <point x="498" y="0"/>
    </contour>
    <contour>
      <point x="424" y="284" type="curve"/>
      <point x="346" y="284"/>
      <point x="269" y="284"/>
      <point x="192" y="284" type="curve"/>
      <point x="162" y="222"/>
      <point x="192" y="284"/>
      <point x="162" y="222" type="curve"/>
      <point x="257" y="222"/>
      <point x="352" y="222"/>
      <point x="448" y="222" type="curve"/>
      <point x="424" y="284"/>
      <point x="448" y="222"/>
    </contour>
    <contour>
      <point x="545" y="0" type="curve"/>
      <point x="480" y="241"/>
      <point x="412" y="481"/>
      <point x="347" y="722" type="curve"/>
      <point x="279" y="722"/>
      <point x="347" y="722"/>
      <point x="279" y="722" type="curve"/>
      <point x="343" y="481"/>
      <point x="404" y="241"/>
      <point x="468" y="0" type="curve"/>
      <point x="545" y="0"/>
      <point x="468" y="0"/>
    </contour>
    <contour>
      <point x="136" y="0" type="curve"/>
      <point x="207" y="241"/>
      <point x="273" y="481"/>
      <point x="345" y="722" type="curve"/>
      <point x="278" y="722"/>
      <point x="345" y="722"/>
      <point x="278" y="722" type="curve"/>
      <point x="205" y="481"/>
      <point x="127" y="241"/>
      <point x="55" y="0" type="curve"/>
      <point x="136" y="0"/>
      <point x="55" y="0"/>
    </contour>
    <contour>
      <point x="247" y="806" type="line"/>
      <point x="342" y="972" type="line"/>
      <point x="250" y="972" type="line"/>
      <point x="177" y="806" type="line"/>
    </contour>
    <contour>
      <point x="444" y="806" type="line"/>
      <point x="371" y="972" type="line"/>
      <point x="279" y="972" type="line"/>
      <point x="373" y="806" type="line"/>
    </contour>
  </outline>
</glyph>
<glyph name="Atilde" format="1">
  <advance width="630"/>
  <unicode hex="00C3"/>
  <outline>
    <contour>
      <point x="104" y="59" type="curve"/>
      <point x="-30" y="59"/>
      <point x="120" y="59"/>
      <point x="-15" y="59" type="curve"/>
      <point x="-15" y="0"/>
      <point x="-15" y="59"/>
      <point x="-15" y="0" type="curve"/>
      <point x="30" y="0"/>
      <point x="59" y="0"/>
      <point x="104" y="0" type="curve"/>
      <point x="104" y="59"/>
      <point x="104" y="0"/>
    </contour>
    <contour>
      <point x="104" y="0" type="curve"/>
      <point x="154" y="0"/>
      <point x="93" y="0"/>
      <point x="243" y="0" type="curve"/>
      <point x="243" y="59"/>
      <point x="243" y="0"/>
      <point x="243" y="59" type="curve"/>
      <point x="93" y="59"/>
      <point x="255" y="59"/>
      <point x="104" y="59" type="curve"/>
      <point x="104" y="0"/>
      <point x="104" y="59"/>
    </contour>
    <contour>
      <point x="498" y="0" type="curve"/>
      <point x="543" y="0"/>
      <point x="572" y="0"/>
      <point x="617" y="0" type="curve"/>
      <point x="617" y="59"/>
      <point x="617" y="0"/>
      <point x="617" y="59" type="curve"/>
      <point x="483" y="59"/>
      <point x="633" y="59"/>
      <point x="498" y="59" type="curve"/>
      <point x="498" y="0"/>
      <point x="498" y="59"/>
    </contour>
    <contour>
      <point x="498" y="59" type="curve"/>
      <point x="347" y="59"/>
      <point x="510" y="59"/>
      <point x="359" y="59" type="curve"/>
      <point x="359" y="0"/>
      <point x="359" y="59"/>
      <point x="359" y="0" type="curve"/>
      <point x="409" y="0"/>
      <point x="448" y="0"/>
      <point x="498" y="0" type="curve"/>
      <point x="498" y="59"/>
      <point x="498" y="0"/>
    </contour>
    <contour>
      <point x="424" y="284" type="curve"/>
      <point x="347" y="284"/>
      <point x="270" y="284"/>
      <point x="192" y="284" type="curve"/>
      <point x="162" y="222"/>
      <point x="192" y="284"/>
      <point x="162" y="222" type="curve"/>
      <point x="257" y="222"/>
      <point x="352" y="222"/>
      <point x="448" y="222" type="curve"/>
      <point x="424" y="284"/>
      <point x="448" y="222"/>
    </contour>
    <contour>
      <point x="545" y="0" type="curve"/>
      <point x="480" y="241"/>
      <point x="412" y="481"/>
      <point x="347" y="722" type="curve"/>
      <point x="279" y="722"/>
      <point x="347" y="722"/>
      <point x="279" y="722" type="curve"/>
      <point x="343" y="481"/>
      <point x="404" y="241"/>
      <point x="468" y="0" type="curve"/>
      <point x="545" y="0"/>
      <point x="468" y="0"/>
    </contour>
    <contour>
      <point x="136" y="0" type="curve"/>
      <point x="207" y="241"/>
      <point x="274" y="481"/>
      <point x="345" y="722" type="curve"/>
      <point x="278" y="722"/>
      <point x="345" y="722"/>
      <point x="278" y="722" type="curve"/>
      <point x="205" y="481"/>
      <point x="128" y="241"/>
      <point x="55" y="0" type="curve"/>
      <point x="136" y="0"/>
      <point x="55" y="0"/>
    </contour>
    <contour>
      <point x="418" y="959" type="curve"/>
      <point x="406" y="915"/>
      <point x="398" y="882"/>
      <point x="372" y="882" type="curve"/>
      <point x="344" y="882"/>
      <point x="332" y="897"/>
      <point x="315" y="919" type="curve"/>
      <point x="293" y="944"/>
      <point x="279" y="962"/>
      <point x="246" y="962" type="curve"/>
      <point x="184" y="962"/>
      <point x="164" y="901"/>
      <point x="150" y="837" type="curve"/>
      <point x="206" y="808"/>
      <point x="150" y="838"/>
      <point x="206" y="808" type="curve"/>
      <point x="219" y="856"/>
      <point x="228" y="887"/>
      <point x="260" y="887" type="curve"/>
      <point x="285" y="887"/>
      <point x="294" y="871"/>
      <point x="308" y="852" type="curve"/>
      <point x="332" y="824"/>
      <point x="349" y="805"/>
      <point x="386" y="805" type="curve"/>
      <point x="448" y="805"/>
      <point x="460" y="867"/>
      <point x="478" y="932" type="curve"/>
      <point x="418" y="959"/>
      <point x="478" y="931"/>
    </contour>
  </outline>
</glyph>
<glyph name="Aring" format="1">
  <advance width="630"/>
  <unicode hex="00C5"/>
  <outline>
    <contour>
      <point x="104" y="59" type="curve"/>
      <point x="-30" y="59"/>
      <point x="120" y="59"/>
      <point x="-15" y="59" type="curve"/>
      <point x="-15" y="0"/>
      <point x="-15" y="59"/>
      <point x="-15" y="0" type="curve"/>
      <point x="30" y="0"/>
      <point x="59" y="0"/>
      <point x="104" y="0" type="curve"/>
      <point x="104" y="59"/>
      <point x="104" y="0"/>
    </contour>
    <contour>
      <point x="104" y="0" type="curve"/>
      <point x="154" y="0"/>
      <point x="93" y="0"/>
      <point x="243" y="0" type="curve"/>
      <point x="243" y="59"/>
      <point x="243" y="0"/>
      <point x="243" y="59" type="curve"/>
      <point x="93" y="59"/>
      <point x="255" y="59"/>
      <point x="104" y="59" type="curve"/>
      <point x="104" y="0"/>
      <point x="104" y="59"/>
    </contour>
    <contour>
      <point x="498" y="0" type="curve"/>
      <point x="543" y="0"/>
      <point x="572" y="0"/>
      <point x="617" y="0" type="curve"/>
      <point x="617" y="59"/>
      <point x="617" y="0"/>
      <point x="617" y="59" type="curve"/>
      <point x="483" y="59"/>
      <point x="633" y="59"/>
      <point x="498" y="59" type="curve"/>
      <point x="498" y="0"/>
      <point x="498" y="59"/>
    </contour>
    <contour>
      <point x="498" y="59" type="curve"/>
      <point x="347" y="59"/>
      <point x="510" y="59"/>
      <point x="359" y="59" type="curve"/>
      <point x="359" y="0"/>
      <point x="359" y="59"/>
      <point x="359" y="0" type="curve"/>
      <point x="409" y="0"/>
      <point x="448" y="0"/>
      <point x="498" y="0" type="curve"/>
      <point x="498" y="59"/>
      <point x="498" y="0"/>
    </contour>
    <contour>
      <point x="424" y="284" type="curve"/>
      <point x="347" y="284"/>
      <point x="270" y="284"/>
      <point x="192" y="284" type="curve"/>
      <point x="162" y="222"/>
      <point x="192" y="284"/>
      <point x="162" y="222" type="curve"/>
      <point x="257" y="222"/>
      <point x="352" y="222"/>
      <point x="448" y="222" type="curve"/>
      <point x="424" y="284"/>
      <point x="448" y="222"/>
    </contour>
    <contour>
      <point x="545" y="0" type="curve"/>
      <point x="480" y="241"/>
      <point x="412" y="481"/>
      <point x="347" y="722" type="curve"/>
      <point x="279" y="722"/>
      <point x="347" y="722"/>
      <point x="279" y="722" type="curve"/>
      <point x="343" y="481"/>
      <point x="404" y="241"/>
      <point x="468" y="0" type="curve"/>
      <point x="545" y="0"/>
      <point x="468" y="0"/>
    </contour>
    <contour>
      <point x="136" y="0" type="curve"/>
      <point x="207" y="241"/>
      <point x="274" y="481"/>
      <point x="345" y="722" type="curve"/>
      <point x="278" y="722"/>
      <point x="345" y="722"/>
      <point x="278" y="722" type="curve"/>
      <point x="205" y="481"/>
      <point x="128" y="241"/>
      <point x="55" y="0" type="curve"/>
      <point x="136" y="0"/>
      <point x="55" y="0"/>
    </contour>
    <contour>
      <point x="201" y="934" type="curve"/>
      <point x="201" y="859"/>
      <point x="239" y="805"/>
      <point x="310" y="805" type="curve"/>
      <point x="383" y="805"/>
      <point x="421" y="858"/>
      <point x="421" y="934" type="curve"/>
      <point x="421" y="1010"/>
      <point x="382" y="1064"/>
      <point x="308" y="1064" type="curve"/>
      <point x="237" y="1064"/>
      <point x="201" y="1010"/>
      <point x="201" y="934" type="curve"/>
      <point x="268" y="934"/>
      <point x="197" y="934"/>
      <point x="263" y="934" type="curve"/>
      <point x="263" y="974"/>
      <point x="270" y="1009"/>
      <point x="308" y="1009" type="curve"/>
      <point x="347" y="1009"/>
      <point x="357" y="975"/>
      <point x="357" y="934" type="curve"/>
      <point x="357" y="894"/>
      <point x="348" y="859"/>
      <point x="310" y="859" type="curve"/>
      <point x="272" y="859"/>
      <point x="263" y="894"/>
      <point x="263" y="934" type="curve"/>
      <point x="197" y="934"/>
      <point x="268" y="934"/>
    </contour>
  </outline>
</glyph>
<glyph name="AE" format="1">
  <advance width="772"/>
  <unicode hex="00C6"/>
  <outline>
    <contour>
      <point x="94" y="59" type="curve"/>
      <point x="-15" y="59"/>
      <point x="99" y="59"/>
      <point x="-10" y="59" type="curve"/>
      <point x="-10" y="0"/>
      <point x="-10" y="59"/>
      <point x="-10" y="0" type="curve"/>
      <point x="26" y="0"/>
      <point x="57" y="0"/>
      <point x="94" y="0" type="curve"/>
      <point x="94" y="59"/>
      <point x="94" y="0"/>
    </contour>
    <contour>
      <point x="94" y="0" type="curve"/>
      <point x="139" y="0"/>
      <point x="86" y="0"/>
      <point x="221" y="0" type="curve"/>
      <point x="221" y="59"/>
      <point x="221" y="0"/>
      <point x="221" y="59" type="curve"/>
      <point x="86" y="59"/>
      <point x="229" y="59"/>
      <point x="94" y="59" type="curve"/>
      <point x="94" y="0"/>
      <point x="94" y="59"/>
    </contour>
    <contour>
      <point x="404" y="277" type="curve"/>
      <point x="327" y="277"/>
      <point x="279" y="277"/>
      <point x="202" y="277" type="curve"/>
      <point x="172" y="215"/>
      <point x="202" y="277"/>
      <point x="172" y="215" type="curve"/>
      <point x="267" y="215"/>
      <point x="333" y="215"/>
      <point x="428" y="215" type="curve"/>
      <point x="404" y="277"/>
      <point x="428" y="215"/>
    </contour>
    <contour>
      <point x="126" y="0" type="curve"/>
      <point x="459" y="722" type="line"/>
      <point x="391" y="722"/>
      <point x="459" y="722"/>
      <point x="391" y="722" type="curve"/>
      <point x="45" y="0" type="line"/>
      <point x="126" y="0"/>
      <point x="45" y="0"/>
    </contour>
    <contour>
      <point x="728" y="29" type="curve"/>
      <point x="728" y="149"/>
      <point x="728" y="24"/>
      <point x="728" y="144" type="curve"/>
      <point x="668" y="144"/>
      <point x="728" y="144"/>
      <point x="668" y="144" type="curve"/>
      <point x="668" y="24"/>
      <point x="668" y="149"/>
      <point x="668" y="29" type="curve"/>
      <point x="728" y="29"/>
      <point x="668" y="29"/>
    </contour>
    <contour>
      <point x="644" y="693" type="curve"/>
      <point x="644" y="573"/>
      <point x="644" y="698"/>
      <point x="644" y="578" type="curve"/>
      <point x="704" y="578"/>
      <point x="644" y="578"/>
      <point x="704" y="578" type="curve"/>
      <point x="704" y="698"/>
      <point x="704" y="573"/>
      <point x="704" y="693" type="curve"/>
      <point x="644" y="693"/>
      <point x="704" y="693"/>
    </contour>
    <contour>
      <point x="419" y="59" type="curve"/>
      <point x="285" y="59"/>
      <point x="431" y="59"/>
      <point x="297" y="59" type="curve"/>
      <point x="297" y="0"/>
      <point x="297" y="59"/>
      <point x="297" y="0" type="curve"/>
      <point x="342" y="0"/>
      <point x="375" y="0"/>
      <point x="419" y="0" type="curve"/>
      <point x="419" y="59"/>
      <point x="419" y="0"/>
    </contour>
    <contour>
      <point x="419" y="722" type="curve"/>
      <point x="375" y="722"/>
      <point x="342" y="722"/>
      <point x="297" y="722" type="curve"/>
      <point x="297" y="663"/>
      <point x="297" y="722"/>
      <point x="297" y="663" type="curve"/>
      <point x="431" y="663"/>
      <point x="285" y="663"/>
      <point x="419" y="663" type="curve"/>
      <point x="419" y="722"/>
      <point x="419" y="663"/>
    </contour>
    <contour>
      <point x="422" y="344" type="curve"/>
      <point x="500" y="344"/>
      <point x="579" y="344"/>
      <point x="658" y="344" type="curve"/>
      <point x="658" y="403"/>
      <point x="658" y="344"/>
      <point x="658" y="403" type="curve"/>
      <point x="579" y="403"/>
      <point x="500" y="403"/>
      <point x="422" y="403" type="curve"/>
      <point x="422" y="344"/>
      <point x="422" y="403"/>
    </contour>
    <contour>
      <point x="411" y="663" type="curve"/>
      <point x="509" y="663"/>
      <point x="606" y="663"/>
      <point x="704" y="663" type="curve"/>
      <point x="704" y="722"/>
      <point x="704" y="663"/>
      <point x="704" y="722" type="curve"/>
      <point x="606" y="722"/>
      <point x="509" y="722"/>
      <point x="411" y="722" type="curve"/>
      <point x="411" y="663"/>
      <point x="411" y="722"/>
    </contour>
    <contour>
      <point x="456" y="0" type="curve"/>
      <point x="456" y="722" type="line"/>
      <point x="382" y="722"/>
      <point x="456" y="722"/>
      <point x="382" y="722" type="curve"/>
      <point x="382" y="481"/>
      <point x="382" y="241"/>
      <point x="382" y="0" type="curve"/>
      <point x="456" y="0"/>
      <point x="382" y="0"/>
    </contour>
    <contour>
      <point x="411" y="0" type="curve"/>
      <point x="517" y="0"/>
      <point x="622" y="0"/>
      <point x="728" y="0" type="curve"/>
      <point x="728" y="59"/>
      <point x="728" y="0"/>
      <point x="728" y="59" type="curve"/>
      <point x="622" y="59"/>
      <point x="517" y="59"/>
      <point x="411" y="59" type="curve"/>
      <point x="411" y="0"/>
      <point x="411" y="59"/>
    </contour>
  </outline>
</glyph>
<glyph name="Ccedilla" format="1">
  <advance width="556"/>
  <unicode hex="00C7"/>
  <outline>
    <contour>
      <point x="437" y="655" type="curve"/>
      <point x="437" y="535"/>
      <point x="437" y="655"/>
      <point x="437" y="535" type="curve"/>
      <point x="497" y="535"/>
      <point x="437" y="535"/>
      <point x="497" y="535" type="curve"/>
      <point x="497" y="655"/>
      <point x="497" y="535"/>
      <point x="497" y="655" type="curve"/>
      <point x="437" y="655"/>
      <point x="497" y="655"/>
    </contour>
    <contour>
      <point x="497" y="655" type="curve"/>
      <point x="447" y="695"/>
      <point x="388" y="727"/>
      <point x="317" y="727" type="curve"/>
      <point x="125" y="727"/>
      <point x="59" y="563"/>
      <point x="59" y="344" type="curve"/>
      <point x="59" y="144"/>
      <point x="123" y="-5"/>
      <point x="303" y="-5" type="curve"/>
      <point x="395" y="-5"/>
      <point x="453" y="32"/>
      <point x="510" y="97" type="curve"/>
      <point x="466" y="142"/>
      <point x="510" y="97"/>
      <point x="466" y="142" type="curve"/>
      <point x="419" y="91"/>
      <point x="377" y="58"/>
      <point x="306" y="58" type="curve"/>
      <point x="167" y="58"/>
      <point x="133" y="186"/>
      <point x="133" y="347" type="curve"/>
      <point x="133" y="523"/>
      <point x="167" y="665"/>
      <point x="314" y="665" type="curve"/>
      <point x="370" y="665"/>
      <point x="418" y="640"/>
      <point x="457" y="608" type="curve"/>
      <point x="497" y="655"/>
      <point x="457" y="608"/>
    </contour>
    <contour>
      <point x="267" y="40" type="curve"/>
      <point x="257" y="16"/>
      <point x="234" y="-40"/>
      <point x="224" y="-65" type="curve"/>
      <point x="275" y="-112"/>
      <point x="224" y="-65"/>
      <point x="275" y="-112" type="curve"/>
      <point x="286" y="-85"/>
      <point x="313" y="-27"/>
      <point x="324" y="-1" type="curve"/>
      <point x="267" y="40"/>
      <point x="324" y="-1"/>
    </contour>
    <contour>
      <point x="275" y="-112" type="curve"/>
      <point x="282" y="-105"/>
      <point x="288" y="-101"/>
      <point x="298" y="-101" type="curve"/>
      <point x="317" y="-101"/>
      <point x="322" y="-117"/>
      <point x="322" y="-139" type="curve"/>
      <point x="322" y="-163"/>
      <point x="309" y="-178"/>
      <point x="286" y="-178" type="curve"/>
      <point x="268" y="-178"/>
      <point x="253" y="-174"/>
      <point x="238" y="-162" type="curve"/>
      <point x="210" y="-206"/>
      <point x="238" y="-162"/>
      <point x="210" y="-206" type="curve"/>
      <point x="232" y="-223"/>
      <point x="254" y="-230"/>
      <point x="283" y="-230" type="curve"/>
      <point x="338" y="-230"/>
      <point x="373" y="-195"/>
      <point x="373" y="-138" type="curve"/>
      <point x="373" y="-83"/>
      <point x="344" y="-45"/>
      <point x="293" y="-45" type="curve"/>
      <point x="266" y="-45"/>
      <point x="247" y="-50"/>
      <point x="224" y="-65" type="curve"/>
      <point x="275" y="-112"/>
      <point x="224" y="-65"/>
    </contour>
  </outline>
</glyph>
<glyph name="Igrave" format="1">
  <advance width="322"/>
  <unicode hex="00CC"/>
  <outline>
    <contour>
      <point x="161" y="722" type="curve"/>
      <point x="116" y="722"/>
      <point x="82" y="722"/>
      <point x="38" y="722" type="curve"/>
      <point x="38" y="663"/>
      <point x="38" y="722"/>
      <point x="38" y="663" type="curve"/>
      <point x="172" y="663"/>
      <point x="26" y="663"/>
      <point x="161" y="663" type="curve"/>
      <point x="161" y="722"/>
      <point x="161" y="663"/>
    </contour>
    <contour>
      <point x="161" y="663" type="curve"/>
      <point x="295" y="663"/>
      <point x="149" y="663"/>
      <point x="284" y="663" type="curve"/>
      <point x="284" y="722"/>
      <point x="284" y="663"/>
      <point x="284" y="722" type="curve"/>
      <point x="238" y="722"/>
      <point x="205" y="722"/>
      <point x="161" y="722" type="curve"/>
      <point x="161" y="663"/>
      <point x="161" y="722"/>
    </contour>
    <contour>
      <point x="161" y="0" type="curve"/>
      <point x="205" y="0"/>
      <point x="238" y="0"/>
      <point x="284" y="0" type="curve"/>
      <point x="284" y="59"/>
      <point x="284" y="0"/>
      <point x="284" y="59" type="curve"/>
      <point x="149" y="59"/>
      <point x="295" y="59"/>
      <point x="161" y="59" type="curve"/>
      <point x="161" y="0"/>
      <point x="161" y="59"/>
    </contour>
    <contour>
      <point x="161" y="59" type="curve"/>
      <point x="26" y="59"/>
      <point x="172" y="59"/>
      <point x="38" y="59" type="curve"/>
      <point x="38" y="0"/>
      <point x="38" y="59"/>
      <point x="38" y="0" type="curve"/>
      <point x="82" y="0"/>
      <point x="116" y="0"/>
      <point x="161" y="0" type="curve"/>
      <point x="161" y="59"/>
      <point x="161" y="0"/>
    </contour>
    <contour>
      <point x="197" y="0" type="curve"/>
      <point x="197" y="241"/>
      <point x="197" y="481"/>
      <point x="197" y="722" type="curve"/>
      <point x="123" y="722"/>
      <point x="197" y="722"/>
      <point x="123" y="722" type="curve"/>
      <point x="123" y="481"/>
      <point x="123" y="241"/>
      <point x="123" y="0" type="curve"/>
      <point x="197" y="0"/>
      <point x="123" y="0"/>
    </contour>
    <contour>
      <point x="198" y="807" type="line"/>
      <point x="125" y="973" type="line"/>
      <point x="33" y="973" type="line"/>
      <point x="128" y="807" type="line"/>
    </contour>
  </outline>
</glyph>
<glyph name="Idieresis" format="1">
  <advance width="325"/>
  <unicode hex="00CF"/>
  <outline>
    <contour>
      <point x="163" y="722" type="curve"/>
      <point x="118" y="722"/>
      <point x="85" y="722"/>
      <point x="40" y="722" type="curve"/>
      <point x="40" y="663"/>
      <point x="40" y="722"/>
      <point x="40" y="663" type="curve"/>
      <point x="175" y="663"/>
      <point x="28" y="663"/>
      <point x="163" y="663" type="curve"/>
      <point x="163" y="722"/>
      <point x="163" y="663"/>
    </contour>
    <contour>
      <point x="163" y="663" type="curve"/>
      <point x="298" y="663"/>
      <point x="151" y="663"/>
      <point x="286" y="663" type="curve"/>
      <point x="286" y="722"/>
      <point x="286" y="663"/>
      <point x="286" y="722" type="curve"/>
      <point x="241" y="722"/>
      <point x="207" y="722"/>
      <point x="163" y="722" type="curve"/>
      <point x="163" y="663"/>
      <point x="163" y="722"/>
    </contour>
    <contour>
      <point x="163" y="0" type="curve"/>
      <point x="207" y="0"/>
      <point x="241" y="0"/>
      <point x="286" y="0" type="curve"/>
      <point x="286" y="59"/>
      <point x="286" y="0"/>
      <point x="286" y="59" type="curve"/>
      <point x="151" y="59"/>
      <point x="298" y="59"/>
      <point x="163" y="59" type="curve"/>
      <point x="163" y="0"/>
      <point x="163" y="59"/>
    </contour>
    <contour>
      <point x="163" y="59" type="curve"/>
      <point x="28" y="59"/>
      <point x="175" y="59"/>
      <point x="40" y="59" type="curve"/>
      <point x="40" y="0"/>
      <point x="40" y="59"/>
      <point x="40" y="0" type="curve"/>
      <point x="85" y="0"/>
      <point x="118" y="0"/>
      <point x="163" y="0" type="curve"/>
      <point x="163" y="59"/>
      <point x="163" y="0"/>
    </contour>
    <contour>
      <point x="199" y="0" type="curve"/>
      <point x="199" y="241"/>
      <point x="199" y="481"/>
      <point x="199" y="722" type="curve"/>
      <point x="125" y="722"/>
      <point x="199" y="722"/>
      <point x="125" y="722" type="curve"/>
      <point x="125" y="481"/>
      <point x="125" y="241"/>
      <point x="125" y="0" type="curve"/>
      <point x="199" y="0"/>
      <point x="125" y="0"/>
    </contour>
    <contour>
      <point x="139" y="842" type="curve"/>
      <point x="139" y="868"/>
      <point x="121" y="882"/>
      <point x="97" y="882" type="curve"/>
      <point x="72" y="882"/>
      <point x="56" y="867"/>
      <point x="56" y="842" type="curve"/>
      <point x="139" y="842"/>
      <point x="56" y="842"/>
      <point x="139" y="842" type="curve"/>
      <point x="139" y="815"/>
      <point x="122" y="802"/>
      <point x="97" y="802" type="curve"/>
      <point x="72" y="802"/>
      <point x="56" y="815"/>
      <point x="56" y="842" type="curve"/>
      <point x="139" y="842"/>
      <point x="56" y="842"/>
    </contour>
    <contour>
      <point x="272" y="842" type="curve"/>
      <point x="272" y="868"/>
      <point x="254" y="882"/>
      <point x="230" y="882" type="curve"/>
      <point x="205" y="882"/>
      <point x="189" y="867"/>
      <point x="189" y="842" type="curve"/>
      <point x="272" y="842"/>
      <point x="189" y="842"/>
      <point x="272" y="842" type="curve"/>
      <point x="272" y="815"/>
      <point x="255" y="802"/>
      <point x="230" y="802" type="curve"/>
      <point x="204" y="802"/>
      <point x="189" y="815"/>
      <point x="189" y="842" type="curve"/>
      <point x="272" y="842"/>
      <point x="189" y="842"/>
    </contour>
  </outline>
</glyph>
<glyph name="Oacute" format="1">
  <advance width="608"/>
  <unicode hex="00D3"/>
  <outline>
    <contour>
      <point x="133" y="360" type="curve"/>
      <point x="133" y="523"/>
      <point x="160" y="665"/>
      <point x="302" y="665" type="curve"/>
      <point x="442" y="665"/>
      <point x="475" y="525"/>
      <point x="475" y="363" type="curve"/>
      <point x="475" y="201"/>
      <point x="447" y="57"/>
      <point x="306" y="57" type="curve"/>
      <point x="164" y="57"/>
      <point x="133" y="197"/>
      <point x="133" y="360" type="curve"/>
      <point x="59" y="360"/>
      <point x="133" y="360"/>
      <point x="59" y="360" type="curve"/>
      <point x="59" y="157"/>
      <point x="123" y="-5"/>
      <point x="303" y="-5" type="curve"/>
      <point x="485" y="-5"/>
      <point x="549" y="159"/>
      <point x="549" y="363" type="curve"/>
      <point x="549" y="564"/>
      <point x="486" y="727"/>
      <point x="306" y="727" type="curve"/>
      <point x="124" y="727"/>
      <point x="59" y="563"/>
      <point x="59" y="360" type="curve"/>
      <point x="133" y="360"/>
      <point x="59" y="360"/>
    </contour>
    <contour>
      <point x="337" y="806" type="line"/>
      <point x="432" y="972" type="line"/>
      <point x="340" y="972" type="line"/>
      <point x="267" y="806" type="line"/>
    </contour>
  </outline>
</glyph>
<glyph name="multiply" format="1">
  <advance width="556"/>
  <unicode hex="00D7"/>
  <outline>
    <contour>
      <point x="109" y="93" type="line"/>
      <point x="491" y="483" type="line"/>
      <point x="447" y="527" type="line"/>
      <point x="66" y="137" type="line"/>
    </contour>
    <contour>
      <point x="491" y="136" type="line"/>
      <point x="109" y="525" type="line"/>
      <point x="66" y="482" type="line"/>
      <point x="447" y="92" type="line"/>
    </contour>
  </outline>
</glyph>
<glyph name="Uacute" format="1">
  <advance width="666"/>
  <unicode hex="00DA"/>
  <outline>
    <contour>
      <point x="514" y="663" type="curve"/>
      <point x="641" y="663"/>
      <point x="509" y="663"/>
      <point x="636" y="663" type="curve"/>
      <point x="636" y="722"/>
      <point x="636" y="663"/>
      <point x="636" y="722" type="curve"/>
      <point x="594" y="722"/>
      <point x="556" y="722"/>
      <point x="514" y="722" type="curve"/>
      <point x="514" y="663"/>
      <point x="514" y="722"/>
    </contour>
    <contour>
      <point x="514" y="722" type="curve"/>
      <point x="472" y="722"/>
      <point x="434" y="722"/>
      <point x="393" y="722" type="curve"/>
      <point x="393" y="663"/>
      <point x="393" y="722"/>
      <point x="393" y="663" type="curve"/>
      <point x="519" y="663"/>
      <point x="388" y="663"/>
      <point x="514" y="663" type="curve"/>
      <point x="514" y="722"/>
      <point x="514" y="663"/>
    </contour>
    <contour>
      <point x="154" y="722" type="curve"/>
      <point x="111" y="722"/>
      <point x="74" y="722"/>
      <point x="32" y="722" type="curve"/>
      <point x="32" y="663"/>
      <point x="32" y="722"/>
      <point x="32" y="663" type="curve"/>
      <point x="159" y="663"/>
      <point x="27" y="663"/>
      <point x="154" y="663" type="curve"/>
      <point x="154" y="722"/>
      <point x="154" y="663"/>
    </contour>
    <contour>
      <point x="154" y="663" type="curve"/>
      <point x="280" y="663"/>
      <point x="148" y="663"/>
      <point x="275" y="663" type="curve"/>
      <point x="275" y="722"/>
      <point x="275" y="663"/>
      <point x="275" y="722" type="curve"/>
      <point x="233" y="722"/>
      <point x="196" y="722"/>
      <point x="154" y="722" type="curve"/>
      <point x="154" y="663"/>
      <point x="154" y="722"/>
    </contour>
    <contour>
      <point x="118" y="702" type="curve"/>
      <point x="118" y="558"/>
      <point x="117" y="415"/>
      <point x="118" y="272" type="curve"/>
      <point x="118" y="101"/>
      <point x="173" y="-5"/>
      <point x="332" y="-5" type="curve"/>
      <point x="490" y="-5"/>
      <point x="548" y="101"/>
      <point x="548" y="272" type="curve"/>
      <point x="548" y="416"/>
      <point x="548" y="559"/>
      <point x="548" y="702" type="curve"/>
      <point x="481" y="702"/>
      <point x="548" y="702"/>
      <point x="480" y="702" type="curve"/>
      <point x="480" y="555"/>
      <point x="480" y="410"/>
      <point x="480" y="264" type="curve"/>
      <point x="480" y="143"/>
      <point x="443" y="60"/>
      <point x="337" y="60" type="curve"/>
      <point x="218" y="60"/>
      <point x="186" y="150"/>
      <point x="186" y="283" type="curve"/>
      <point x="186" y="423"/>
      <point x="186" y="563"/>
      <point x="186" y="702" type="curve"/>
      <point x="118" y="702"/>
      <point x="185" y="702"/>
    </contour>
    <contour>
      <point x="369" y="806" type="line"/>
      <point x="464" y="972" type="line"/>
      <point x="372" y="972" type="line"/>
      <point x="299" y="806" type="line"/>
    </contour>
  </outline>
</glyph>
<glyph name="Yacute" format="1">
  <advance width="561"/>
  <unicode hex="00DD"/>
  <outline>
    <contour>
      <point x="269" y="59" type="curve"/>
      <point x="141" y="59"/>
      <point x="274" y="59"/>
      <point x="146" y="59" type="curve"/>
      <point x="146" y="0"/>
      <point x="146" y="59"/>
      <point x="146" y="0" type="curve"/>
      <point x="188" y="0"/>
      <point x="226" y="0"/>
      <point x="269" y="0" type="curve"/>
      <point x="269" y="59"/>
      <point x="269" y="0"/>
    </contour>
    <contour>
      <point x="269" y="0" type="curve"/>
      <point x="311" y="0"/>
      <point x="349" y="0"/>
      <point x="391" y="0" type="curve"/>
      <point x="391" y="59"/>
      <point x="391" y="0"/>
      <point x="391" y="59" type="curve"/>
      <point x="264" y="59"/>
      <point x="397" y="59"/>
      <point x="269" y="59" type="curve"/>
      <point x="269" y="0"/>
      <point x="269" y="59"/>
    </contour>
    <contour>
      <point x="430" y="722" type="curve"/>
      <point x="389" y="722"/>
      <point x="353" y="722"/>
      <point x="312" y="722" type="curve"/>
      <point x="312" y="663"/>
      <point x="312" y="722"/>
      <point x="312" y="663" type="curve"/>
      <point x="436" y="663"/>
      <point x="307" y="663"/>
      <point x="430" y="663" type="curve"/>
      <point x="430" y="722"/>
      <point x="430" y="663"/>
    </contour>
    <contour>
      <point x="108" y="722" type="curve"/>
      <point x="71" y="722"/>
      <point x="38" y="722"/>
      <point x="1" y="722" type="curve"/>
      <point x="1" y="663"/>
      <point x="1" y="722"/>
      <point x="1" y="663" type="curve"/>
      <point x="113" y="663"/>
      <point x="-4" y="663"/>
      <point x="108" y="663" type="curve"/>
      <point x="108" y="722"/>
      <point x="108" y="663"/>
    </contour>
    <contour>
      <point x="117" y="663" type="curve"/>
      <point x="240" y="663"/>
      <point x="111" y="663"/>
      <point x="235" y="663" type="curve"/>
      <point x="235" y="722"/>
      <point x="235" y="663"/>
      <point x="235" y="722" type="curve"/>
      <point x="194" y="722"/>
      <point x="157" y="722"/>
      <point x="117" y="722" type="curve"/>
      <point x="117" y="663"/>
      <point x="117" y="722"/>
    </contour>
    <contour>
      <point x="439" y="663" type="curve"/>
      <point x="554" y="663"/>
      <point x="434" y="663"/>
      <point x="549" y="663" type="curve"/>
      <point x="549" y="722"/>
      <point x="549" y="663"/>
      <point x="549" y="722" type="curve"/>
      <point x="511" y="722"/>
      <point x="477" y="722"/>
      <point x="439" y="722" type="curve"/>
      <point x="439" y="663"/>
      <point x="439" y="722"/>
    </contour>
    <contour>
      <point x="61" y="722" type="curve"/>
      <point x="118" y="594"/>
      <point x="173" y="467"/>
      <point x="229" y="337" type="curve"/>
      <point x="305" y="337"/>
      <point x="219" y="337"/>
      <point x="295" y="337" type="curve"/>
      <point x="243" y="467"/>
      <point x="191" y="593"/>
      <point x="138" y="722" type="curve"/>
      <point x="61" y="722"/>
      <point x="138" y="722"/>
    </contour>
    <contour>
      <point x="410" y="722" type="curve"/>
      <point x="352" y="592"/>
      <point x="297" y="467"/>
      <point x="238" y="337" type="curve"/>
      <point x="314" y="337"/>
      <point x="233" y="337"/>
      <point x="309" y="337" type="curve"/>
      <point x="368" y="466"/>
      <point x="426" y="594"/>
      <point x="486" y="722" type="curve"/>
      <point x="410" y="722"/>
      <point x="486" y="722"/>
    </contour>
    <contour>
      <point x="309" y="0" type="curve"/>
      <point x="309" y="115"/>
      <point x="309" y="227"/>
      <point x="309" y="342" type="curve"/>
      <point x="229" y="342"/>
      <point x="309" y="342"/>
      <point x="229" y="342" type="curve"/>
      <point x="229" y="227"/>
      <point x="229" y="115"/>
      <point x="229" y="0" type="curve"/>
      <point x="309" y="0"/>
      <point x="229" y="0"/>
    </contour>
    <contour>
      <point x="306" y="806" type="line"/>
      <point x="400" y="972" type="line"/>
      <point x="309" y="972" type="line"/>
      <point x="235" y="806" type="line"/>
    </contour>
  </outline>
</glyph>
